<svg width="116" height="20" viewBox="0 0 116 20" fill="none" xmlns="http://www.w3.org/2000/svg">
<path d="M42.2179 7.91783H38.0144L39.4765 0.702637H3.77707L0 19.3419H14.2554L15.2301 14.5318H6.76218L7.24954 12.1267H15.6566L16.5095 7.91783H8.16335L8.65071 5.51276H22.0532L19.2509 19.3419H25.0383L27.8407 5.51276H32.7143L29.912 19.3419H35.7603L37.2224 12.1267H41.4259L39.9638 19.3419H45.8122L49.5893 0.702637H43.7409L42.2179 7.91783ZM67.1344 3.1077H69.0838L69.5712 0.702637H67.6217L67.1344 3.1077ZM72.1299 3.1077H74.0793L74.5667 0.702637H72.6172L72.1299 3.1077ZM90.2842 3.1077H92.2336L92.721 0.702637H90.7715L90.2842 3.1077ZM100.031 6.65517C96.6199 6.65517 94.244 9.00011 93.513 13.1488C93.3911 13.8102 93.3302 14.4716 93.3302 15.133C93.3302 17.959 95.036 19.7026 97.8383 19.7026C99.4222 19.7026 101.006 19.0412 102.103 17.8988L101.006 16.5761C100.275 17.478 99.1176 18.0191 97.9602 18.0191C96.6199 18.0191 95.2187 17.2374 95.2187 15.0128C95.2187 14.3514 95.2797 13.7501 95.4015 13.0887C95.5843 11.7659 96.1935 10.5033 97.0463 9.48112C97.7774 8.69947 98.813 8.27859 99.8487 8.27859C100.884 8.21846 101.859 8.7596 102.346 9.6615L103.748 8.51909C102.956 7.31656 101.494 6.59504 100.031 6.65517ZM112.398 6.41466C110.997 6.35454 109.657 6.89567 108.743 7.8577L110.205 0.702637H108.317L104.54 19.3419H106.428L108.012 11.5254C108.682 8.21846 111.302 8.03808 111.789 8.03808C112.947 7.91783 113.982 8.7596 114.104 9.902C114.104 10.0223 114.104 10.1425 114.104 10.2628C114.104 10.6836 114.043 11.0444 113.982 11.4653L112.337 19.3419H114.226L115.871 11.2849C115.932 10.864 115.993 10.4431 115.993 10.0223C116.114 8.15833 114.713 6.53491 112.825 6.41466C112.703 6.41466 112.581 6.35454 112.398 6.41466ZM87.1163 19.2818L88.9439 19.3419L91.4417 6.71529H89.614L87.1163 19.2818ZM53.1227 8.45897L59.3975 8.51909L51.1123 17.8387L50.8077 19.3419H59.763L60.1285 17.5381H53.4273L61.7125 8.21846L62.0171 6.71529H53.4882L53.1227 8.45897ZM84.0094 6.53491C82.6691 6.47479 81.3289 7.07605 80.5369 8.15833L80.8415 6.71529H79.0139L76.5161 19.2818V19.3419H78.3438L79.8668 11.5855C80.2323 9.60137 81.8162 8.15833 83.522 8.15833C84.253 8.15833 84.9232 8.45897 85.2887 9.06023L86.8117 7.73745C86.0807 6.9558 85.045 6.53491 84.0094 6.53491ZM72.8 6.71529H74.6885V6.77542L72.1908 19.402H70.3632V19.3419L70.6068 18.0191C69.6321 19.0412 68.2919 19.5824 66.8907 19.5223C65.0022 19.5824 63.4182 18.1995 63.3573 16.3355C63.3573 16.2153 63.3573 16.095 63.3573 15.9748C63.3573 15.614 63.4182 15.1931 63.4792 14.8324V14.7121L65.0631 6.77542H66.8907V6.83555L65.3068 14.5919C65.2458 14.9526 65.1849 15.3735 65.1849 15.7343C65.124 16.8767 65.9769 17.8387 67.0735 17.959C67.1953 17.959 67.3171 17.959 67.439 17.959C67.9264 17.959 70.485 17.7786 71.1551 14.5318L72.8 6.71529Z" fill="black"/>
</svg>
