<svg width="114" height="42" viewBox="0 0 114 42" fill="none" xmlns="http://www.w3.org/2000/svg">
<path d="M0 41.3971H114V0.702637H0V41.3971Z" fill="#FCD205"/>
<path d="M86.2403 32.051L87.6705 25.3577H6.20279L4.77344 32.051H86.2403Z" fill="white"/>
<path d="M27.0011 13.6332H23.9709L20.959 27.5908H23.9901L27.0011 13.6332Z" fill="#231F20"/>
<path d="M37.6194 13.6332H29.1491L26.1562 27.5908H34.7205L35.2669 25.0588H29.731L30.4845 21.5867H35.2852L35.8315 19.0737H31.0308L31.652 16.1662H37.073L37.6194 13.6332Z" fill="#231F20"/>
<path d="M17.7113 20.8597C17.3538 22.5099 16.3559 24.5192 14.1721 24.9501C13.7225 25.0256 13.3065 25.0447 12.9499 25.0447H11.5187L13.4014 16.2257H14.6994C15.0205 16.2257 15.4537 16.2439 15.7931 16.3003C17.788 16.6376 18.2012 18.6641 17.7113 20.8597ZM16.5365 13.7264C15.9527 13.65 15.1819 13.6328 14.7103 13.6328H10.8893L7.89648 27.5903H12.9426C13.3941 27.5903 13.9578 27.5721 14.3546 27.5176C18.3061 27.0285 20.2271 24.1773 20.7908 21.268C21.5816 17.2167 20.1523 14.2519 16.5365 13.7264Z" fill="#231F20"/>
<path d="M87.9558 13.633H77.3409L76.7754 16.2205H80.5773L78.1309 27.5906H81.1611L83.6084 16.2205H87.392L87.9558 13.633Z" fill="#231F20"/>
<path d="M62.4392 20.6346C61.9494 22.8867 61.0272 25.2305 58.4677 25.2305C56.0012 25.2305 55.6628 22.923 56.1718 20.6346C56.6598 18.3826 57.5829 16.0397 60.1424 16.0397C62.6089 16.0397 62.9491 18.3454 62.4392 20.6346ZM60.3622 13.4831C55.5041 13.4831 53.6588 16.7661 52.8862 20.6119C52.0971 24.4577 53.7354 27.7407 58.1585 27.7407C63.0148 27.7407 64.8601 24.4577 65.6318 20.6119C66.4217 16.7661 64.7853 13.4831 60.3622 13.4831Z" fill="#231F20"/>
<path d="M67.1756 17.7409C67.1756 19.3911 68.1926 20.1993 69.1513 20.9312L70.7521 22.1131C71.0723 22.3568 71.3733 22.5632 71.5986 22.825C71.8057 23.0505 71.9744 23.276 71.9744 23.6324C71.9744 24.1388 71.7309 24.4579 71.3916 24.6824C70.7521 25.0961 69.7552 25.0961 69.1513 25.0961C68.1926 25.0961 66.7058 24.8161 66.1394 24.5888L65.2363 27.1417C66.3273 27.5345 68.0786 27.7036 69.3401 27.7036C70.8652 27.7036 71.9562 27.4981 72.8793 27.1036C74.5349 26.409 75.3631 25.1143 75.3631 23.5951C75.3631 22.695 75.063 22.094 74.6489 21.5504C74.3086 21.1185 73.7641 20.6494 73.1429 20.1793L71.6935 19.092C70.9592 18.5483 70.4128 18.1355 70.4128 17.4973C70.4128 16.8972 70.8269 16.3717 71.5986 16.2781C72.0702 16.2208 72.5026 16.2208 73.2186 16.2208H75.5136L76.0791 13.6333H73.5187C72.7844 13.6333 71.8239 13.6333 70.9975 13.726C69.0209 13.9515 67.1756 15.358 67.1756 17.7409Z" fill="#231F20"/>
<path d="M49.1778 18.5482C48.9898 19.711 48.199 20.4247 47.1829 20.6684C46.9375 20.7239 46.4851 20.762 46.2233 20.762H44.9991L45.9779 16.2026H47.2951C47.6709 16.2026 47.9536 16.2398 48.1798 16.3144C48.9333 16.559 49.3857 17.2917 49.1778 18.5482ZM48.7262 13.726C48.3687 13.6696 47.8597 13.6332 47.3516 13.6332H43.5315L40.5195 27.5908H43.5315L44.4528 23.3323H46.2041C47.1254 23.3323 47.7283 23.2386 48.313 23.0695C50.4767 22.4122 51.8704 20.612 52.1897 18.6973C52.6613 16.0898 51.3441 14.1569 48.7262 13.726Z" fill="#231F20"/>
<path d="M102.15 13.6217C102.15 13.6217 103.938 5.23101 103.947 5.18464H92.569C92.5636 5.21373 90.2038 16.1883 90.1947 16.2338H93.0105C93.0178 16.2047 94.8248 7.7985 94.8248 7.7985H100.572C100.572 7.7985 98.7672 16.1883 98.758 16.2338H107.291L106.159 21.5115H97.6689C97.6625 21.5424 95.9732 29.4022 95.9732 29.4022H89.5416C89.5361 29.4331 88.9915 32.0079 88.9824 32.0515H98.2326C98.2372 32.0224 99.9365 24.1426 99.9365 24.1426H108.394C108.4 24.1126 110.647 13.6663 110.657 13.6217H102.15Z" fill="#ED1C24"/>
</svg>
