<svg width="140" height="30" viewBox="0 0 140 30" fill="none" xmlns="http://www.w3.org/2000/svg">
<g clip-path="url(#clip0)">
<path d="M71.7168 29.5916L69.124 26.0096H69.1022V29.5916H68.0586V22.2133C68.6682 21.9244 69.3404 21.7828 70.0181 21.8006C71.8065 21.8006 72.736 22.6498 72.736 24.0783C72.736 25.3852 71.7847 26.1656 70.3388 26.1947V26.2159L72.918 29.5969L71.7168 29.5916ZM69.9964 22.4037C69.6888 22.3869 69.3817 22.4442 69.1022 22.5704V25.7873C69.3245 25.8346 69.5515 25.8568 69.779 25.8535C71.0645 25.8535 71.6814 25.2291 71.6814 24.1233C71.6814 22.9487 71.1542 22.4037 69.9964 22.4037Z" fill="#73797C"/>
<path d="M74.6743 26.9566C74.7885 28.3191 75.4435 28.9884 76.555 28.9884C77.0855 29.0034 77.6109 28.884 78.0797 28.6418L78.3515 29.29C77.7757 29.5834 77.1312 29.7256 76.4817 29.7027C74.8646 29.7027 73.7285 28.7106 73.7285 26.5651C73.7285 24.5228 74.7613 23.4619 76.218 23.4619C77.6748 23.4619 78.5907 24.3984 78.5689 26.409L74.6743 26.9566ZM76.1773 24.0995C75.2831 24.0995 74.6172 24.8032 74.6417 26.4328L77.6014 25.9963C77.5987 24.6339 77.0606 24.0995 76.1773 24.0995Z" fill="#73797C"/>
<path d="M82.39 29.7027C81.0311 29.7027 80.0391 28.5202 80.0391 26.5784C80.0391 24.6366 81.0365 23.4646 82.4117 23.4646C82.8999 23.4326 83.3833 23.5756 83.7706 23.8667L83.5287 24.4355C83.2669 24.2389 82.9434 24.1361 82.6128 24.1445C81.4904 24.1445 81.0528 25.1366 81.0528 26.544C81.0528 27.9514 81.5801 28.9778 82.5775 28.9778C82.9151 28.9828 83.2452 28.8807 83.5179 28.6868L83.7706 29.3006C83.3748 29.5914 82.8848 29.7341 82.39 29.7027Z" fill="#73797C"/>
<path d="M88.823 29.5915V25.3269C88.823 24.7026 88.5512 24.1444 87.5619 24.1444C87.139 24.1287 86.7205 24.2335 86.3579 24.446V29.5915H85.3496V20.8296H86.3579V23.8878C86.7936 23.6538 87.2817 23.5275 87.7793 23.5201C89.3502 23.5201 89.8313 24.446 89.8313 25.2952V29.5915H88.823Z" fill="#73797C"/>
<path d="M93.6617 29.6472C92.5392 29.6472 92.1261 28.8535 92.1261 28.1286V24.2001H91.4141V23.5863H92.1261V22.2027L93.1344 21.9011V23.5863H94.2215V24.2001H93.1344V28.1181C93.1344 28.5969 93.3518 28.9884 93.9144 28.9884C94.0155 28.9843 94.1158 28.9692 94.2134 28.9434V29.5678C94.0349 29.622 93.8487 29.6488 93.6617 29.6472Z" fill="#73797C"/>
<path d="M97.0095 29.6789C96.4514 29.7015 95.8994 29.5575 95.4277 29.2662L95.6995 28.618C96.049 28.8638 96.4726 28.9894 96.9035 28.9752C97.0499 28.9853 97.197 28.9661 97.3354 28.9186C97.4739 28.8711 97.6008 28.7964 97.7084 28.6992C97.8159 28.6019 97.9018 28.4842 97.9606 28.3532C98.0195 28.2223 98.05 28.081 98.0504 27.9381C98.0504 27.3138 97.7053 27.0334 97.0312 26.7873C95.8273 26.3535 95.5854 25.7291 95.5854 25.1021C95.5854 24.208 96.3083 23.4514 97.4308 23.4514C97.9443 23.4453 98.4478 23.589 98.8766 23.8641L98.6049 24.4566C98.3061 24.2406 97.9443 24.1229 97.5721 24.1207C97.4383 24.109 97.3035 24.1251 97.1766 24.1679C97.0497 24.2108 96.9336 24.2793 96.8359 24.3691C96.7383 24.4589 96.6614 24.5678 96.6102 24.6887C96.5591 24.8096 96.5349 24.9397 96.5393 25.0704C96.5393 25.6498 96.9742 25.9302 97.5721 26.1524C98.7761 26.5995 99.075 27.2238 99.075 27.917C99.0832 28.8323 98.2706 29.6789 97.0095 29.6789Z" fill="#73797C"/>
<path d="M102.935 29.7027C101.329 29.7027 100.584 29.0229 100.584 27.9276C100.584 26.3403 102.12 25.8615 104.036 25.6737V25.3059C104.036 24.38 103.462 24.1128 102.677 24.1128C102.157 24.1281 101.648 24.2574 101.187 24.4911L100.945 23.9117C101.533 23.6146 102.186 23.4611 102.848 23.4647C103.995 23.4647 105.003 23.9435 105.003 25.417V29.2795C104.36 29.584 103.65 29.7294 102.935 29.7027ZM104.022 26.1763C102.462 26.3668 101.533 26.6895 101.533 27.9065C101.533 28.7768 102.076 29.134 103 29.134C103.351 29.1454 103.7 29.0766 104.019 28.9329L104.022 26.1763Z" fill="#73797C"/>
<path d="M110.432 29.5914V25.258C110.432 24.6998 110.19 24.0861 109.136 24.0861C108.735 24.0672 108.335 24.1397 107.967 24.2977V29.5887H106.959V23.8877C107.67 23.5831 108.442 23.4384 109.217 23.4644C110.938 23.4644 111.443 24.3903 111.443 25.2501V29.5914H110.432Z" fill="#73797C"/>
<path d="M119.235 29.5916H118.363L117.113 25.2953C117.05 25.0648 117.008 24.8293 116.988 24.5916C116.959 24.8299 116.909 25.0653 116.838 25.2953L115.547 29.5916H114.675L112.922 23.5757H113.955L115.042 27.8958C115.102 28.1305 115.143 28.3693 115.167 28.6101H115.189C115.221 28.3689 115.271 28.1302 115.338 27.8958L116.588 23.5757H117.45L118.675 27.9037C118.736 28.1391 118.782 28.3775 118.814 28.618H118.836C118.861 28.3739 118.902 28.1317 118.961 27.8931L120.083 23.5836H120.999L119.235 29.5916Z" fill="#73797C"/>
<path d="M124.337 29.7027C122.731 29.7027 121.986 29.0228 121.986 27.9275C121.986 26.3402 123.522 25.8614 125.438 25.6736V25.3058C125.438 24.3799 124.864 24.1127 124.079 24.1127C123.56 24.128 123.051 24.2573 122.59 24.491L122.342 23.909C122.93 23.6118 123.583 23.4584 124.245 23.4619C125.392 23.4619 126.4 23.9408 126.4 25.4143V29.2767C125.759 29.5813 125.05 29.7276 124.337 29.7027ZM123.465 22.7053C123.369 22.7001 123.277 22.6676 123.2 22.6119C123.123 22.5562 123.065 22.4797 123.032 22.3919C122.999 22.3041 122.994 22.2089 123.017 22.1181C123.039 22.0274 123.088 21.9451 123.159 21.8814C123.229 21.8178 123.317 21.7756 123.411 21.7602C123.506 21.7448 123.603 21.7568 123.691 21.7947C123.778 21.8326 123.853 21.8947 123.904 21.9733C123.956 22.052 123.983 22.1437 123.981 22.237C123.976 22.3652 123.919 22.4863 123.823 22.574C123.727 22.6617 123.599 22.7089 123.468 22.7053H123.465ZM125.438 26.1762C123.878 26.3667 122.948 26.6894 122.948 27.9064C122.948 28.7767 123.492 29.1339 124.416 29.1339C124.767 29.1453 125.116 29.0765 125.435 28.9328L125.438 26.1762ZM125.346 22.7053C125.278 22.7102 125.211 22.7015 125.147 22.6799C125.084 22.6582 125.026 22.624 124.976 22.5795C124.927 22.5349 124.888 22.4809 124.861 22.4208C124.834 22.3608 124.82 22.296 124.82 22.2304C124.82 22.1649 124.834 22.1001 124.861 22.04C124.888 21.98 124.927 21.926 124.976 21.8814C125.026 21.8368 125.084 21.8026 125.147 21.781C125.211 21.7593 125.278 21.7507 125.346 21.7556C125.481 21.7513 125.612 21.7993 125.711 21.889C125.81 21.9787 125.868 22.1029 125.873 22.2344C125.87 22.2989 125.855 22.3623 125.827 22.421C125.799 22.4796 125.76 22.5324 125.711 22.5761C125.662 22.6199 125.605 22.6538 125.543 22.676C125.481 22.6982 125.415 22.7081 125.348 22.7053H125.346Z" fill="#73797C"/>
<path d="M128.434 29.5915V20.8296H129.442V29.5915H128.434Z" fill="#73797C"/>
<path d="M133.375 29.6472C132.252 29.6472 131.839 28.8535 131.839 28.1286V24.2001H131.127V23.5863H131.839V22.2027L132.847 21.9011V23.5863H133.934V24.2001H132.847V28.1181C132.847 28.5969 133.065 28.9884 133.627 28.9884C133.728 28.9843 133.829 28.9692 133.926 28.9434V29.5678C133.748 29.622 133.562 29.6488 133.375 29.6472Z" fill="#73797C"/>
<path d="M136.114 26.9566C136.228 28.3191 136.883 28.9884 137.994 28.9884C138.525 29.0034 139.05 28.884 139.519 28.6418L139.791 29.29C139.215 29.5834 138.571 29.7256 137.921 29.7027C136.304 29.7027 135.168 28.7106 135.168 26.5651C135.168 24.5228 136.201 23.4619 137.657 23.4619C139.114 23.4619 140.03 24.3984 140.008 26.409L136.114 26.9566ZM137.617 24.0995C136.723 24.0995 136.057 24.8032 136.081 26.4328L139.041 25.9963C139.038 24.6339 138.5 24.0995 137.617 24.0995Z" fill="#73797C"/>
<path d="M11.8209 16.1947H9.58955L7.70339 9.52535C7.57786 9.08056 7.50312 8.62366 7.48053 8.16292H7.43976C7.4037 8.62369 7.32178 9.07998 7.19516 9.52535L5.26823 16.1947H3.03147L-0.00976562 5.55709H2.48791L4.0887 12.4354C4.19627 12.8965 4.26445 13.3655 4.29253 13.8375H4.3333C4.38853 13.3643 4.47937 12.8957 4.60508 12.4354L6.53201 5.55709H8.60027L10.4457 12.4354C10.5676 12.8965 10.6584 13.3649 10.7174 13.8375H10.7582C10.802 13.3599 10.8765 12.8854 10.9811 12.4169L12.6634 5.53857H14.854L11.8209 16.1947Z" fill="#003A78"/>
<path d="M17.7998 11.766C18.0036 13.7396 18.9766 14.7264 20.7894 14.7264C21.7443 14.7461 22.6903 14.5429 23.548 14.1338L24.135 15.6523C23.3659 16.0676 22.1891 16.401 20.5258 16.401C17.4247 16.401 15.457 14.4459 15.457 10.8454C15.457 7.37187 17.2617 5.35864 20.1208 5.35864C22.9799 5.35864 24.6025 7.2343 24.4992 10.8057L17.7998 11.766ZM20.0311 6.85071C18.5907 6.85071 17.5851 7.99621 17.6585 10.5544L22.1809 9.88245C22.1809 7.7105 21.39 6.84013 20.0311 6.84013V6.85071Z" fill="#003A78"/>
<path d="M32.6821 16.1946V8.65489C32.6821 7.78717 32.2771 6.87977 30.7144 6.87977C30.1312 6.86012 29.5504 6.96111 29.0103 7.17606V16.1946H26.5371V6.14167C27.5699 5.66812 28.9831 5.37183 30.8149 5.37183C34.0763 5.37183 35.1634 6.91152 35.1634 8.62845V16.2078L32.6821 16.1946Z" fill="#003A78"/>
<path d="M41.3379 20.6549C39.7779 20.6549 38.3972 20.3586 37.6063 19.9063L38.2967 18.319C39.1039 18.7298 40.0003 18.9466 40.9112 18.9512C42.7348 18.9512 43.4252 17.9856 43.4252 16.5703V15.8983C42.7871 16.1927 42.0838 16.3282 41.3787 16.2925C38.7641 16.2925 36.9785 14.319 36.9785 11.102C36.9785 7.64965 38.7424 5.35864 42.2701 5.35864C43.8709 5.35864 45.1292 5.69462 45.8196 6.12848V16.3507C45.8169 19.1946 44.053 20.6549 41.3379 20.6549ZM43.4252 7.01737C43.0268 6.83454 42.5874 6.75264 42.1478 6.77928C40.2209 6.77928 39.43 8.31896 39.43 10.983C39.43 13.5676 40.1991 14.8904 42.0255 14.8904C42.5142 14.8996 42.9969 14.7838 43.4252 14.5544V7.01737Z" fill="#003A78"/>
<path d="M49.9931 11.766C50.197 13.7396 51.17 14.7264 52.9827 14.7264C53.9377 14.7461 54.8836 14.5429 55.7413 14.1338L56.3284 15.6523C55.5592 16.0676 54.3824 16.401 52.7191 16.401C49.6181 16.401 47.6504 14.4459 47.6504 10.8454C47.6504 7.37187 49.455 5.35864 52.3142 5.35864C55.1733 5.35864 56.7958 7.2343 56.6926 10.8057L49.9931 11.766ZM52.2218 6.84013C50.7813 6.84013 49.7757 7.98563 49.8491 10.5438L54.3716 9.87187C54.3716 7.71049 53.5807 6.84013 52.2218 6.84013Z" fill="#003A78"/>
<path d="M63.3126 7.13642C62.481 6.87187 61.5678 6.89832 61.0025 7.21578V16.1946H58.5293V6.14171C59.6653 5.61261 61.0433 5.31367 63.8019 5.39304L63.3126 7.13642Z" fill="#003A78"/>
<path d="M86.2631 16.1947H83.9122L80.3438 5.55713H82.98L84.907 12.4354C85.0459 12.9125 85.1369 13.4016 85.1787 13.8958H85.2195C85.2697 13.4027 85.3606 12.9143 85.4913 12.4354L87.459 5.55713H89.7691L86.2631 16.1947Z" fill="#003A78"/>
<path d="M92.3831 3.72382C92.1452 3.70022 91.9195 3.60985 91.7334 3.46369C91.5472 3.31752 91.4088 3.12187 91.3348 2.90052C91.2608 2.67917 91.2545 2.44166 91.3166 2.21689C91.3788 1.99211 91.5067 1.78975 91.6848 1.63442C91.8629 1.47909 92.0835 1.37748 92.3198 1.34196C92.5561 1.30643 92.798 1.33851 93.0159 1.4343C93.2339 1.53009 93.4185 1.68546 93.5474 1.88152C93.6763 2.07757 93.7439 2.30587 93.742 2.53863C93.7337 2.70362 93.6918 2.86537 93.6188 3.0145C93.5458 3.16363 93.4432 3.29718 93.3168 3.40741C93.1904 3.51764 93.0428 3.60237 92.8825 3.65668C92.7222 3.71099 92.5525 3.73381 92.3831 3.72382ZM91.1465 16.1974V5.55715H93.6197V16.1947L91.1465 16.1974Z" fill="#003A78"/>
<path d="M97.8826 11.766C98.0864 13.7396 99.0594 14.7264 100.872 14.7264C101.826 14.7463 102.771 14.5431 103.628 14.1338L104.215 15.6523C103.446 16.0676 102.269 16.401 100.606 16.401C97.5048 16.401 95.5371 14.4459 95.5371 10.8454C95.5371 7.37187 97.3417 5.35864 100.201 5.35864C103.101 5.35864 104.683 7.2343 104.582 10.8057L97.8826 11.766ZM100.114 6.85071C98.6735 6.85071 97.6679 7.99621 97.7413 10.5544L102.261 9.88245C102.258 7.7105 101.467 6.84013 100.111 6.84013L100.114 6.85071Z" fill="#003A78"/>
<path d="M106.514 16.1947V0.702637H108.987V16.1947H106.514Z" fill="#003A78"/>
<path d="M112.637 3.72382C112.399 3.70022 112.173 3.60985 111.987 3.46369C111.801 3.31752 111.663 3.12187 111.589 2.90052C111.515 2.67917 111.508 2.44166 111.571 2.21689C111.633 1.99211 111.761 1.78975 111.939 1.63442C112.117 1.47909 112.337 1.37748 112.574 1.34196C112.81 1.30643 113.052 1.33851 113.27 1.4343C113.488 1.53009 113.672 1.68546 113.801 1.88152C113.93 2.07757 113.998 2.30587 113.996 2.53863C113.988 2.70362 113.946 2.86537 113.873 3.0145C113.8 3.16363 113.697 3.29718 113.571 3.40741C113.444 3.51764 113.297 3.60237 113.136 3.65668C112.976 3.71099 112.806 3.73381 112.637 3.72382ZM111.4 16.1974V5.55715H113.874V16.1947L111.4 16.1974Z" fill="#003A78"/>
<path d="M75.3924 10.2265V15.7106C74.7048 16.0863 73.5823 16.3482 71.8592 16.3482C69.0898 16.3482 67.4102 15.2582 67.4102 13.2C67.4102 11.5651 68.5951 10.6603 69.8562 10.2397V10.1921C68.7364 9.75556 68.095 8.99101 68.095 7.93281C68.095 6.39048 69.4241 5.31641 71.4896 5.31641C72.6583 5.31641 73.6638 5.59683 74.2074 5.94075L73.4845 7.34286C72.9994 7.11569 72.4682 6.99727 71.9299 6.9963C70.9053 6.9963 70.3943 7.45398 70.3943 8.18149C70.3943 8.97514 71.1444 9.43017 72.1337 9.43017C73.4654 9.43017 74.9874 8.87196 76.3817 8.20265L77.1019 9.63652C76.5524 9.88507 75.98 10.0826 75.3924 10.2265ZM73.1665 10.663C70.8156 11.0995 69.8209 11.7053 69.8209 13.0439C69.8209 14.1815 70.4487 14.8191 71.9136 14.8191C72.3355 14.822 72.7562 14.7749 73.1665 14.6788V10.663Z" fill="#73797C"/>
</g>
<defs>
<clipPath id="clip0">
<rect y="0.702637" width="140" height="29" fill="white"/>
</clipPath>
</defs>
</svg>
