<svg width="69" height="69" viewBox="0 0 69 69" fill="none" xmlns="http://www.w3.org/2000/svg">
<path d="M43.3395 68.4608C40.748 68.4608 39.0549 67.1541 39.0549 64.032C39.0549 61.387 40.5031 59.3417 43.6906 59.3417C44.3766 59.3417 45.2457 59.4804 45.8254 59.7116L45.3375 61.5565C44.8196 61.3725 44.316 61.2332 43.7512 61.2332C42.1206 61.2332 41.449 62.31 41.449 63.9243C41.449 65.4932 42.0588 66.5391 43.66 66.5391C44.4072 66.5391 44.9258 66.3545 45.4287 66.1548L45.688 67.9688C45.2457 68.2454 44.316 68.4608 43.3395 68.4608ZM22.4208 58.3891C23.213 58.3891 23.8534 57.7735 23.8534 56.9897C23.8534 56.221 23.213 55.6363 22.4208 55.6363C21.6892 55.6363 21.0332 56.221 21.0332 56.9897C21.0332 57.7735 21.6892 58.3891 22.4208 58.3891ZM21.185 68.3071H23.4267V59.4961C22.3746 59.3884 21.185 59.6807 21.185 61.3416V68.3071ZM50.5517 61.249C49.5465 61.249 48.585 62.0026 48.585 63.94C48.585 65.6167 49.2097 66.5542 50.5217 66.5542C51.6344 66.5542 52.4891 65.6469 52.4891 63.8638C52.4891 62.1563 51.8787 61.249 50.5517 61.249ZM50.4612 68.4917C47.9752 68.4917 46.2372 67.1238 46.2372 64.0478C46.2372 61.295 48.0664 59.3115 50.7198 59.3115C53.1901 59.3115 54.7907 60.7109 54.7907 63.7094C54.7907 66.5851 53.0533 68.4917 50.4612 68.4917ZM5.63296 61.387C5.14502 61.203 4.39781 61.0184 3.78805 61.0184C3.08644 61.0184 2.55291 61.203 2.55291 61.8488C2.55291 63.3711 6.42578 62.4336 6.42578 65.5701C6.42578 67.6922 4.71769 68.5068 2.79656 68.5068C1.91255 68.5068 1.02852 68.3689 0.220071 68.1225L0.356869 66.2619C0.356869 66.2619 1.63763 66.6929 2.70535 66.6929C3.45191 66.6929 4.06233 66.4623 4.06233 65.8007C4.06233 64.1706 0.173828 65.2166 0.173828 62.0945C0.173828 60.1419 1.80571 59.3417 3.60501 59.3417C4.67209 59.3417 5.52613 59.5421 6.04403 59.7267L5.63296 61.387ZM20.1636 59.4961C19.6763 62.1103 18.4255 66.231 17.6327 68.3071H15.2536L13.5767 62.4335H13.5461L11.8693 68.3071H9.50583C8.74298 66.2619 7.37104 62.0026 6.97496 59.4961H9.21593L10.6954 65.5549H10.7253L12.494 59.4961H14.7357L16.4588 65.5089H16.4894L17.9831 59.4961H20.1636ZM66.1357 59.3115C67.8282 59.3115 68.819 60.2339 68.819 62.2483V68.3071H66.5624V62.7102C66.5624 61.8028 66.3024 61.203 65.3422 61.203C64.382 61.203 63.5429 62.0486 63.5429 63.5708V68.3071H61.3325V62.7102C61.3325 61.8639 61.0583 61.203 60.0967 61.203C59.0909 61.203 58.3131 62.1412 58.3131 63.6635V68.3071H56.0265V59.4961C57.5203 59.3115 58.0844 59.9265 58.1457 60.9106C58.6942 59.9265 59.6401 59.3115 60.8752 59.3115C62.4452 59.3115 63.07 60.1879 63.2986 61.0184C63.6797 60.1419 64.6562 59.3115 66.1357 59.3115ZM30.2115 61.387C29.7092 61.203 28.9764 61.0184 28.3672 61.0184C27.665 61.0184 27.1021 61.203 27.1021 61.8488C27.1021 63.3711 31.005 62.4336 31.005 65.5701C31.005 67.6922 29.2825 68.5068 27.3764 68.5068C26.4911 68.5068 25.6071 68.3689 24.7686 68.1225L24.9367 66.2619C24.9367 66.2619 26.2168 66.6929 27.2845 66.6929C28.0018 66.6929 28.6265 66.4623 28.6265 65.8007C28.6265 64.1706 24.7224 65.2166 24.7224 62.0945C24.7224 60.1419 26.3692 59.3417 28.1536 59.3417C29.2206 59.3417 30.1053 59.5421 30.6239 59.7267L30.2115 61.387ZM37.3169 61.387C36.8296 61.203 36.0824 61.0184 35.472 61.0184C34.771 61.0184 34.2218 61.203 34.2218 61.8488C34.2218 63.3711 38.1103 62.4336 38.1103 65.5701C38.1103 67.6922 36.4029 68.5068 34.4818 68.5068C33.5971 68.5068 32.7124 68.3689 31.9046 68.1225L32.0571 66.2619C32.0571 66.2619 33.3222 66.6929 34.3899 66.6929C35.1371 66.6929 35.7469 66.4623 35.7469 65.8007C35.7469 64.1706 31.8584 65.2166 31.8584 62.0945C31.8584 60.1419 33.4902 59.3417 35.2896 59.3417C36.3566 59.3417 37.2257 59.5421 37.7292 59.7267L37.3169 61.387Z" fill="#152168"/>
<path d="M27.2391 28.9861C17.6532 37.2898 23.8937 43.3763 32.3464 46.9169L32.3946 37.4412C28.2619 36.5865 30.6739 31.063 27.2389 28.9858L27.2391 28.9861Z" fill="url(#paint0_linear)" stroke="#999999" stroke-width="0.25"/>
<path d="M27.6109 5.24146C27.415 5.25478 23.376 8.27273 21.6083 9.72346C16.0717 14.2667 14.332 17.7224 15.6056 21.6528C16.2532 23.6515 17.3801 25.0096 21.0093 28.1735C23.7382 30.5525 25.1878 32.0127 26.3246 33.5548C26.4499 33.7247 26.5664 33.8962 26.6853 34.0696C26.7199 34.1205 26.7511 34.1596 26.7874 34.2137C26.7892 34.2164 26.7925 34.2179 26.7942 34.2206C26.8252 34.2666 26.8529 34.3059 26.8827 34.351C27.072 34.6372 27.2444 34.9153 27.3999 35.1883C27.5714 35.4893 27.7275 35.7919 27.8695 36.1081C27.8766 36.1239 27.8829 36.1402 27.8899 36.1561C27.9393 36.2674 27.9861 36.3764 28.0329 36.4925C28.0738 36.5947 28.1153 36.6993 28.1554 36.8082C28.1605 36.822 28.1639 36.8355 28.169 36.8494C28.2101 36.9621 28.2506 37.0781 28.2915 37.1994C28.2946 37.2086 28.2952 37.2177 28.2983 37.2269C28.341 37.3545 28.3845 37.4862 28.4276 37.625C28.4283 37.6272 28.4269 37.6297 28.4276 37.6318C28.6814 38.4653 28.9266 39.4736 29.2103 40.8098C29.2546 40.8802 29.2711 40.9091 29.3124 40.9746C29.3354 41.0698 29.3567 41.1435 29.3804 41.2423C30.0186 43.9021 30.6802 45.4989 31.5175 46.397C31.5855 46.47 31.8043 46.6148 32.0075 46.7196C32.2106 46.8245 32.4163 46.8996 32.4635 46.8844C32.5717 46.8495 32.5966 37.7585 32.4898 37.4752C31.8276 37.4153 31.1318 37.0277 30.6531 36.5062C30.3627 36.1821 30.1078 35.6997 29.8909 35.0854C29.8853 35.0696 29.876 35.0533 29.8705 35.0374C29.8584 34.9992 29.8486 34.954 29.8364 34.9138C29.6925 34.4371 29.5431 33.8233 29.3736 32.9782C28.8364 30.2993 28.4641 29.7482 25.9979 27.9814C24.2424 26.7237 23.4596 25.9696 23.0578 25.1467C22.7816 24.5807 22.7652 24.491 22.7652 23.6778C22.7652 22.956 22.7983 22.7339 22.9625 22.3737C23.3723 21.475 24.011 21.0255 26.0525 20.2048C28.2386 19.3258 28.5984 18.9217 29.5915 16.2374C30.5054 14.2406 30.9538 14.0973 32.5769 13.3394C32.5936 13.3426 29.2709 7.87322 27.6112 5.24148L27.6109 5.24146Z" fill="url(#paint1_linear)" stroke="#4D4D4D" stroke-width="0.25"/>
<path d="M32.4404 46.9944C37.1861 39.9615 42.1105 38.5141 46.5784 22.7878L29.0703 7.20312L32.6871 13.5033L32.4404 46.9944Z" fill="url(#paint2_linear)" stroke="black" stroke-width="0.1"/>
<path d="M35.2693 4.91195C34.2949 4.96596 33.3315 5.00691 32.4855 5.43346C32.475 5.41214 32.4939 5.39054 32.5038 10.7424L46.531 22.806C46.531 22.806 46.8448 22.3035 47.0094 21.1379C47.2502 19.4322 47.302 18.1281 47.1863 16.8755C46.9432 14.2431 46.236 12.1541 44.9335 10.2246C44.325 9.323 42.6823 7.69122 41.7552 7.06722C40.3533 6.12368 38.6097 5.38556 37.0183 5.06299C36.4959 4.95712 35.8785 4.90909 35.2692 4.91199L35.2693 4.91195Z" fill="url(#paint3_linear)" stroke="#999999" stroke-width="0.5"/>
<path d="M32.4038 52.2856C32.4375 52.2694 32.6792 13.3849 32.5893 13.341L28.5515 6.73877C28.4426 7.4336 40.8612 17.7351 46.5928 22.8563L47.5937 23.8543C50.0457 26.2994 51.614 28.2533 52.6426 30.401C53.5695 32.336 53.8589 33.7154 53.7777 35.811C53.6935 37.9818 53.0835 40.0535 51.9552 41.9998C50.904 43.8132 48.8681 45.9597 46.8929 47.3373C43.4948 49.7072 38.8762 51.4681 34.2149 52.1705C33.025 52.3498 32.4991 52.3833 32.4024 52.2858L32.4038 52.2856Z" fill="url(#paint4_linear)"/>
<path d="M27.5843 5.0342C27.5838 4.95973 27.5258 4.70759 27.4555 4.4739C27.1788 3.55402 27.3748 2.49271 27.9656 1.71147C28.2646 1.31609 29.0668 0.769381 29.6966 0.531751C30.9368 0.0638047 32.3471 -0.150434 32.4309 0.116409C32.4309 0.116409 32.4651 10.8138 32.5216 10.8004C32.5682 10.965 27.8812 6.76847 27.5841 5.03418L27.5843 5.0342Z" fill="url(#paint5_linear)"/>
<path d="M32.4955 37.4818L32.6118 13.2883C31.6322 13.7653 30.6417 13.7182 29.4707 16.568C28.5594 18.9951 28.1591 19.4029 25.7097 20.3371C21.4881 21.5833 21.573 25.241 26.0439 28.0307C28.553 29.6815 29.0126 30.7177 29.4878 33.57C29.9364 35.5531 30.455 37.1038 32.4956 37.4827L32.4955 37.4818Z" fill="white"/>
<defs>
<linearGradient id="paint0_linear" x1="31.2573" y1="43.3726" x2="25.0364" y2="35.9544" gradientUnits="userSpaceOnUse">
<stop stop-color="#0019CE"/>
<stop offset="1" stop-color="#00A4CE" stop-opacity="0.498039"/>
</linearGradient>
<linearGradient id="paint1_linear" x1="46.4451" y1="35.5137" x2="26.1404" y2="12.971" gradientUnits="userSpaceOnUse">
<stop stop-color="#040D1A"/>
<stop offset="1" stop-color="#FD110D" stop-opacity="0.994444"/>
</linearGradient>
<linearGradient id="paint2_linear" x1="31.6149" y1="30.1458" x2="40.1068" y2="26.332" gradientUnits="userSpaceOnUse">
<stop/>
<stop offset="1" stop-opacity="0"/>
</linearGradient>
<linearGradient id="paint3_linear" x1="70.2938" y1="26.6248" x2="38.9296" y2="11.9091" gradientUnits="userSpaceOnUse">
<stop stop-color="#040D1A"/>
<stop offset="1" stop-color="#FD110D" stop-opacity="0.994444"/>
</linearGradient>
<linearGradient id="paint4_linear" x1="34.7994" y1="33.6644" x2="40.1852" y2="26.0176" gradientUnits="userSpaceOnUse">
<stop stop-color="#0019CE"/>
<stop offset="1" stop-color="#00A4CE" stop-opacity="0.498039"/>
</linearGradient>
<linearGradient id="paint5_linear" x1="30.936" y1="9.15423" x2="30.0678" y2="-0.340483" gradientUnits="userSpaceOnUse">
<stop stop-color="#0B4AD0"/>
<stop offset="1" stop-color="#0BB7D0" stop-opacity="0"/>
</linearGradient>
</defs>
</svg>
