<svg width="130" height="29" viewBox="0 0 130 29" fill="none" xmlns="http://www.w3.org/2000/svg">
<path d="M45.8888 16.8298L45.1139 19.0437H45.0494C44.9202 18.5445 44.6835 17.7848 44.2961 16.8732L40.1421 6.34605H36.0742V23.1243H38.7646V12.7709C38.7646 12.1197 38.7646 11.3817 38.7431 10.4701C38.7216 10.0143 38.6785 9.66698 38.657 9.40651H38.7216C38.8507 10.0577 39.0014 10.5352 39.109 10.8391L44.1024 23.0809H45.9964L50.9467 10.7305C51.0543 10.4484 51.162 9.88403 51.2696 9.40651H51.3341C51.2696 10.6437 51.2265 11.7507 51.205 12.4236V23.0592H54.0676V6.30264H50.1504L45.8888 16.8298ZM56.7795 11.0344H59.5775V23.0592H56.7795V11.0344ZM58.2 5.95535C57.7265 5.95535 57.3391 6.129 57.0163 6.43287C56.6934 6.73675 56.5212 7.12744 56.5212 7.60496C56.5212 8.06078 56.6934 8.45148 57.0163 8.75535C57.3391 9.05923 57.7265 9.21117 58.2 9.21117C58.6735 9.21117 59.0825 9.03752 59.3838 8.75535C59.7067 8.45148 59.8788 8.06078 59.8788 7.60496C59.8788 7.14915 59.7067 6.75845 59.3838 6.43287C59.104 6.129 58.6951 5.95535 58.2 5.95535ZM69.4997 10.9259C68.9831 10.8174 68.4451 10.7523 67.9285 10.7523C66.6586 10.7523 65.4964 11.0344 64.5278 11.5988C63.5593 12.1631 62.7845 12.9445 62.2894 13.9212C61.7729 14.9197 61.5146 16.0701 61.5146 17.3941C61.5146 18.5445 61.7729 19.5647 62.2679 20.498C62.7629 21.4096 63.4517 22.1476 64.3772 22.6468C65.2596 23.146 66.2927 23.4065 67.455 23.4065C68.7894 23.4065 69.9302 23.1243 70.8341 22.6034L70.8557 22.5817V19.9771L70.748 20.0639C70.3391 20.3678 69.8656 20.6282 69.3921 20.7802C68.897 20.9538 68.4451 21.0406 68.0577 21.0406C66.9384 21.0406 66.056 20.715 65.4318 19.9988C64.7861 19.3042 64.4633 18.3492 64.4633 17.1554C64.4633 15.9181 64.7861 14.9414 65.4533 14.2251C66.1206 13.5088 67.003 13.1398 68.0792 13.1398C68.9831 13.1398 69.9086 13.4437 70.748 14.0515L70.8557 14.1383V11.3817L70.8341 11.36C70.4682 11.2081 70.0593 11.0344 69.4997 10.9259ZM78.7331 10.8391C78.0444 10.8391 77.3987 11.0561 76.8391 11.5119C76.3656 11.9026 76.0427 12.467 75.7629 13.1398H75.7414V11.0344H72.9434V23.0592H75.7414V16.9166C75.7414 15.8747 75.9567 15.0065 76.4302 14.3771C76.9037 13.7259 77.5063 13.4003 78.2381 13.4003C78.4964 13.4003 78.7547 13.4654 79.0775 13.5088C79.3788 13.5957 79.5941 13.6825 79.7447 13.791L79.8523 13.8778V11.0561L79.7878 11.0344C79.5941 10.9042 79.2066 10.8391 78.7331 10.8391ZM86.3523 10.774C84.3937 10.774 82.8225 11.36 81.7249 12.5104C80.6057 13.6608 80.0676 15.2453 80.0676 17.2422C80.0676 19.1088 80.6272 20.6282 81.7033 21.7352C82.7795 22.8205 84.2431 23.3848 86.0725 23.3848C87.9881 23.3848 89.5163 22.7988 90.6139 21.6267C91.7331 20.4546 92.2712 18.8918 92.2712 16.96C92.2712 15.0499 91.7547 13.5305 90.7 12.4236C89.6884 11.3166 88.2033 10.774 86.3523 10.774ZM88.5908 20.0205C88.0742 20.6933 87.2563 21.0189 86.2447 21.0189C85.2331 21.0189 84.4153 20.6933 83.8341 19.9771C83.253 19.3042 82.9732 18.3274 82.9732 17.0902C82.9732 15.8096 83.2745 14.8329 83.8341 14.1383C84.4153 13.4437 85.2116 13.0964 86.2232 13.0964C87.2133 13.0964 87.9881 13.422 88.5477 14.0949C89.1073 14.7678 89.4086 15.7445 89.4086 17.0251C89.3656 18.3274 89.1288 19.3476 88.5908 20.0205ZM98.5129 16.0267C97.6305 15.6577 97.0709 15.3755 96.8126 15.1367C96.5974 14.9197 96.4898 14.6158 96.4898 14.2251C96.4898 13.8995 96.6189 13.574 96.9417 13.3569C97.2646 13.1398 97.6305 13.0313 98.1686 13.0313C98.6421 13.0313 99.1371 13.1181 99.6106 13.2484C100.084 13.3786 100.515 13.574 100.859 13.8344L100.967 13.9212V11.2732L100.902 11.2515C100.579 11.1212 100.149 10.991 99.6321 10.8825C99.1156 10.7957 98.6421 10.7523 98.2547 10.7523C96.9202 10.7523 95.8225 11.0778 94.9616 11.7941C94.1007 12.467 93.6917 13.3786 93.6917 14.4422C93.6917 15.0065 93.7778 15.5057 93.9715 15.9181C94.1653 16.3305 94.4451 16.7212 94.8325 17.0468C95.2199 17.3507 95.7795 17.698 96.5543 18.0236C97.2 18.3057 97.695 18.5228 97.9964 18.6964C98.2977 18.8701 98.4914 19.0654 98.6421 19.2174C98.7497 19.391 98.8143 19.6081 98.8143 19.8902C98.8143 20.6933 98.2116 21.084 96.9848 21.084C96.5113 21.084 96.0162 20.9972 95.4351 20.8019C94.854 20.6065 94.3159 20.3243 93.8639 19.9988L93.7563 19.9119V22.6685L93.8209 22.6902C94.2298 22.8856 94.7249 23.0158 95.3275 23.1678C95.9302 23.2763 96.4682 23.3631 96.9417 23.3631C98.3838 23.3631 99.5676 23.0375 100.407 22.3212C101.268 21.6267 101.72 20.7367 101.72 19.5864C101.72 18.7833 101.505 18.067 101.031 17.5243C100.407 17.0034 99.6321 16.4608 98.5129 16.0267ZM109.102 10.774C107.144 10.774 105.573 11.36 104.475 12.5104C103.377 13.6608 102.818 15.2453 102.818 17.2422C102.818 19.1088 103.377 20.6282 104.453 21.7352C105.529 22.8205 106.993 23.3848 108.823 23.3848C110.738 23.3848 112.266 22.7988 113.364 21.6267C114.483 20.4546 115.021 18.8918 115.021 16.96C115.021 15.0499 114.505 13.5305 113.45 12.4236C112.438 11.3166 110.953 10.774 109.102 10.774ZM111.319 20.0205C110.803 20.6933 109.985 21.0189 108.973 21.0189C107.94 21.0189 107.144 20.6933 106.563 19.9771C105.981 19.3042 105.702 18.3274 105.702 17.0902C105.702 15.8096 106.003 14.8329 106.563 14.1383C107.144 13.4437 107.94 13.0964 108.952 13.0964C109.92 13.0964 110.717 13.422 111.276 14.0949C111.836 14.7678 112.137 15.7445 112.137 17.0251C112.137 18.3274 111.857 19.3476 111.319 20.0205ZM129.98 13.3569V11.0344H127.16V7.47473L127.074 7.49644L124.405 8.29954L124.341 8.32124V11.0344H120.122V9.51504C120.122 8.82047 120.294 8.27783 120.596 7.93055C120.897 7.58326 121.349 7.40962 121.909 7.40962C122.296 7.40962 122.705 7.49644 123.157 7.69179L123.265 7.7569V5.30419L123.2 5.28248C122.813 5.15225 122.296 5.06543 121.629 5.06543C120.789 5.06543 120.058 5.26078 119.39 5.58636C118.723 5.95535 118.228 6.45458 117.862 7.12744C117.496 7.77861 117.303 8.51659 117.303 9.3631V11.0344H115.344V13.3352H117.303V23.0592H120.122V13.3569H124.341V19.5429C124.341 22.0825 125.525 23.3631 127.892 23.3631C128.279 23.3631 128.688 23.298 129.076 23.2329C129.485 23.146 129.786 23.0375 129.958 22.9507L129.98 22.929V20.6065L129.872 20.6933C129.7 20.8019 129.549 20.8887 129.291 20.9538C129.076 21.0189 128.882 21.0406 128.731 21.0406C128.172 21.0406 127.784 20.9104 127.505 20.5848C127.246 20.2809 127.117 19.7817 127.117 19.0437V13.3569H129.98Z" fill="#737373"/>
<path d="M0 0.702637H13.1937V14.0081H0V0.702637Z" fill="#F25022"/>
<path d="M14.5703 0.702637H27.764V14.0081H14.5703V0.702637Z" fill="#7FBA00"/>
<path d="M0 15.3972H13.1937V28.7026H0V15.3972Z" fill="#00A4EF"/>
<path d="M14.5703 15.3972H27.764V28.7026H14.5703V15.3972Z" fill="#FFB900"/>
</svg>
