<svg width="117" height="15" viewBox="0 0 117 15" fill="none" xmlns="http://www.w3.org/2000/svg">
<path fill-rule="evenodd" clip-rule="evenodd" d="M109.076 14.6391C105.196 14.6391 102.023 11.4652 102.023 7.58591C102.023 3.70665 105.196 0.532714 109.076 0.532715C112.955 0.532715 116.129 3.70665 116.129 7.58591C116.129 11.4652 112.955 14.6391 109.076 14.6391ZM109.076 3.79482C106.96 3.79482 105.285 5.46995 105.285 7.58591C105.285 9.70187 106.96 11.377 109.076 11.377C111.192 11.377 112.867 9.70187 112.867 7.58591C112.867 5.46995 111.192 3.79482 109.076 3.79482ZM87.8279 10.4954L87.8279 14.1983L84.5658 14.1983L84.5658 0.973538L87.8279 0.973539L87.8279 5.99894L92.7652 0.973539L97.2617 0.973539L91.4427 6.79243L97.2617 14.1983L93.1178 14.1983L89.1503 8.99655L87.8279 10.4954ZM70.7239 14.6391C66.8447 14.6391 63.6707 11.4652 63.6707 7.58591C63.6707 3.70665 66.8447 0.532713 70.7239 0.532713C74.6032 0.532713 77.7771 3.70665 77.7771 7.58591C77.8653 11.4652 74.6914 14.6391 70.7239 14.6391ZM70.7239 3.79482C68.608 3.79482 66.9328 5.46995 66.9328 7.58591C66.9328 9.70187 68.608 11.377 70.7239 11.377C72.8399 11.377 74.5151 9.70187 74.5151 7.58591C74.6032 5.46995 72.8399 3.79482 70.7239 3.79482ZM40.5715 14.1983L40.5715 0.973536L43.6573 0.973537L48.7709 10.0545L53.8843 0.973537L56.9701 0.973537L56.9701 14.1983L53.708 14.1983L53.708 7.67407L50.0052 14.1983L47.4485 14.1983L43.7454 7.67407L43.7454 14.1983L40.5715 14.1983ZM26.7297 14.6391C22.8504 14.6391 19.6765 11.4652 19.6765 7.58591C19.6765 3.70665 22.8504 0.532711 26.7297 0.532711C30.6089 0.532711 33.7829 3.70665 33.7829 7.58591C33.7829 11.4652 30.6089 14.6391 26.7297 14.6391ZM26.7297 3.79482C24.6137 3.79482 22.9386 5.46995 22.9386 7.58591C22.9386 9.70187 24.6137 11.377 26.7297 11.377C28.8456 11.377 30.5206 9.70187 30.5206 7.58591C30.5206 5.46995 28.8456 3.79482 26.7297 3.79482ZM9.71381 0.973535L12.9759 0.973535L12.9759 14.1983L10.3309 14.1983L3.89483 6.52793L3.89483 14.1983L0.632766 14.1983L0.632767 0.973535L3.27772 0.973535L9.71381 8.64389L9.71381 0.973535Z" fill="black"/>
</svg>
