<svg width="84" height="22" viewBox="0 0 84 22" fill="none" xmlns="http://www.w3.org/2000/svg">
<path fill-rule="evenodd" clip-rule="evenodd" d="M66.9791 21.4703C64.4758 21.4685 62.8335 20.8577 61.9583 19.6024C61.1297 18.4138 61.071 16.7487 61.7797 14.5112L66.1543 0.702637L72.2822 0.706049L67.9572 14.3818C67.7654 14.9863 67.7085 15.2843 67.8499 15.5617L67.8682 15.5966L67.8924 15.6268C68.0663 15.8418 68.3711 15.9825 70.922 15.9825C71.1963 15.9825 81.5819 15.9875 83.9906 15.9885L82.2527 21.4735L66.9791 21.4703Z" fill="#FAEB00"/>
<path fill-rule="evenodd" clip-rule="evenodd" d="M41.3259 21.4584C38.5572 21.4563 36.1076 20.286 34.6054 18.248C33.1281 16.2428 32.7076 13.6327 33.4213 10.899C35.1841 4.15069 39.3476 0.729004 45.7964 0.729004C45.871 0.729004 60.7471 0.743441 63.6702 0.746329L61.9436 6.19583C59.8699 6.19478 46.078 6.18664 45.9895 6.18664C42.6874 6.18664 40.5522 7.86008 39.462 11.3028C39.0002 12.7596 39.0688 14.0288 39.6553 14.8764C40.2603 15.7498 41.2789 15.9398 42.027 15.9451C42.111 15.9459 44.187 15.9514 57.1445 15.981L58.8422 15.985L57.105 21.4686L41.3259 21.4584Z" fill="#FAEB00"/>
<path fill-rule="evenodd" clip-rule="evenodd" d="M0 21.4425L1.72655 15.9932C3.89082 15.9943 18.8567 16.0021 18.9458 16.0021C22.2476 16.0021 24.3825 14.329 25.4733 10.8865C25.918 9.48217 25.8323 8.18725 25.2372 7.33387C24.5968 6.4159 23.5506 6.2227 22.786 6.22218C22.6906 6.22218 15.7697 6.21142 15.7697 6.21142L4.80622 6.22323L6.56617 0.720703L23.6093 0.730678C26.3785 0.732778 28.8277 1.903 30.3296 3.94105C31.8072 5.94603 32.2277 8.5558 31.5139 11.29C29.7512 18.0381 25.5876 21.4598 19.1388 21.4598C19.064 21.4598 3.04095 21.4453 0 21.4425Z" fill="#FAEB00"/>
</svg>
