<?xml version="1.0" encoding="utf-8"?>
<!-- Generator: Adobe Illustrator 23.0.1, SVG Export Plug-In . SVG Version: 6.00 Build 0)  -->
<svg version="1.1" id="Слой_1" xmlns="http://www.w3.org/2000/svg" xmlns:xlink="http://www.w3.org/1999/xlink" x="0px" y="0px"
	 viewBox="0 0 1000 643" style="enable-background:new 0 0 1000 643;" xml:space="preserve">
<style type="text/css">
	.st0{fill:#EBEBEB;stroke:#FFFFFF;stroke-width:2;stroke-linecap:round;stroke-linejoin:round;}
</style>
<path id="CHE159" class="st0" d="M50.2,488.8L50,489l-3.6,10l-1.5,12.1l-1.6,1.5l-1.3,2l-0.9,2.2l-0.6,2.7l11-10.9l9.1-17.9l0.7,2
	l0.1,1.3l2.1,5.3l1,1.4l2.3,1.2l3.7-1.7l1.6,0.6l1.1,7.4l-5.7,6.1l-14.2,9.4L42,537l-7.1,3.7l-7.6-3.4l-10,0.4l-10.1,2.4l-5.3,3.2
	l2.9-7l1.7-3.2l0.7-2.7l-3.9-4.9L1,521.1l0.8-3.9l5.4-3.4l13.3-6.5l1.1-0.2l1.8,0.6l1.3,0.2l1.3-0.2l4.8-1.5l1-2.1l-0.2-3l0.1-3.5
	l1.6-9l0.7-2.5l3.2-7.3L49.5,489L50.2,488.8L50.2,488.8z"/>
<path id="CHE160" class="st0" d="M306.7,122.3l0.6,1l0.6,0.5l9.3,4.7l6,4.8l1.5,2.5l0.3,2.6l1.5,1.1h2.4l10.7,2.8l4.3,0.4l1.6-0.1
	l1.8,0.7l1.9,1.3l2.1,3.5l3.5,3l-3.6,3.4l-0.5,2.1l0.2,1.1l0.8,0.5l4.1,0.5l-0.6,0.8l-13.2,3.8l-24.2-2l-2.1-0.9l-1.3-2.8l-0.6-0.2
	l-0.5,0.6l-0.4,1.4l-0.9,1.1l-1.2,1.2l-1.8,0.8l-3.7,3.1l-2.5,1.6l-5.7,2l-3.4,0.7l-4.2,0.3l-18.6-3.8l-0.6,3.3l0.4,1.5l-0.4,1.2
	l-0.9,1l-2.2,1.6l-0.4,1l-0.1,1.8l0.4,2.3l0.5,1.4l-1.2,1.1l-10.9,2.1l-6.9-0.7l-1.4,0.3l-0.9,0.9l-0.4,1.8l-0.6,1.3l-1.6,2.4
	l-1,2.2l-1.6,2.1l-2.4,2.4l-3.5,1.8l-2,1.6l-2.4,2.4l-2.3,0.5l-5.1-0.2l-2.5,1.4l-8,6.2l-2.4,1.4l-1.7,0.5l-1-0.5l-0.7-0.9l-2.1-1.7
	l-6-0.4l-2.6-1l0.5-0.5l4.2-7l6.4-6.6l15-11.1l-0.9-8.1l1.4-6.7l4.2-4.3l2-0.2l1.2-0.5l3.2-4.4l2.3-1.3l2.3-0.6l2.1-1.4l1.7-3.6
	l-2.3-3.3l-3.3-3l-3.3-2.7l-4.1,2l-26.3,2.6l1.1-4.2l2.7-5.1l3.3-4.3l5.7-3.4l0.3-6.2l5.8-1.3l3.6-2l3.3-2.9l1.7-2.7l-1.1-3.9
	l-2.3-4.6l-0.5-3.6l4.1-1.3l2-1.5l2-0.5l2,0.5l2,1.5l5.7,0.9l11-2l5.3,1.1l2.8,1.7l3,0.5l6-0.6l-4,9.3l1.2,5.3l4.8,2.9l6.5,2.1
	l0.9,0.7l0.7,1.2l0.8,1.1l1.8,0.8l1.4-0.3l8.4-3.7l5.9-1.2L306.7,122.3L306.7,122.3z"/>
<path id="CHE161" class="st0" d="M199,209.5l4.5,2.5l2.5,3.3l1.4,2.9l0.7,3l-0.2,2.2l-0.9,4.1l-0.4,1l-1.1,1.1l-0.6,2.4l0.1,2h0.6
	l33.7-10.5l1.5-0.4l0.2,4.4l3,0.8l6.5,3.7l1.7,1.5l0.8,1.4v0.5l-1.2,1l-0.2,0.9l0.6,1.9l0.4,2.6v1.7l-0.6,1.9l-2.1,1.1l-2.3,1.9
	l-4.9,2.1l-0.8,1l-0.7,1.5l-1.2,5.4l-1,2.3l-2.1,5.8l-16.7,13.8l-8.5,7.1l-7.1,5.9l-24.2,20l-3.6-8.1l-0.8-3.4l0.1-3.1l-0.2-1.8
	l-0.6-1.7l-1.8-1.5l-1.2-1.6l-0.6-2l0.5-3.1l-0.7-4l-13.1,7.9l-5.8,4.9l-3.4,2.3l-6.7,2.3l-10.8,5.7l-3.1,2.4l-2.2,1.2l-1.9,0.3
	l-11.4,0.6l-4.1,0.7l0.8-2l0.4-4.5l-0.7-3.6l-3-5.6l-0.9-2.9l3.3-11.4l10.7-6.3l23.8-7.5l14.8-11.3l5-7.3l-2.6-6l3-5.2l2-2l5.6-2
	l0.8-2.1l0.8-0.6l3.2-1.6l-0.3-5.6l6.7-2.3l14-13L199,209.5L199,209.5z"/>
<path id="CHE162" class="st0" d="M546.5,73.4l-0.3,2l-5.1,8.3l-4.8,4.8l-3.7,6l-1.1,6.2l-0.1,3.4l1.2,4.5l4.8,10.5l1.7,5l3,4
	l0.6,1.3l-1,2.7l-5.8,6l-0.5,1.8l1.9,1.7l4.4,2.3l1,1.1l-0.1,2.1l-0.5,4.6l0.7,2.3l2.6,2.8l6.6-2l-0.7,3.1l-2,3.6l-4.1,5.3l-3.8,2.4
	l-1.5,0.6L538,170l0.5,2.6l5,10.6l-2.9,5.6l-0.3,2.9l1.2,13.8l1.6,11.4l-6.4-0.3l-2.8-1.3l-1.2-1.1l-1.6-2l-2.4-3.8l-0.8-1.6
	l-7.4-21.2l-1.7-3.8l-0.9-2.7l-0.7-3.2L516,174l-1.3-1.2l-3.7-1.6l-3.7,0.4l-3.7,4.4l-1,2.6l-5,9l-3.6,2.7l-2,0.2l-1.5-0.6l-1-0.8
	l-1.3-1.3l-0.6-1.7l0.3-0.8l1.6-0.7l-0.6-0.5l-2-0.8l-6-0.2l-4.5-1.5l-3.3-3.5l-15.2,6l-4.9-9.8l-3.4-1.5l-4.8,0.1l-0.9,0.2
	l-0.5,1.3v2.6l0.3,2.8l-0.4,2l-1.2,1.1l-5.7,2h-5l-13.5,2.8l-2.9-5l-0.2-0.7l-0.6-6.4l1.7-2.1l5.3-10.7l0.7-0.8l9.8-9.1l1.6,0.4
	l1.9,0.8l14.1,2.1l1.6-0.8l1.8-1.2l3-7.1l2.5-3.8l1.6-3.7l-0.2-6.2l-2.8-0.8l-2.2-1.2l-1.9-1.9l-1-1.5l-1-4.5l-1.4-0.9l-0.3-3
	l0.2-1.7l-0.4-1.1l-1.9-2.3l-3.5-0.6l-2.8-1.9l-0.4-2v-4.6l-6.8-0.7l-2-1.5l-0.8-2.5l-6.5-9.9l-1-2.3l-1.3-0.9l-1.7-2.5l-3.2-0.9
	l-1.3,0.2l-0.6,0.5l-0.3,1.4l-0.3,3.1l-0.5,0.9l-5.6,5.1l-3,0.4l-0.6-1.1l-0.5-1.9l-0.1-1.9l0.1-1.6l-1.3-1.1l-1-0.2l-8.1-4
	l-0.7-0.5l8.7-1.8l4.2-2.4l3.5-4.2l4-6.4l3.1,1.6l14.3,0.9l1.3,1.4l0.7,3.1l0.5,3.1l0.6,1.4h28.7l10-2.3l2.1-1.5l1-1.4l0.9-1.6
	l1.9-2.2l1.8-1.4l4.8-2.6l4-1.2l1.5-1.6l1.1-1.6L493,62l11.9-2h4l5.8,1.7l2.5,0.3l1.2,1.4l1.2,3.2l1.6,3.2l2.1,1.4l8.4,2.2l14.2,0.1
	L546.5,73.4L546.5,73.4z"/>
<path id="CHE163" class="st0" d="M543.1,216.9l2.7,4.4l1.9,0.5l2.3,1l1.2,3.5l-6.8,4.2l-1.2,1.1l-0.6,1.2l-0.3,1.2l-0.1,1.7
	l-0.3,1.2l-0.8,1.1l-1.9,2.1l-0.4,1.1l0.4,1.8l1.2,1.6l2.4,1.3l3.4-1.6l8.9,2.4l8.5,7.8l0.8,1.2l0.7,1.6l-0.8,2.5l-0.7,1.7l-7.3,3.8
	l-1.2-2.2l-3-3l-3.2-0.6l-1.9,1.9l-0.2,1.5l-2.2,0.7l-7.3-0.1l-0.6-1.4l-2.4-1.4l-3.4,1.7l-4.7,1.6l-2.8-0.5l-2.5-0.1l-2.8,0.5
	l-5.4-0.1l-3.8,0.8l-4.2,1.5l-1.3,0.9l-0.7,1.6l-0.1,1.3l1,2.5l-12.3,1.2l-3.7,2.4l-0.5,0.9l0.9,2.8l0.2,1.7l-0.3,1.6l-4.5,4.1
	l-5.3,6.8l-0.9,0.3l-0.5-0.4l-0.8-1.1l-1.9-0.1l-1.1,0.5l-0.9,0.7l-1.6,2.4l-0.8,1.6l-0.8,2.3l-0.8,4.7l-3.8,8.8l-0.5,1.7l0.7,3.3
	l1.1,2.4l1.2,5l-3.6,5.8l-4.5-0.3l-3.9,1.5l-3.3,1.9l-1.7,0.3l-1.4-0.4l-2.9-3.5l-2.6-4.1l-14.6-11.7l-3.5-3.8l-0.1-2.5l-2-6.4
	l0.4-1.6l2.1-2l0.7-1.9l0.2-2.4l-0.5-3.9v-1.9l0.4-1.4l0.8-0.6l1.9-0.8l1.7-1l0.5-0.2l1.8,0.5l1.1-0.2l1.1-0.8l0.7-1.2l0.8-1.9
	l1.2-0.9l0.4-0.6l0.5-3.1l0.4-0.8l1.3-2l0.7-2.9l0.6-1.4l1.5-7.5l-4.8-1l-1.5-1.3l-5.9-0.6l-0.8-5.2l-1.1-1.4l-1.5-2.7l-1.9-2.6
	l-0.6-2.2v-2.1l0.7-6.6v-6.4l0.5-3.4l0.6-2.2l1.8-3.2l-1.9-9.8v-3.3l-0.7-2.6l-1.2-2.9l-1-1.9l-5.7-13.2l13.5-2.8h5l5.7-2l1.2-1.1
	l0.4-2l-0.3-2.8v-2.6l0.5-1.3l0.9-0.2l4.8-0.1l3.4,1.5l4.9,9.8l15.2-6l3.3,3.5l4.5,1.5l6,0.2l2,0.8l0.6,0.5l-1.6,0.7l-0.3,0.8
	l0.6,1.7l1.3,1.3l1,0.8l1.5,0.6l2-0.2l3.6-2.7l5-9l1-2.6l3.7-4.4l3.7-0.4l3.7,1.6l1.3,1.2l1.2,1.9l0.7,3.2l0.9,2.7l1.7,3.8l7.4,21.2
	l0.8,1.6l2.4,3.8l1.6,2l1.2,1.1l2.8,1.3L543.1,216.9L543.1,216.9z"/>
<path id="CHE164" class="st0" d="M556.3,265.3l5.4,3.8l15.9-2.1l0.4,2l-0.3,1.7l-3.1,9.6l-0.6,1.3l-1,1.1l-2.5,2.3l-11.3,5.9
	l-3.7,2.5l-0.5,0.7l-0.1,1l1.6,2.5l0.6,1.4l0.3,2.1l-0.4,2.3l0.9,6.6l-10.7,0.4l-2.3-1.9l-0.8-1.9l-1.1-0.5l-1,0.1l-4.2,2.8
	l-1.2,0.1l0.1-1l0.1-2.2l-1.2-1.7l-0.8-0.2l-0.9,0.6l-0.8,1.6l0.1,1.1l0.7,1.5l0.4,3.8l0.4,1.6l1.2,4.1v3l2.2,1.6l0.3,0.7l0.3,1.9
	l1.2,1.6l0.9,1.5l1.5,1.6l3.5,1.5l0.6,0.6l0.4,1.1l-0.5,0.6l-6.3,2l-5.2-4.6l-4.6-2.8l-4.5-6.3l-0.6-7.6l0.4-3.1l0.2-6.5l1.1-3.7
	l0.3-1.5v-8.7l-0.4-1.3l-1.1-1l-5.2-2.5l-1.4-1.2l-1.1-1.5l0.3-2.2l0.6-1.1l1.3-2.1l0.6-1.5l0.7-3l-0.5-0.9l-0.8-0.5l-8.4-2.6h-0.9
	l-1,0.4l-2.4,1.3l-3.8,0.9l-1-2.5l0.1-1.3l0.7-1.6l1.3-0.9l4.2-1.5l3.8-0.8l5.4,0.1l2.8-0.5l2.5,0.1l2.8,0.5l4.7-1.6l3.4-1.7
	l2.4,1.4l0.6,1.4l7.3,0.1l2.2-0.7l0.2-1.5l1.9-1.9l3.2,0.6l3,3L556.3,265.3L556.3,265.3z"/>
<path id="CHE165" class="st0" d="M558.9,414.5l-6.5,8.8l-3.7,2.5l-5.1,0.6l-1.9,0.6l-0.7,0.7l-0.1,0.8l0.3,1.3l-0.1,0.7l-1.2,2.1
	l-0.9,2.3l-0.5,2.1l0.3,3.8l-9.4,2l-6.1,3.3l-4.7,5l-1.8,4.1l0.8,1.4l1.5,1.1l0.1,3.2l-1.3,3l-2.2,2.6l-2.6,2l-6.2,3.2L496,486.1
	l-4.6,3.2l-9.6,2.1l-4.8,2.3l-4.3,4.4l-2.2,3.1l-0.9,2.7l0.7,1.2l5.2,4.5l6.5,12.7l0.7,11.7l-4.8,10.4l-9.7,8.4l-2.4,0.8l-4.6,0.5
	l-2.2,1.7l-1.6,3.3l-0.5,3.7v3.6l-1.2,9.1l-0.4,0.6l-2.1,4.7l-0.2,0.7l-2.7,3.6l-1.6,1.4l-2.1,0.6l-15.7,3.6l-3.2,2.6l-2.4,4.6
	l-0.6,6l-4.6,0.2l-0.2,0.6l-0.7,3.2l0.2,1.7l-0.6,1.1l-2.7,1.5l-1.3-0.1l-4-1.2l-6.1,0.1l-10.6-3.9l-2.2,0.3l-1.6,0.8l-1.9,0.4
	l-2.7-0.9l-0.3-0.8l-4.2-6.1l-3.3-3.1l-3.5-2l-22.5-5.7l-3.7,1.9l-2.2,3.6l-2.4,3.2l-4.6,0.6l-6.6,2.9l-13.1,9.6l-7.1,2.5l-16.6-1.8
	l-2.9,1l-6.2,3.9l-13.7,5.6l-6.6,1.3l-7.3,0.1l-6.8-1.4l-5.1-3.1l-9.9-11.2l-1.6-2.5l-1.1-3.2l-1.6-5.9l-2.5-6.6l-0.8-3.4l-1.1-0.7
	l-15-17l-5-2.2l-1.9,0.8l-1.5,1.6l-1.7,1.3l-2.1-0.3l-2-1.5l-0.1-1l0.4-1.3l-0.1-2.5l0.4-0.3l-0.1-3.4l-0.4-3.1l0.4-1.4l1.8-2.1
	l1.5-2.5l0.3-2.4l-3.4-3.3l-17.6-3.9l-1.9-5.4l2-10.9l3.8-11.5l7.9-15.3l-5.1-8.7l-7.8-8.4l-4.2-7.3l1.2-3.7l5.8-6.9l1.6-5.3
	l-0.3-3.2l4.2,0.3l10.5,2.1l2.7-1.6l1.5,2.3l3.2,3.9l1.5,2.7l-0.1,1.7l-0.5,2.1l-0.3,2.4l0.9,2.4l2.7,1.9l3,0.6l2.3,1.9l1,5.7l1,2.9
	l14.1,24.6l5,6.7l1.6,3.1l2.5,3.3l8.5-4.8l7.3-4.8l5.2-6.5l2.5-1.1l4.2-4.3l3.1-4.4l2.6-4.5l0.9-2.5l-0.4-4.2l0.1-1l3.8-4.2l2.7-3.1
	l7.7-4.5l1.7-2.9l0.2-2.1l1-0.9l7.2-2.4h1.3l0.6,0.7l0.2,2.2l-0.3,2.6l0.3,0.8l1.3,0.4l1.3,0.7l8.3-2.8l5.1-3.6l2.1-2.5l1-0.8
	l3.2-0.7l9.6-0.1l5.3,1.6l1.9,0.7l1.4-0.1l1.9-0.5l7.9-3.3l3.2-2.9l-2.8-1.7l-1.3-1.7l5-3.2l7.5-2.2l0.7-0.8l2.4-1.9l0.4-0.7
	l0.7-2.1l1.7-1.2l4.6,0.6l14.6,7.1l2.6-0.2l27-19.7l2.6,0.8h3.3l2-0.4l4.7-1.8l8.1-5.7l6.1-4l0.7-0.9l0.8-1.6l-0.3-2.1l-1.4-2.7
	v-0.5l1.2-1.1l7.2-4.5l5.7-0.3l18.8,3.6l1.9,1.6l5.3,2.4l6,0.6l0.3,0.2l0.2,2.5l0.8,0.5l1.1,0.4l1.3-0.1l11.5-2.3l5.3-1.9l10.2-5.8
	l2.3-2l3.5-2.2l2.3-2.4l1.1-1.6l1-1.8l1.1-7.1l1.3-5l0.9-2.6l1.3-2.7l4.3-5.3l2.4-0.4l1.8,0.9l0.5,0.8l0.4,1.5l-0.1,2.7l-0.5,4
	l-0.8,3.5l-1.5,5.2l-0.3,1.6l0.3,1.8l0.6,2l2.4,5.9l3.3,5.3L558.9,414.5L558.9,414.5z"/>
<path id="CHE166" class="st0" d="M809.2,116.5l-5.8,2.4l-3.4,0.6l-4.1-0.2v1.3l0.3,0.7l7,3.5l0.4,3l-9.5,5.9l-0.4-4.6l1.1-1.2
	l0.1-1.5l-0.2-1.2l-0.9-1.2l-1.1-1.1l-1.4-1.2l-0.8,0.2l-1.4,1.3l-1.4,1l-0.7,2.2l1,0.9l0.3,0.7l-0.5,0.6l-2.6,1.3l-2.3,1.3
	l-0.7,3.7l-1.1,8.2l1.5,4.9l-7.1-0.2L752,136.7l-1.4,1.4v2.4l-0.2,4l-1.2,3.1l-1.2,2.3l-1.8,2.2l-3.3,2.6l-0.7,1.9l-0.6,7.7l0.4,2.8
	l0.8,2l1.7,2.3l1.1,2l0.8,2.6l0.4,1.4l1.1,3.4l-3.7,1l-1.4-0.1l-2.3-1.7l-6.8-3.8l-11-1.4l-2-0.6l-1-0.6l-1.6-2l2.6-3l-1.6-7.4
	l0.1-2l0.5-1.3l1.4-1.6l1.7-2.9l-0.3-1.1l-0.7-0.5h-1l-2.2,0.5l-2.9-5.7l0.4-0.6l2.7-2.6l1.7-3l2.2-4.8l1.1-2l0.8-0.9l2,0.3l7.9-1.2
	h1.6l3.6,1.2l10-2l7.9-1.3h4.9l2.6-0.8l1.4-1.5l0.4-1.7l0.7-2l1.1-2l2.6-0.6l1.9-0.8l11.1-5l4.6-4.2l1.2-0.6l0.9-0.1l1,0.6l1.9,0.4
	l0.6,0.4l2.2,1.8l3.5,1.3L809.2,116.5L809.2,116.5z"/>
<path id="CHE167" class="st0" d="M779.7,100.1l4.3,3.8l5.1-1.5l7.8-6.4l0.4,0.4l6.6,9.9l8.2,3.8l6.3,5.6l-0.1,13.9l-2.2,5l-8.6,10.8
	l-1,3l-1.1,5.7l-0.9,2.3l-7.5,9.1l-10.8,18.3l-3.8,11l-0.5,11l1.7,5.4l2.4,4.7l1.8,5.2l0.1,6.9l-2.1,4.4l-3.4,3.5l-2.5,3.5l0.2,3
	v1.3l1.7,5.4l2.5,5.4L791,266l1.3,2.6l-1.7,0.4l-1.3,0.8l-1.1,1.2l-0.8,3l-0.6,1.3l-2.1,1.7l-1.1,1.4l-1.5,2.7l-1.1,2.5l-0.7,3.9
	l0.1,1.5l-0.3,1.7l-0.6,1.8l-2.9,5.1l-2.8,0.9l-0.6,2.7l-0.7,0.3l-1.6-0.2l-2.5-1.9l-4.5-2.2l-29.6-4.4l-1,0.6l-1.9-0.2l-3.5-4.2
	l0.4-3l-0.2-1.3l-1.7-3.8l-0.8-2.9l-0.1-1.2l0.7-1.8l1-9.3l-0.4-2.3l-0.9-2.9l-2.9-6l-1.9-2.5l-1.8-1.4l-1.6,0.2l-1.6,0.5l-2.5,1.3
	l-4.1,0.4l-1.4-0.4l-4.1-2.4l-0.2-0.6l0.6-0.8l7.6-5.3l1.3-4.6l1.1-15.5l-23.3-4.5l-3.4-2l-11.6-10.6h-1.3l-3.5,1.9l-5.9-6l-1.4-2.7
	l0.1-2.8l0.6-3.1l-6.9-2.2l-20.8,2.1l-12.1-2.1l3-7.6l4.1-3.2l9.1,1.3l2.9-0.3l13.1-6.1l2-1.8l1-1.6l-0.1-2.7l1.2-2l1.7-2.2l2.8-2.5
	l1.4-1.6l0.7-1.3l-0.7-2.5l-1.3-7l-5.2-9.6l-1-1.4l2.3-0.1l1.8-2.5l3-5.5l2.2-2.6l2.5-5.6l0.8-1.2l1-0.3l0.8,0.3l1.6-0.2l2.2-1.1
	l1.2-0.3l1.5-0.2l0.8-0.5l0.4-0.8l0.1-1.1l-0.3-3.3v-1.2l-6.1-4.4l-0.5-1.1l-0.2-1.6l0.7-1.5l1.3-0.5l2.2-0.6l1.8-2l0.8-0.2l1.7,0.6
	l1.4,0.1l3.8-0.6l0.7,0.1l1.6,2l0.6,0.2l2.8-0.3l2.8,0.7h2.8l3.6-0.6l1.8-1l1-1.2l2-3.7l3.3,4l7.2,3.4l8.6,2l4,0.5l0.8-0.7l2-1.1
	l1.3-0.1l1.9,0.4l1.5-0.4l1.2-0.9l1.3-2.3l0.8-2.5l-1.1-4.9l-1.6-0.3l-1.2,0.5l-1.4,0.3l-2.4-0.4l-0.8-0.5v-0.9l0.8-0.5l0.8,0.2
	l2.1-1.8l2.7-0.8l1.8-0.1l0.6-0.2l1.1-1.1l2.2-0.8l3.1-0.1l2.1,3.3l-0.1,2.5l-0.8,1.8l0.6,1.6l4.9,6.4l1.9,1.6l1.5,0.5l1.5-3
	l11.3-8.6l2.2,1.5l-1,3.1l0.4,0.9l2.2,1.1l1.9-0.1L779.7,100.1L779.7,100.1z M747.9,180.8l2.9,2.1l1.9,0.8l1.6,1l1.9,0.4h1.5
	l6.2-2.4l4.3-2.2l3.2-2.3l3.1-3.4l4.3-8.2l3.8-18.6l-1.5-4.9l1.1-8.2l6-2.4l2.8-0.4l3.1,1.6l9.5-5.9l-0.4-3l0.4-2.4l0.5-0.8l5.1-5.1
	l-9-1.6l-3.5-1.3l-2.2-1.8l-0.6-0.4L792,111l-1-0.6l-0.9,0.1l-1.2,0.6l-4.6,4.2l-11.1,5l-1.9,0.8l-2.6,0.6l-1.1,2l-0.7,2l-0.4,1.7
	l-1.4,1.5l-2.6,0.8h-4.9l-7.9,1.3l-10,2l-3.6-1.2h-1.6l-7.9,1.2l-2-0.3l-0.8,0.9l-1.1,2l-2.2,4.8l-1.7,3l-2.7,2.6l-0.4,0.6l2.9,5.7
	l2.2-0.5h1l0.7,0.5l0.3,1.1l-1.7,2.9l-1.4,1.6l-0.5,1.3l-0.1,2l1.6,7.4l-2.6,3l1.6,2l1,0.6l2,0.6l11,1.4l6.8,3.8l2.3,1.7l1.4,0.1
	L747.9,180.8L747.9,180.8z"/>
<path id="CHE168" class="st0" d="M710.8,529.7l-0.1,0.2l-16.1,10.9l-4.1,6.2l-0.8,4.1l0.4,7.2l-0.7,3.9l-1.7,3l-2.1,1.3l-4.9,1.5
	l-5.6,4.4l-1,3.6l3.9,11.1l-7.2,6.8l-0.7,1.6l0.7,1.6l2.3,2.4l1.9,5.8l2,3l2.1,1.2l4.8,1l2.1,1.3l2.5,5.3l-0.8,5.4l-5.5,10.8
	l-7.1,8.7l-6.6-1.2l-7.3-3.3l-8.7,2.7l0.8-4.9l1.3-3.8l0.9-3.9l-0.4-5.5l-1.2-4.2l-1.8-4.2l-3.9-6.8l-2.2-5.1l-1.4-2l-1.5-1.2
	l-12.7-6.8l-3.4-1.2l-3.7-0.3l1.2-2.4l3.8-8.9l6.4-7.8l3.3-7.4l-5.7-7.5l-3.3-1.2l-6.8,0.2l-3.5-0.5l-1.7-1.2l-1.7-3l-1.8-0.6
	l-1.4,0.6l-3.4,3.1l-1.6,0.9l-3.9-0.2l-10.3-6.1l-4.2-1.5l-2.2-1.1l-14-20.7l-6.2-6.5l-6.1-3.1l-5.8-2.3l-4.1-3.4l-2.4-5.1l-0.9-7.8
	l0.8-8.3l3.6-16.6l0.7-9.2L552,453l-0.9-7.3l-3.1-4.4l-6.3-1.1l-2.9,0.6l-0.3-3.8l0.5-2.1l0.9-2.3l1.2-2.1l0.1-0.7l-0.3-1.3l0.1-0.8
	l0.7-0.7l1.9-0.6l5.1-0.6l3.7-2.5l6.5-8.8l7.3-6.1l0.5-1.7l0.8-2.1l1.8-5.1l1.3-1.5l1.6-0.4l2.6-0.2l19.3,4.5l9.2-4l7.4,3.4
	l17.1,1.5l13-2.2L652,396l2.2-1.5l0.5-1.1l-0.2-1.1l-0.5-1l-0.2-1.4l0.3-1.6l1.6-2.3l1.6-0.8l1.7-0.7l2.1-0.5l1.9-1.8h1.2l0.6,0.5
	l0.3,1.7l0.6,1.6l1.1,1.8l7.5,0.7l1.1,0.5l1.6,1l2.5,1l2.9,2.8l0.5,0.8l0.2,1l-0.4,1.2l-1.7,3.1l-0.7,1.9l-0.7,2.4l-0.3,2l-0.5,3.8
	l-0.8,4l1.3,6.2l1.3,3.2l2.3,4l2.4,3.5l1.6,0.7l1.5-0.6l3.3-0.5l2.5,4.8l0.1,1.9l-0.1,2.6l-0.5,3.5l0.4,2.7l0.8,2.3l1.1,2.1l0.2,1.3
	l-0.5,1.5l-0.7,3.1l-0.9,2.6l0.2,9.7l-0.8,2.2l-3.4,6.4l-0.4,2.2l0.2,2.1l0.4,2l-0.4,1.6l-0.9,2.1l-1.8,2.1l-0.1,1.3l0.3,1.6
	l1.8,4.5l2.3,4.6l0.2,2.8l-0.6,4.1l0.4,1.7l0.7,1.7l1.8,2.9l1.4,1.3l3.7,2.5l4.6,5.7l1.9,1.9L710.8,529.7L710.8,529.7z"/>
<path id="CHE169" class="st0" d="M727.9,289l-6.2,5.5l-3.8,5.3l-1.1,0.7l-1.8,0.8l-4.2,0.1l-3.2,0.7l-7.6,5.2l-2.2,0.6l-1.8-0.7
	l-1-1.4l-1.6-1.1l-2.1-0.8l-3.7-0.3l-2.2,0.4l-1.4,0.8l-0.6,0.7l-0.1,1.2v2.5l-0.3,1.1l-0.6,1l-2.3,5.2l-1.7,2.2l-3.1,2.9l-5,2.4
	l-12.3,3.8l-2,0.1l-0.9-0.6l-0.5-2.2l-0.4-0.8l-1.1-0.2l-2.3-0.9l-4.6-0.2l-0.1-6.2l-0.2-1.6l0.3-2.1l5.8-4.3l1.7-1.6l2.3-0.3
	l4.7-1.9l1.5-1.3l0.9-1.8l0.1-3.2l-0.1-1.9l-0.9-3l-3-5.4l4.7-2.4l1.1-3.9l0.8-4.3l-0.4-2.1l-0.8-1.4l-3.6-2.5l-1-1.1l-1-1.7l-0.1-1
	l0.7-1.1l-0.1-0.5l-6.2-9l-3.1-2.8l1.1-3.7l2.5-1.8l5.5-2.6l1.9-2.2l1.8-2.7l2.2-4.5l0.2-2.4l-0.6-4.2l1.1-1.8l0.5-1.3l0.6-3.6v-1.9
	l4.3-13.7l3.5-1.9h1.3l11.6,10.6l3.4,2l23.3,4.5l-1.1,15.5l-1.3,4.6l-7.6,5.3l-0.6,0.8l0.2,0.6l4.1,2.4l1.4,0.4l4.1-0.4l2.5-1.3
	l1.6-0.5l1.6-0.2l1.8,1.4l1.9,2.5l2.9,6l0.9,2.9l0.4,2.3l-1,9.3l-0.7,1.8l0.1,1.2l0.8,2.9l1.7,3.8l0.2,1.3L727.9,289L727.9,289z"/>
<path id="CHE170" class="st0" d="M710.8,529.7l-5.2-3.8l-1.9-1.9l-4.6-5.7l-3.7-2.5l-1.4-1.3l-1.8-2.9l-0.7-1.7l-0.4-1.7l0.6-4.1
	l-0.2-2.8l-2.3-4.6l-1.8-4.5l-0.3-1.6l0.1-1.3l1.8-2.1l0.9-2.1l0.4-1.6l-0.4-2l-0.2-2.1l0.4-2.2l3.4-6.4l0.8-2.2l-0.2-9.7l0.9-2.6
	l0.7-3.1l0.5-1.5l-0.2-1.3l-1.1-2.1l-0.8-2.3l-0.4-2.7l0.5-3.5l0.1-2.6l-0.1-1.9l-2.5-4.8l-3.3,0.5l-1.5,0.6l-1.6-0.7l-2.4-3.5
	l-2.3-4l-1.3-3.2L678,414l0.8-4l0.5-3.8l0.3-2l0.7-2.4l0.7-1.9l1.7-3.1l0.4-1.2l-0.2-1l-0.5-0.8l-2.9-2.8l-2.5-1l-1.6-1l-1.1-0.5
	l-7.5-0.7l-1.1-1.8l-0.6-1.6l-0.3-1.7l-0.6-0.5H663l-1.9,1.8l-2.1,0.5l-1.7,0.7l-1.6,0.8l-1.6,2.3l-0.3,1.6l0.2,1.4l0.5,1l0.2,1.1
	l-0.5,1.1L652,396l-11.2,4.6l-13,2.2l-17.1-1.5l-7.4-3.4l0.7-4.4l-0.5-2.6l-1.2-4l-0.5-1l-2.6-1.7l-0.7-1l-0.5-1.3l-0.2-1.8l0.1-1.8
	l1.6-5.1l1.6-3.6l0.4-1.7l0.1-1.3l-0.2-1.9l0.8-1.3l1.5-1.4l3.6-1.6l2.2-0.4l2.2-1.3l5.1-6.7l2.2-2.3l3.9-1.4l3.3,1.2l0.9,0.1
	l3.3-0.8l0.8-0.5l0.7-1.1l-0.2-2.9l0.3-1.2l1.8-3l2-2.6l0.4-2.7L636,331l0.6-0.8l1.7-0.4l1.5-0.6l1.5-1.6l2.5-1.4l2.4-3.2l4.6,0.2
	l2.3,0.9l1.1,0.2l0.4,0.8l0.5,2.2l0.9,0.6l2-0.1l12.3-3.8l5-2.4l3.1-2.9l1.7-2.2l2.3-5.2l0.6-1l0.3-1.1v-2.5l0.1-1.2l0.6-0.7
	l1.4-0.8l2.2-0.4l3.7,0.3l2.1,0.8l1.6,1.1l1,1.4l1.8,0.7l2.2-0.6l7.6-5.2l3.2-0.7l4.2-0.1l1.8-0.8l1.1-0.7l3.8-5.3l6.2-5.5l3.5,4.2
	l1.9,0.2l1-0.6l29.6,4.4l4.5,2.2l2.5,1.9l1.6,0.2l0.7-0.3l0.6-2.7l2.8-0.9l2.9-5.1l0.6-1.8l0.3-1.7l-0.1-1.5l0.7-3.9l1.1-2.5
	l1.5-2.7l1.1-1.4l2.1-1.7l0.6-1.3l0.8-3l1.1-1.2l1.3-0.8l1.7-0.4L791,266l-6.7-11.5l-2.5-5.4l-1.7-5.4v-1.3l5,1.5l13.5,2.2l4.5-1.4
	l4.2,1.1l11.6-1.5l3.7,0.6l41.8,13.2l-0.4,3.7l0.9,0.8l1.4-0.1l0.9,1v2l-1,3.1l-0.5,7.6l-0.7,3.5l0.4,3l2.8,4l5.5,4.2l23.6,7.7
	l8.6,8.2l4.9,2.9l9.6,3l4.6,0.2l5.7-1.6l9.6-4.9l2.3-3.4l0.6-2.4l0.2-2.8l1-4.1l3.4-5.7l3.6-0.6l4.3,1.1l5.5-0.3l0.1-6l3.9-7.5
	l5.5-6.4l6.5-3.7l1.2-0.2l1.2,0.2l1.2,0.8l2.3,2.5l4.6,7.5l7.5,6l2,2.3l1.2,5.5l-2.8,11l0.6,6.9l-1.2,10.5l-0.8,2.9l-1.3,2l-4.8,5.9
	l0.4,4.8l1.6,4.7l0.5,4.4l-2.7,4.1l-3.7,2.4l-0.9,3l0.2,3.7l-0.5,4.6l-2.1,3.8l-2.4,2.3l-1.1,3l1.9,6.2l4,4.7l9.4,1l4.6,3.9l1.7,6.2
	l-0.2,8.3l-1.7,8l-3.1,5.1l-4,0.8l-15.9-4.2l-7.7,0.8l-2.8-0.5l-2.5-1.2l-1.4-1.4l-1.1-1.7l-1.8-1.5l-9.1-3.2l-1-3.5l1.2-6.6
	l-0.4-3.6l-3.5-2.9h-5.7l-21,6.1l-2.1,1.2l-0.9,2.3l-2.8,10.6l-1.8,2.4l-4.8,4.8l-1.9,2.9l-0.3,2.3v7.1l-1,3.4l0.3,3l0.5,2.3
	l1.1,1.8l1.9,1.3l-3.9,6.7l3.5,4.3l6.5,2.6l9.9,1.9l3.8,1.5l1.6,3.6l-1.7,7l-1.6,2.2l-4.6,4.1l-1.7,3.2l-1.1,4.3l-0.1,2.9l0.9,2.7
	l2,3.6l9.1,9.3l2.8,5.8l-2.9,6.1l-6.1,3.9l-9.4,3.5l-7.3-0.1l-0.2-7.2l-2.2-5.5l-8.7-7.8l-3.3-4.4l-1.4-7l-0.1-6.3l-1.5-5.3
	l-5.5-3.6l-4.6-1.2l-4.3-0.3l-9.6,1.6l-14.7,7.6l-4.6,1.5l-2.9-0.6l-5.3-3.2l-2.4-0.1l-2.4,2.7l-0.5,3.7l0.4,3.6l-0.1,2.6l-3.4,4.7
	l-4.2,1.6l-25.3-0.3l-5.2-1.8l-4.6-3.2l-2.9-3.9l-4.4-11.6l-1.9-1.6l-4.9-2.8l-1.6-1.5l-0.5-1.8l0.4-4.9l-1.4-30.9l-0.7-2l-1.7,0.4
	l-3.6,2.7l-1.5,2l-0.8,2.3l-1,1.9l-2.4,1l-1.7-0.7l-5.7-5.4l-0.1-4l-4.4-1.2l-10.8,1.3l-4.2,4l-3.8,7.7l-1.8,7.9l2.2,4.3l2.9,2.1
	l0.4,3.2l-0.5,4.1v4.5l3,11.4l0.3,4.2l-1.4,7l-6.5,13.6l-3.3,11.5l-2,3.2l-2.6,2.4l-2.6,1.3l-2.4,1.7l-1.2,3.2l-1.1,3.7L710.8,529.7
	L710.8,529.7z"/>
<path id="CHE171" class="st0" d="M575.4,68.2l2,2.5l3-1l0.5-0.9V70l-2.8,7.5l-1.7,2.6l-1.6-0.2l-1.9-2.6l-1.5-1.4l-0.9-0.6l0.2-2.5
	L575.4,68.2z M641.8,43.8l-6.7-3.6l-2.6,1.1l-2.1-1l-2.6,6.3l-1.5,1.7l-0.9,0.7l-1,0.3l-0.9-0.1l-1.2,0.6l-0.9,1l-1.1,0.7L619,52
	l-9-0.3l-2-0.7l-1.5-1l-1.4-2.1l-0.9-1.8l-0.4-5.3l0.7-5l-9.5-0.3l-1.9,1.9l-1.5,3l-3.8,3.5l-3.1,4.2l-2.5-1.1l-3.1-0.5l-10.8,1.9
	L565,50l-3,2.2l-3.3,1.7l-3.9,0.2l-4.6-2.6l-5.7-4.4l-1.1-0.1l-3.5-1.3l1.5-3.6l-0.6-2.8l-0.9-2.4l0.2-2.4l2.2-2.5l5.6-3.1l2.4-2.2
	l1.6-6.6l1.1-2.4l2.9-4.4l1.8-1.1l2.5,0.1l11.9-2.4l3.3-1.7L573.3,3l3.6-2l5.5,0.3l4.1,1.9l0.3,2.4l0.2,4.2l0.8,4l2.2,1.7l2.7-1.9
	l1.2-7.1l2-2.2l2.8,1l2.1,3.2l1.8,3.9l1.6,2.6l2.3,0.5L609,15l2.1,0.4l1.5,3.3L612,20l-2.9,4.4l-0.8,2.2l1,2.7l1.7,2.2l1,4.6
	l11.7-0.2l-1.8-2l2-6.4l5.9,0.2L637,32l5.8,5.4l-4.1,0.9v2.3L641.8,43.8L641.8,43.8z"/>
<path id="CHE173" class="st0" d="M671.3,208.2l-4.3,13.7v1.9l-0.6,3.6l-0.5,1.3l-1.1,1.8l0.6,4.2l-0.2,2.4l-2.2,4.5l-1.8,2.7
	l-1.9,2.2l-5.5,2.6l-2.5,1.8l-1.1,3.7l3.1,2.8l6.2,9l0.1,0.5l-0.7,1.1l0.1,1l1,1.7l1,1.1l3.6,2.5l0.8,1.4l0.4,2.1l-0.8,4.3l-1.1,3.9
	l-4.7,2.4l-10,5.7l-1,0.3l-5.5,2.6l-1.5,1.5l-0.9,0.3l-0.9-0.6l-0.5-2l-0.2-3.5l-0.6-1l-1.3-0.1l-1.3-1.4l-0.7-1.2l-0.1-1.5l0.2-1.4
	l-0.7-1.2l-1.5-0.7l-6.3,0.2l-2-0.4l-1.5-1.2l-1.1-0.6l-1.6,0.4l-2.6,1.4l-1.7,0.6l-2.1,1.1l-2.3,1.9l-1.4,0.6l-1.3-0.5l-1.7-2.4
	l-1-3.6l-0.7-0.9l-1.1-0.5l-5,0.4l-1.6-0.3l-4.7-1.7l-1.9-0.5l-1.3-0.6l-1.7-1.3l-0.9-2.9l-0.8-4.6l-0.3-1.1l-2-1l-6.5,0.3
	l-15.9,2.1l-5.4-3.8l7.3-3.8l0.7-1.7l0.8-2.5l-0.7-1.6l-0.8-1.2l-8.5-7.8l-8.9-2.4l-3.4,1.6l-2.4-1.3l-1.2-1.6l-0.4-1.8l0.4-1.1
	l1.9-2.1l0.8-1.1l0.3-1.2l0.1-1.7l0.3-1.2l0.6-1.2l1.2-1.1l6.8-4.2l2.3-1.7l2.3-1.1l1.5,0.6l2.3,0.2l3.9,8.8l11.4-1l1.2,0.2l0.9,0.7
	l1.8,1.8h2l2.6-0.6l5-1.8l3-0.6l3-1.2l2.4-1.9l6.2-7.5l1.7-4.8l4-4.2l-4.1-2.8l-0.4-1.8l-1.2-1.8l-0.3-1.5l0.5-1.9l1.3-1.5l2.2-2
	l8.6-5.6l9.6-1.9l12.1,2.1l20.8-2.1l6.9,2.2l-0.6,3.1l-0.1,2.8l1.4,2.7L671.3,208.2L671.3,208.2z"/>
<path id="CHE174" class="st0" d="M641.8,43.8l6.6,5l5.4,1.4l8.7-0.8l8.1-2.6l3.5-3.9l4.2-1.6l24.6,2.8h12.2l3,4.7h0.2l2,2.8
	l36.4,21.8l2.1,2.2l0.4,1.6l3.4,8.4l0.9,0.2l16.2,14.3l-2.4,0.9l-1.9,0.1l-2.2-1.1l-0.4-0.9l1-3.1l-2.2-1.5l-11.3,8.6l-1.5,3
	l-1.5-0.5l-1.9-1.6l-4.9-6.4l-0.6-1.6l0.8-1.8l0.1-2.5l-2.1-3.3l-3.1,0.1l-2.2,0.8l-1.1,1.1l-0.6,0.2l-1.8,0.1l-2.7,0.8l-2.1,1.8
	l-0.8-0.2l-0.8,0.5v0.9l0.8,0.5l2.4,0.4l1.4-0.3l1.2-0.5l1.6,0.3l1.1,4.9l-0.8,2.5l-1.3,2.3l-1.2,0.9l-1.5,0.4l-1.9-0.4l-1.3,0.1
	l-2,1.1l-0.8,0.7l-4-0.5l-8.6-2l-7.2-3.4l-3.3-4l-2,3.7l-1,1.2l-1.8,1l-3.6,0.6h-2.8l-2.8-0.7l-2.8,0.3l-0.6-0.2l-1.6-2l-0.7-0.1
	l-3.8,0.6l-1.4-0.1l-1.7-0.6l-0.8,0.2l-1.8,2l-2.2,0.6l-1.3,0.5l-0.7,1.5l0.2,1.6l0.5,1.1l6.1,4.4v1.2l0.3,3.3l-0.1,1.1l-0.4,0.8
	l-0.8,0.5l-1.5,0.2l-1.2,0.3l-2.2,1.1l-1.6,0.2l-0.8-0.3l-1,0.3l-0.8,1.2l-2.5,5.6l-2.2,2.6l-3,5.5l-1.8,2.5l-2.3,0.1l-8.8-9.3
	l1.7-2.3l0.9-2.6l0.3-2.3l1.3-1.5v-0.5l-1.8-1l-2.2-2.1l-1-6.7l-2.2-1.4l-0.5-1l-0.5-1.9l0.2-1.6l1.4-1.1l0.9-1.4l-0.3-2.1l0.1-0.8
	l1.3-6.9l0.1-0.9l-0.6-1.1l-1.5-1.3l-6.6-2.7l-2.2-1.3l-1.3-1.5l-0.9-2.9l1.1-2.2l0.4-0.6l-1.2-1.7l-1.3-1.4l-14.1-7l-2.6-0.8
	l-2-2.5l-0.8-1.2V63l0.4-0.7l1.4-1.1l1.6-0.6l1.5,0.3l3.2,1.6l1.2,1.3l1,0.8l1.7,0.1l1.3-2.5l2-2.2l1.6-3.3l1-1.4l0.4-1.6l-0.4-1.4
	l-2.5-2.9l-0.9-4.4l-3.6,1.6l2.6-6.3l2.1,1l2.6-1.1L641.8,43.8L641.8,43.8z"/>
<path id="CHE175" class="st0" d="M659.2,288.4l3,5.4l0.9,3l0.1,1.9l-0.1,3.2l-0.9,1.8l-1.5,1.3l-4.7,1.9l-2.3,0.3l-1.7,1.6l-5.8,4.3
	l-0.3,2.1l0.2,1.6l0.1,6.2l-2.4,3.2l-2.5,1.4l-1.5,1.6l-1.5,0.6l-1.7,0.4L636,331l0.2,3.8l-0.4,2.7l-2,2.6l-1.8,3l-0.3,1.2l0.2,2.9
	l-0.7,1.1l-0.8,0.5l-3.3,0.8l-0.9-0.1l-3.3-1.2l-3.9,1.4l-2.2,2.3l-5.1,6.7l-2.2,1.3l-2.2,0.4l-3.6,1.6l-1.5,1.4l-0.8,1.3l0.2,1.9
	l-0.1,1.3l-0.4,1.7l-1.6,3.6l-1.6,5.1l-0.1,1.8l0.2,1.8l0.5,1.3l0.7,1l2.6,1.7l0.5,1l1.2,4l0.5,2.6l-0.7,4.4l-9.2,4l-19.3-4.5
	l-2.6,0.2l-1.6,0.4l-1.3,1.5l-1.8,5.1l-0.8,2.1l-0.5,1.7l-7.3,6.1l-8.8-4.7l-3.3-5.3l-2.4-5.9l-0.6-2l-0.3-1.8l0.3-1.6l1.5-5.2
	l0.8-3.5l0.5-4l0.1-2.7l-0.4-1.5l-0.5-0.8l-1.8-0.9l-0.7-4.1l-1-2.7l-0.1-3.8l1.1-1.3l1.4-0.2l3.7,1l1.7,0.1l1.7-0.4l0.7-1.2
	l0.6-3.4v-1.4l-0.6-2.6v-1.8l-0.4-1.3l-1.2-2.6l-0.7-1.9l-0.2-3l0.2-1.6l1.9-4.5l7.2-2.2l0.4-1.5l0.2-1.6l-0.7-3.5l-1.2-1l-0.5-1.3
	l0.9-1.9l0.6-2.3l1.2-4.2l1.2-2.2l1.7-1.9l0.9-1.7l-0.5-1.3l-0.6-0.6l-1.9-0.4l-0.7-0.6l-2.4,0.3l-0.9-6.6l0.4-2.3l-0.3-2.1
	l-0.6-1.4l-1.6-2.5l0.1-1l0.5-0.7l3.7-2.5l11.3-5.9l2.5-2.3l1-1.1l0.6-1.3l3.1-9.6l0.3-1.7l-0.4-2l6.5-0.3l2,1l0.3,1.1l0.8,4.6
	l0.9,2.9l1.7,1.3l1.3,0.6l1.9,0.5l4.7,1.7l1.6,0.3l5-0.4l1.1,0.5l0.7,0.9l1,3.6l1.7,2.4l1.3,0.5l1.4-0.6l2.3-1.9l2.1-1.1l1.7-0.6
	l2.6-1.4l1.6-0.4l1.1,0.6l1.5,1.2l2,0.4l6.3-0.2l1.5,0.7l0.7,1.2l-0.2,1.4l0.1,1.5l0.7,1.2l1.3,1.4l1.3,0.1l0.6,1l0.2,3.5l0.5,2
	l0.9,0.6l0.9-0.3l1.5-1.5l5.5-2.6l1-0.3L659.2,288.4L659.2,288.4z"/>
<path id="CHE176" class="st0" d="M627.8,46.6l3.6-1.6l0.9,4.4l2.5,2.9l0.4,1.4l-0.4,1.6l-1,1.4l-1.6,3.3l-2,2.2l-1.3,2.5l-1.7-0.1
	l-1-0.8l-1.2-1.3l-3.2-1.6l-1.5-0.3l-1.6,0.6l-1.4,1.1l-0.4,0.7v0.7l0.8,1.2l2,2.5l2.6,0.8l14.1,7l1.3,1.4l1.2,1.7l-0.4,0.6
	l-1.1,2.2l0.9,2.9l1.3,1.5l2.2,1.3l6.6,2.7l1.5,1.3l0.6,1.1l-0.1,0.9l-1.3,6.9l-0.1,0.8l0.3,2.1l-0.9,1.4l-1.4,1.1l-0.2,1.6l0.5,1.9
	l0.5,1l2.2,1.4l1,6.7l2.2,2.1l1.8,1v0.5l-1.3,1.5l-0.3,2.3l-0.9,2.6l-1.7,2.3l8.8,9.3l1,1.4l5.2,9.6l1.3,7l0.7,2.5l-0.7,1.3
	l-1.4,1.6l-2.8,2.5l-1.7,2.2l-1.2,2l0.1,2.7l-1,1.6l-2,1.8l-13.1,6.1l-2.9,0.3l-9.1-1.3l-4.1,3.2l-3,7.6l-9.6,1.9l-8.6,5.6l-2.2,2
	l-1.3,1.5l-0.5,1.9l0.3,1.5l1.2,1.8l0.4,1.8l-5,0.6l-6.5-2.8l-1.6-1.3l-0.9-1.4l-0.6-1.2l-2.5-3.1l-3.8-3.3l-4-4.5L571,191l-6.3,1.2
	l-4.1,1.5h-2.3l-2.6-0.4l-8.8-2.9l-1.5-1l-0.6-1.3l-0.3-1.4l-1-3.5l-5-10.6L538,170l1.9-0.2l1.5-0.6l3.8-2.4l4.1-5.3l2-3.6l0.7-3.1
	l-6.6,2l-2.6-2.8l-0.7-2.3l0.5-4.6l0.1-2.1l-1-1.1l-4.4-2.3l-1.9-1.7l0.5-1.8l5.8-6l1-2.7l-0.6-1.3l-3-4l-1.7-5l-4.8-10.5l-1.2-4.5
	l0.1-3.4l1.1-6.2l3.7-6l4.8-4.8l5.1-8.3l0.3-2l6.2-1l0.3-1.6l2.5-5.6l6.8-4.5l6.6-0.7l3.4,3.2l2.7,4.5l0.4,0.5l-4.7,4.6l-0.2,2.5
	l0.9,0.6l1.5,1.4l1.9,2.6l1.6,0.2l1.7-2.6l2.8-7.5v-1.2l0.9-1.7l0.3-2.4l-0.1-2.3l0.2-2.3l-0.1-1.1l-0.5-1.3l-0.3-1.5l0.5-1.8
	l0.8-0.7l1.1-0.5h1l0.2,0.5l0.1,2.1l1.5,0.7l1.2-7.8l-2-0.2l-1-0.4l3.1-4.2l3.8-3.5l1.5-3l1.9-1.9l9.5,0.3l-0.7,5l0.4,5.3l0.9,1.8
	l1.4,2.1l1.5,1l2,0.7l9,0.3l1.3-0.5l1.1-0.7l0.9-1l1.2-0.6l0.9,0.1l1-0.3l0.9-0.7L627.8,46.6L627.8,46.6z"/>
<path id="CHE177" class="st0" d="M604.6,209.4l4.1,2.8l-4,4.2l-1.7,4.8l-6.2,7.5l-2.4,1.9l-3,1.2l-3,0.6l-5,1.8l-2.6,0.6h-2L577,233
	l-0.9-0.7l-1.2-0.2l-11.4,1l-3.9-8.8l-2.3-0.2l-1.5-0.6l-2.3,1.1l-2.3,1.7l-1.2-3.5l-2.3-1l-1.9-0.5l-2.7-4.4l-1.6-11.4l-1.2-13.8
	l0.3-2.9l2.9-5.6l1,3.5l0.3,1.4l0.6,1.3l1.5,1l8.8,2.9l2.6,0.4h2.3l4.1-1.5l6.3-1.2l8.7,1.4l4,4.5l3.8,3.3l2.5,3.1l0.6,1.2l0.9,1.4
	l1.6,1.3l6.5,2.8L604.6,209.4L604.6,209.4z"/>
<path id="CHE3421" class="st0" d="M183.4,352.9l-1.5,1.3l-1.1-0.5l-0.5-2.1l-1.1-1.1l-0.9-1.6l0.5-1.6h1.5l1.4-1.9l1.9-1.9h1.4
	l1.3,1.4l0.2,2.4l-0.4,2.4l-1.6,2.1L183.4,352.9L183.4,352.9z M206.8,345.9l-1.6,3.3l-1.7,1.6l-1.6,0.8L198,350l-2.5-1.4l-1.7,0.6
	l-2.5,2.4l-1.9,0.2H188l-0.6-1.3l2-1.9l4-1.9l1-2.1l2-2.7l1.3-1l2.3-3.5l1.1-0.8l1.3,1.3l0.7,1.6l1.5,0.6l1.8,1l1.1,2.4L206.8,345.9
	L206.8,345.9z M180.4,313.3l24.2-20l9.3,9.2l0.8,1.1l-0.2,0.5l-0.9-0.4l-1.5,0.6l-1.4,1.1l-0.4,0.9l2.1,0.3l1.3,0.6l2.3,1.9l0.7,1
	l-0.1,1l-1.3,2.2l-1.4,3.2l-0.5,2.1l-0.8,6.7l0.7,1.2l1.7-0.8l1.3,0.2l0.4,1.2l-0.9,1.5l-1.6,3.9l-1.2,1l-1.7,0.5l-1.2,0.2l-3.1-0.1
	l-1-0.1l-3-1.9l-1.6,0.5h-1l-1.5,0.6l-1.3,0.9l-1.8,0.3l-1.7-0.4l-2.3-1.1l-2.5-0.5l-2.8-1.3l-0.1-1.1l1-1.5l0.1-0.6l-0.7-0.9
	l-0.9,0.2l-1.1-0.5l-2.5-2.5l-0.8-2.4L180.4,313.3L180.4,313.3z M284,284.4l-1.8,0.4l-0.8-1.6l3.3-1l0.1,1.2L284,284.4L284,284.4z
	 M285.8,406.7l-6.6,5.3l-12.7,3.9l-2.2,1.9l-1.6,2.2l-3.5,4.2l-2.3,1.9l-1.9,1.2l-6.5,0.8l-1.6,0.7l-1.5,0.8l-3.8,3.3l-2.2,2.5
	l-1.1,1.9l-0.9,2.8l-5.1,2.5l-1-0.9l-0.4-1.2l-0.8-1.1l-0.7-1.5l-0.6-3l-0.7-3.3l-1.5-3.7l-12.3-9.2l-3-1.2h-2.4l-3.2,3.5l-1.6,1.2
	l-1.9,0.9l-3.2,0.5l-1.7-0.4l-1-0.5l-2.5-3.5l-1.5-4.4l1.9-3.8l0.5-0.2l2.9-0.1l2.4,0.4l2.7,1.8l0.7-0.6l0.6-1l5.5-6.3l1.2-1.6
	l0.4-0.9l-1.2-0.2l-1.7,0.5l-1-0.3l-1.5-1l-2.5-2.6l-2-0.9l-2.5,0.7l-3.2,0.3l-1.8-1.3h-1.3l-1,0.3l-1.9,0.8l-0.2-1.5l0.2-1.4
	l-0.2-2.9l0.8-0.6l0.1-0.7l-0.6-3.5l-0.3-3.6v-3.7l0.2-1.5l0.5-3.4l2.6-0.3l3.6-2.5l2.5-0.5l3.4-0.1l1.3-0.3l0.5-0.5l-0.3-1.3
	l1.2-3.3l7.7-11.3l6.4-8.8l0.8-2.7l-0.2-0.3l-2.8-0.7l-1.6-0.9l-0.6-1.2l0.3-0.6l2.9-0.8l0.9-0.7l0.8-1l6-8.6l-0.4-4.5l1.3-3.3
	l0.8-1.3l2.3-1.8l2.2-2.7l0.7-1.3l0.2-1.1l-0.5-0.3l-1.1,0.3l-0.6-0.5l-0.8-1.2l-0.6-2.9v-1.5l0.4-1.4l0.7-1.4l-0.3-1.3l-0.4-1.1
	l-1-0.9l-1.4,0.3l-1,0.7l-0.1,1.3l-0.5,0.8l-1.1-0.6l-3.6-4.9l-2.1-2l-6.8-9.6l8.5-7.1l13.9,19.4l1.1,2.2l2.5,1.4l3.1,4.6l0.3,2.4
	l0.3,0.7l3.8-2l1.9-2.3l1.2-2.3l0.5-1.7l0.5-2.9l0.7-1.5l0.9-1.1l1.3,0.1l1,1l0.6-0.2l1.6-1.9l0.4-0.9l-0.1-0.6l-1.4-0.6l-1.3-1
	l-4.6-9.6l-0.9-2.3l-1.5-11l17.8-1.7l11-4.5l5.1-2.2l2.1,0.6l0.8,1.2l0.3,2.1l1.4,2.1L284,269l-2.3,2.9l-1.2,1l-2.8,1.4l-0.5,0.5
	l0.1,0.9l1.2,2.1l0.6,1.3l0.2,1.4l0.1,2.1l0.6,3.4l-0.3,1.6l-0.5,1.9l-1.6,3.3l0.1,0.8l0.8,0.4h1l2.3-0.4l11.4,3.3l17.7,1.5l1,7.3
	l-1,2.7l-2.1,1.7l-1.3,0.7h-1.3l-1.1-0.9l0.1-0.8l-1.7-0.6l-1.7,1.4l-0.2,1l0.7,1.5l0.6,3.3l-0.1,4.8l-2.6,10.7l-0.5,5.1l-0.2,8.4
	l0.5,4.8l0.9,2.4l0.5,1.1l0.7,0.6l3.8,1.5l1.1,0.7l1.9,1.5l0.9,1.7l0.7,0.6l0.8,0.3h1.7l1.1,1.3l2.4,1.5l0.3,0.6l-0.5,2.2l-0.9,7.9
	l0.4,1.2l-0.8,1.2l-1.9,2l-1.7-0.1l-1.9-0.7l-3.2-0.7l-1,0.7l-2.4,2.8l0.8,9.5l-0.4,4.5l-0.5,2.8l-1,1.3l-1,0.4l-2.1,0.1l-3.9,0.4
	L285.8,406.7L285.8,406.7z"/>
<path id="CHE3422" class="st0" d="M202.7,456.1l-2.7,1.6l-10.5-2.1l-4.2-0.3l-0.2-2.3L202.7,456.1L202.7,456.1z M204.6,293.3
	l7.1-5.9l6.8,9.6l2.1,2l3.6,4.9l1.1,0.6l0.5-0.8l0.1-1.3l1-0.7l1.4-0.3l1,0.9l0.4,1.1l0.3,1.3l-0.7,1.4l-0.4,1.4v1.5l0.6,2.9
	l0.8,1.2l0.6,0.5l1.1-0.3l0.5,0.3l-0.2,1.1l-0.7,1.3l-2.2,2.7l-2.3,1.8l-0.8,1.3l-1.3,3.3l0.4,4.5l-6,8.6l-0.8,1l-0.9,0.7l-2.9,0.8
	l-0.3,0.6l0.6,1.2l1.6,0.9l2.8,0.7l0.2,0.3l-0.8,2.7l-6.4,8.8l-7.7,11.3l-1.2,3.3l0.3,1.3l-0.5,0.5l-1.3,0.3l-3.4,0.1l-2.5,0.5
	l-3.6,2.5L190,376l-0.5,3.4l-0.2,1.5v3.7l0.3,3.6l0.6,3.5l-0.1,0.7l-0.8,0.6l0.2,2.9l-0.2,1.4l0.2,1.5l1.9-0.8l1-0.3h1.3l1.8,1.3
	l3.2-0.3l2.5-0.7l2,0.9l2.5,2.6l1.5,1l1,0.3l1.7-0.5l1.2,0.2l-0.4,0.9l-1.2,1.6l-5.5,6.3l-0.6,1l-0.7,0.6l-2.7-1.8l-2.4-0.4
	l-2.9,0.1l-0.5,0.2l-1.9,3.8l1.5,4.4l2.5,3.5l1,0.5l1.7,0.4l3.2-0.5l1.9-0.9l1.6-1.2l3.2-3.5h2.4l3,1.2l12.3,9.2l1.5,3.7l0.7,3.3
	l0.6,3l0.7,1.5l0.8,1.1l0.4,1.2l1,0.9l5.1-2.5l0.9-2.8l1.1-1.9l2.2-2.5l3.8-3.3l1.5-0.8l1.6-0.7l6.5-0.8l1.9-1.2l2.3-1.9l3.5-4.2
	l1.6-2.2l2.2-1.9l12.7-3.9l6.6-5.3l1,2.8l1.2,1.9l0.3,1l0.1,1.3l-0.1,2.3v2.1l-0.2,2.6l-0.7,2.6l-1.7,3.2l-1.1,1.5l-0.6,1.3
	l-0.2,1.2l0.5,4.3l-0.1,2l-0.8,2.2l-2,2.7l-3.6,2.2l-0.7,1.1l0.7,2.8l0.7,1.9l0.5,2.6v1.7l-2.5,7.9l2.2,1.7l3.2,3.3l1.3,0.6l0.6,0.9
	l0.1,1.1l-1.1,1.8l-0.5,1.2l0.3,6.4l-2.7,3.1l-3.8,4.2l-0.1,1l0.4,4.2l-0.9,2.5l-2.6,4.5l-3.1,4.4l-4.2,4.3l-2.5,1.1l-5.2,6.5
	l-7.3,4.8l-8.5,4.8l-2.5-3.3l-1.6-3.1l-5-6.7l-14.1-24.6l-1-2.9l-1-5.7l-2.3-1.9l-3-0.6l-2.7-1.9l-0.9-2.4l0.3-2.4l0.5-2.1l0.1-1.7
	l-1.5-2.7l-3.2-3.9l-1.5-2.3h0.2l10.2-0.5l4.8-6.1l-4.2-6l-10-5.4l-19.2-6.4l-36.3-13.1l-5-1l-19.2,1.5l-3.5,1.4l-13.1,10.8
	l-3.7,2.1L89,435.3l-4,1.9l-3.6,3.3l-31.2,48.3l-0.7,0.2l-12.3-10.2l4-8.8l-0.3-3.6l-2.7-4.8l-3.3-3.5L23,450.7l2.5-2.4l0.4-2.2
	l-0.4-2.1v-2.5l-0.2-1l-1-2.8V436l0.9-1.9l2.5-2.7l7.7-13.3l7.8-9.9l-5.3-6l-0.7-4.3l3-3.9l29.7-27.3l15.8-8.8l2.2-1.8l5.9-6.6
	l7.3-3.9l2.3-1.8l2.5-3.1l0.9-2.7l-0.1-5.5l-1.7-1.8l-1.1-1.6l-0.6-1.8l0.3-1.6l3.5-10.5l1.5-2.8l0.4-1.1l4.1-0.7l11.4-0.6l1.9-0.3
	l2.2-1.2l3.1-2.4l10.8-5.7l6.7-2.3l3.4-2.3l5.8-4.9l13.1-7.9l0.7,4l-0.5,3.1l0.6,2l1.2,1.6l1.8,1.5l0.6,1.7l0.2,1.8l-0.1,3.1
	l0.8,3.4l3.6,8.1l1.1,8.5l0.8,2.4l2.5,2.5l1.1,0.5l0.9-0.2l0.7,0.9l-0.1,0.6l-1,1.5l0.1,1.1l2.8,1.3l2.5,0.5l2.3,1.1l1.7,0.4
	l1.8-0.3l1.3-0.9l1.5-0.6h1l1.6-0.5l3,1.9l1,0.1l3.1,0.1l1.2-0.2l1.7-0.5l1.2-1l1.6-3.9l0.9-1.5l-0.4-1.2l-1.3-0.2l-1.7,0.8
	l-0.7-1.2l0.8-6.7l0.5-2.1l1.4-3.2l1.3-2.2l0.1-1l-0.7-1l-2.3-1.9l-1.3-0.6l-2.1-0.3l0.4-0.9l1.4-1.1l1.5-0.6l0.9,0.4l0.2-0.5
	l-0.8-1.1L204.6,293.3L204.6,293.3z M206.8,345.9l0.7-2.4l-1.1-2.4l-1.8-1l-1.5-0.6l-0.7-1.6l-1.3-1.3l-1.1,0.8l-2.3,3.5l-1.3,1
	l-2,2.7l-1,2.1l-4,1.9l-2,1.9l0.6,1.3h1.4l1.9-0.2l2.5-2.4l1.7-0.6l2.5,1.4l3.9,1.6l1.6-0.8l1.7-1.6L206.8,345.9L206.8,345.9z
	 M183.4,352.9l1.1-1.1l1.6-2.1l0.4-2.4l-0.2-2.4l-1.3-1.4h-1.4l-1.9,1.9l-1.4,1.9h-1.5l-0.5,1.6l0.9,1.6l1.1,1.1l0.5,2.1l1.1,0.5
	L183.4,352.9L183.4,352.9z M220.2,280.3l16.7-13.8l9.1,3.7l1.5,11l0.9,2.3l4.6,9.6l1.3,1l1.4,0.6l0.1,0.6l-0.4,0.9l-1.6,1.9
	l-0.6,0.2l-1-1l-1.3-0.1l-0.9,1.1l-0.7,1.5l-0.5,2.9l-0.5,1.7l-1.2,2.3l-1.9,2.3l-3.8,2l-0.3-0.7l-0.3-2.4l-3.1-4.6l-2.5-1.4
	l-1.1-2.2L220.2,280.3z"/>
<path id="CHE3423" class="st0" d="M317.2,128.5l-9.3-4.7l-0.6-0.5l-0.6-1l9.2,0.4l2.2-0.8L317.2,128.5L317.2,128.5z M317.2,128.5
	l12.4-0.5l3.3-2.2l0.1-1.2l-0.2-1l-2-3.6l-1-0.8l-1.5,0.1l-1.2-0.5l-0.7-0.9l-1.2-1.8l1.2-1.6l0.8-3l-0.4-1.9l-1.8-2.3l-1.1-2
	l-0.1-2.1l2.6-0.7l3.4,1.2l1,0.6l0.3,7.3l0.8,2.6l0.8,1.5l3.6,0.1l14-2.9l-0.1-8.7l-1-2.2l-1.8-0.4l-4.2-1.6l-3.6,0.4l-0.1-0.7
	l-1.6-2.2l-0.5-1.3l0.3-1.1l1.3-0.7l2.3,0.5l1.7-0.6l1-1.8l-0.1-3.3h-0.7l-3.7-2.8l-0.5-0.2l8.4-7l1.3,0.7l6.7,4.8l2,0.5l2.2,0.3
	l0.6,1.2l2.2,1.9l3.9-2.6l1.2-0.4l1.1,0.5l1.3,1.5l1.7,1.4l2.2,1.3l1.5-1.7v-5.5l3.2,1.8l4.9,0.6l9.7-2l0.7,0.5l8.1,4l1,0.2l1.3,1.1
	l-0.1,1.6l0.1,1.9l0.5,1.9l0.6,1.1l3-0.4l5.6-5.1l0.5-0.9l0.3-3.1l0.3-1.4l0.6-0.5l1.3-0.2l3.2,0.9l1.7,2.5l1.3,0.9l1,2.3l6.5,9.9
	l0.8,2.5l2,1.5l6.8,0.7v4.6l0.4,2l2.8,1.9l-1.1,3.5l-1.1,2.1l0.4,2l1.4,2.4l0.1,1.6l-1.3,1.7l-4.1,3l-4.7,1.3l-2.9,0.3l-1.7-0.2
	l-1.1,0.4l-1.2,3.5l-0.8,1.5l-0.6,0.8l-5.4,2.5l-1.6,1.2l-4.6,1.3l-2.8,1.9l-3.4,5.9l-0.8,2.3l-4.7-1.4l-1.3-0.6l-1.5-1l-1.7-2
	l-2.1-1.6l-4.7-2.5l-5.5-1.3l-7.8,0.7l-1.2-0.5l-0.7-0.8l-1.2-4.2l-0.4-1.9l-0.2-2.4l0.2-2.7l7.3-2.2l1-0.5l1.9-2.3l0.6-2.7l0.1-4.2
	l0.7-1.8l2.4-1.9l0.7-1l1-2l1-1.4l-0.7-1.2l-0.7-0.8l-9.5-5.9l-1.7-0.1l-0.1,1.3l-0.5,0.8l-0.9,0.7l-6-0.7l-1.8,0.4l-1.4,3.7
	l3.4,1.7l0.7,1.9l-2.5,7.3l-2.8,2.8l-5,0.4l-1.2,0.5l-0.1,1.8l0.2,1.3l0.5,1.1l-0.3,0.7l-1.1,0.3l-6.4,0.5l-0.8,0.4l-0.9,0.7
	l-0.6,1.7l-1.8,2.9l-1.6,1l-2.1,0.6l-3.6-0.6l-3.8-2.1l-1.6-0.3l-3,0.7l-3.4,5.3h-2.4l-1.5-1.1l-0.3-2.6l-1.5-2.5L317.2,128.5
	L317.2,128.5z"/>
<path id="CHE3424" class="st0" d="M355.2,159.5l-1.6,5l-1.3,1.6l-2.1,1.5l-7.2,2.3l-1.6,0.9l-1.9,1.6l-2.5,2.7l-2,1.8l-5,2l-4.7,4
	l0.6,2.3l-16.5,7.5l-0.6,1.5l1.1,2.7l0.8,1.2l0.6,1.9l0.7,0.9l1.1,0.6l2.4,0.9l1.1,0.8l0.5,1l1.5,3.8l0.2,0.9l-0.3,1.4l0.5,0.4
	l1.4,0.3l2.3-0.4l1.8-0.9l1.7-2.2l2-1.9l1.2-1.4l1.8-0.4l1.7-1.4l1.1-0.7l3.5-0.7l0.5,4.2l0.3,1.6l1.7,1.7l0.8,1.1l-0.8,1.8
	l-2.4,1.6l-1.5,0.4l-1.3-0.4l-1.1-0.6h-0.8l-2.4,2l-1.4,2.1l-0.4,1.6l0.5,3.1l-0.2,1.6l-1.7,1l-3.9,1l-1,0.1l-2.3-0.6l-1.4,0.1
	l-2.5-0.5l-0.7,0.3l-0.4,1.4l0.3,1l1.3,2.5l1.4,2.8l1.2,1.1l0.8,0.3l6.4-1.8l1.8-0.3l0.5,0.1l0.2,3l1.9,4.3l4.1-1.3l1.4-0.9l0.8-1.1
	l0.2-1.9l-0.4-1.5l-1.1-2.9v-1.4l0.7-0.9l5.9-2.8l3.2-2.9l5.8-8.5l3.1-3l2.5-0.4l5.9,4.1l10.2,0.4l1.3-0.3l2.3-2.3l1.4-2.1l2.1-1.1
	l0.7-0.7l0.9-2.1l-0.4-1.9l-1.1-2.6l-3.1-5.7l-3.6-5.3l-4-1.8l-4.2-5l-0.1-2.5l-1-3.6l-3.2-3.8l14.8-1.9l8-3.6l7.5,9.1l2.6,1.6
	l6.1,0.3l4.3-1.6l2.1,0.8l7.6-1.9l0.6,6.4l0.2,0.7l2.9,5l5.7,13.2l1,1.9l1.2,2.9l0.7,2.6v3.3l1.9,9.8l-1.8,3.2l-0.6,2.2l-0.5,3.4
	v6.4l-0.7,6.6v2.1l0.6,2.2l1.9,2.6l1.5,2.7l1.1,1.4l0.8,5.2l5.9,0.6l1.5,1.3l4.8,1l-1.5,7.5l-0.6,1.4l-0.7,2.9l-1.3,2l-0.4,0.8
	l-0.5,3.1l-0.4,0.6l-1.2,0.9l-0.8,1.9l-0.7,1.2l-1.1,0.8l-1.1,0.2l-1.8-0.5l-0.5,0.2l-1.7,1l-1.9,0.8l-0.8,0.6l-0.4,1.4v1.9l0.5,3.9
	l-0.2,2.4l-0.7,1.9l-2.1,2l-0.4,1.6l2,6.4l0.1,2.5l3.5,3.8l14.6,11.7l2.6,4.1l2.9,3.5l1.4,0.4l1.7-0.3l3.3-1.9l3.9-1.5l4.5,0.3
	l7,0.3l4.2,1l7.5,4.9l2.3,1.6l2.6,1.2l1.7,0.4l1.1-0.2l5.2-2l2.6-0.5l11.6,1.4l4.3,1.3l2.1,0.1l2.4-0.9l7.5-5.2l9.6-3.8l5.2,4.6
	l2.1,1.8l1.5-0.8l3-0.6h1.1l4.4,1.5l-1.9,4.5L550,344l0.2,3l0.7,1.9l1.2,2.6l0.4,1.3v1.8l0.6,2.6v1.4l-0.6,3.4l-0.7,1.2l-1.7,0.4
	l-1.7-0.1l-3.7-1l-1.4,0.2l-1.1,1.3l0.1,3.8l1,2.7l0.7,4.1l-2.4,0.4l-4.3,5.3L536,383l-0.9,2.6l-1.3,5l-1.1,7.1l-1,1.8l-1.1,1.6
	l-2.3,2.4l-3.5,2.2l-2.3,2l-10.2,5.8l-5.3,1.9l-11.5,2.3l-1.3,0.1l-1.1-0.4l-0.8-0.5l-0.2-2.5l-0.3-0.2l-6-0.6l-5.3-2.4l-1.9-1.6
	l-18.8-3.6l-5.7,0.3l-7.2,4.5l-1.2,1.1v0.5l1.4,2.7l0.3,2.1l-0.8,1.6l-0.7,0.9l-6.1,4l-8.1,5.7l-4.7,1.8l-2,0.4h-3.3l-2.6-0.8
	l-27,19.7l-2.6,0.2l-14.6-7.1l-4.6-0.6l-1.7,1.2l-0.7,2.1l-0.4,0.7l-2.4,1.9l-0.7,0.8l-7.5,2.2l-5,3.2l1.3,1.7l2.8,1.7l-3.2,2.9
	l-7.9,3.3l-1.9,0.5l-1.4,0.1l-1.9-0.7l-5.3-1.6l-9.6,0.1l-3.2,0.7l-1,0.8l-2.1,2.5l-5.1,3.6l-8.3,2.8l-1.3-0.7l-1.3-0.4l-0.3-0.8
	l0.3-2.6l-0.2-2.2l-0.6-0.7h-1.3l-7.2,2.4l-1,0.9l-0.2,2.1l-1.7,2.9l-7.7,4.5l-0.3-6.4l0.5-1.2l1.1-1.8l-0.1-1.1l-0.6-0.9l-1.3-0.6
	l-3.2-3.3l-2.2-1.7l2.5-7.9v-1.7l-0.5-2.6l-0.7-1.9l-0.7-2.8l0.7-1.1l3.6-2.2l2-2.7l0.8-2.2l0.1-2l-0.5-4.3l0.2-1.2l0.6-1.3l1.1-1.5
	l1.7-3.2l0.7-2.6l0.2-2.6V416l0.1-2.3l-0.1-1.3l-0.3-1l-1.2-1.9l-1-2.8l9-7.9l3.9-0.4l2.1-0.1l1-0.4l1-1.3l0.5-2.8l0.4-4.5l-0.8-9.5
	l2.4-2.8l1-0.7l3.2,0.7l1.9,0.7l1.7,0.1l1.9-2l0.8-1.2l-0.4-1.2l0.9-7.9l0.5-2.2l-0.3-0.6l-2.4-1.5l-1.1-1.3h-1.7l-0.8-0.3l-0.7-0.6
	l-0.9-1.7l-1.9-1.5l-1.1-0.7l-3.8-1.5l-0.7-0.6l-0.5-1.1l-0.9-2.4l-0.5-4.8l0.2-8.4l0.5-5.1l2.6-10.7l0.1-4.8l-0.6-3.3l-0.7-1.5
	l0.2-1l1.7-1.4l1.7,0.6l-0.1,0.8l1.1,0.9h1.3l1.3-0.7l2.1-1.7l1-2.7l-1-7.3l-17.7-1.5l-11.4-3.3l-2.3,0.4h-1l-0.8-0.4l-0.1-0.8
	l1.6-3.3l0.5-1.9l0.3-1.6l-0.6-3.4l-0.1-2.1l-0.2-1.4l-0.6-1.3l-1.2-2.1l-0.1-0.9l0.5-0.5l2.8-1.4l1.2-1l2.3-2.9l0.5-1.2l-1.4-2.1
	l-0.3-2.1l-0.8-1.2l-2.1-0.6l-5.1,2.2l-11,4.5l-17.8,1.7l-9.1-3.7l2.1-5.8l1-2.3l1.2-5.4l0.7-1.5l0.8-1l4.9-2.1l2.3-1.9l2.1-1.1
	l0.6-1.9v-1.7l-0.4-2.6l-0.6-1.9l0.2-0.9l1.2-1v-0.5l-0.8-1.4l-1.7-1.5l-6.5-3.7l-3-0.8l-0.2-4.4l-1.5,0.4L205.6,234H205l-0.1-2
	l0.6-2.4l1.1-1.1l0.4-1l0.9-4.1l0.2-2.2l-0.7-3l-1.4-2.9l-2.5-3.3l-4.5-2.5l6,0.4l2.1,1.7l0.7,0.9l1,0.5l1.7-0.5l2.4-1.4l8-6.2
	l2.5-1.4l5.1,0.2l2.3-0.5l2.4-2.4l2-1.6l3.5-1.8l2.4-2.4l1.6-2.1l1-2.2l1.6-2.4l0.6-1.3l0.4-1.8l0.9-0.9l1.4-0.3l6.9,0.7l10.9-2.1
	l1.2-1.1l-0.5-1.4l-0.4-2.3l0.1-1.8l0.4-1l2.2-1.6l0.9-1l0.4-1.2l-0.4-1.5l0.6-3.3l18.6,3.8l4.2-0.3l3.4-0.7l5.7-2l2.5-1.6l3.7-3.1
	l1.8-0.8l1.2-1.2l0.9-1.1l0.4-1.4l0.5-0.6l0.6,0.2l1.3,2.8l2.1,0.9l24.2,2L355.2,159.5L355.2,159.5z M284,284.4l0.8-1l-0.1-1.2
	l-3.3,1l0.8,1.6L284,284.4L284,284.4z M355.8,158.7l-4.1-0.5l-0.8-0.5l-0.2-1.1l0.5-2.1l3.6-3.4l1.7,0.4l1.2,1.6l0.4,1.4l0.2,1.4
	l-0.3,1.7l-0.3,1L355.8,158.7L355.8,158.7z"/>
<path id="CHE3425" class="st0" d="M375.3,83.1v5.5l-1.5,1.7l-2.2-1.3l-1.7-1.4l-1.3-1.5l-1.1-0.5l-1.2,0.4l-3.9,2.6l-2.2-1.9
	l-0.6-1.2l-2.2-0.3l-2-0.5l-6.7-4.8l-1.3-0.7l1.2-1l5.3-2.9l7.9-3l11.3-3.4l5-0.6l-2.9,8.2l-2.3,2.3h-5.8L375.3,83.1L375.3,83.1z"/>
<path id="CHE3426" class="st0" d="M317.2,128.5l0.9-6.6l4-1.6l3.1-4.2l1.2,1.8l0.7,0.9l1.2,0.5l1.5-0.1l1,0.8l2,3.6l0.2,1l-0.1,1.2
	l-3.3,2.2L317.2,128.5L317.2,128.5z M443.4,113.9l3.5,0.6l1.9,2.3l0.4,1.1l-0.2,1.7l0.3,3l1.4,0.9l1,4.5l1,1.5l1.9,1.9l2.2,1.2
	l2.8,0.8l0.2,6.2l-1.6,3.7l-2.5,3.8l-3,7.1l-1.8,1.2l-1.6,0.8l-14.1-2.1l-1.9-0.8l-1.6-0.4l-9.8,9.1l-0.7,0.8l-5.3,10.7l-1.7,2.1
	l-7.6,1.9l-2.1-0.8l-4.3,1.6l-6.1-0.3l-2.6-1.6l-7.5-9.1l-8,3.6l-14.8,1.9l3.2,3.8l1,3.6l0.1,2.5l4.2,5l4,1.8l3.6,5.3l3.1,5.7
	l1.1,2.6l0.4,1.9l-0.9,2.1l-0.7,0.7l-2.1,1.1l-1.4,2.1l-2.3,2.3l-1.3,0.3l-10.2-0.4l-5.9-4.1l-2.5,0.4l-3.1,3l-5.8,8.5l-3.2,2.9
	l-5.9,2.8l-0.7,0.9v1.4l1.1,2.9l0.4,1.5l-0.2,1.9l-0.8,1.1l-1.4,0.9l-4.1,1.3l-1.9-4.3l-0.2-3l-0.5-0.1l-1.8,0.3l-6.4,1.8l-0.8-0.3
	l-1.2-1.1l-1.4-2.8l-1.3-2.5l-0.3-1l0.4-1.4l0.7-0.3l2.5,0.5l1.4-0.1l2.3,0.6l1-0.1l3.9-1l1.7-1l0.2-1.6l-0.5-3.1l0.4-1.6l1.4-2.1
	l2.4-2h0.8l1.1,0.6l1.3,0.4l1.5-0.4l2.4-1.6l0.8-1.8l-0.8-1.1l-1.7-1.7l-0.3-1.6l-0.5-4.2l-3.5,0.7l-1.1,0.7l-1.7,1.4l-1.8,0.4
	l-1.2,1.4l-2,1.9l-1.7,2.2l-1.8,0.9l-2.3,0.4l-1.4-0.3l-0.5-0.4l0.3-1.4l-0.2-0.9l-1.5-3.8l-0.5-1l-1.1-0.8l-2.4-0.9l-1.1-0.6
	l-0.7-0.9l-0.6-1.9l-0.8-1.2l-1.1-2.7l0.6-1.5l16.5-7.5l-0.6-2.3l4.7-4l5-2l2-1.8l2.5-2.7l1.9-1.6l1.6-0.9l7.2-2.3l2.1-1.5l1.3-1.6
	l1.6-5l0.6-0.8l1.9-0.1l0.3-1l0.3-1.7l-0.2-1.4l-0.4-1.4l-1.2-1.6l-1.7-0.4l-3.5-3l-2.1-3.5l-1.9-1.3l-1.8-0.7l-1.6,0.1l-4.3-0.4
	l-10.7-2.8l3.4-5.3l3-0.7l1.6,0.3l3.8,2.1l3.6,0.6l2.1-0.6l1.6-1l1.8-2.9l0.6-1.7l0.9-0.7l0.8-0.4l6.4-0.5l1.1-0.3l0.3-0.7l-0.5-1.1
	l-0.2-1.3l0.1-1.8l1.2-0.5l5-0.4l2.8-2.8l2.5-7.3l-0.7-1.9l-3.4-1.7l1.4-3.7l1.8-0.4l6,0.7l0.9-0.7l0.5-0.8l0.1-1.3l1.7,0.1l9.5,5.9
	l0.7,0.8l0.7,1.2l-1,1.4l-1,2l-0.7,1l-2.4,1.9l-0.7,1.8l-0.1,4.2l-0.6,2.7l-1.9,2.3l-1,0.5l-7.3,2.2l-0.2,2.7l0.2,2.4l0.4,1.9
	l1.2,4.2l0.7,0.8l1.2,0.5l7.8-0.7l5.5,1.3l4.7,2.5l2.1,1.6l1.7,2l1.5,1l1.3,0.6l4.7,1.4l0.8-2.3l3.4-5.9l2.8-1.9l4.6-1.3l1.6-1.2
	l5.4-2.5l0.6-0.8l0.8-1.5l1.2-3.5l1.1-0.4l1.7,0.2l2.9-0.3l4.7-1.3l4.1-3l1.3-1.7l-0.1-1.6l-1.4-2.4l-0.4-2l1.1-2.1L443.4,113.9
	L443.4,113.9z M330.8,104.3l1.9,1.2l2.9,0.4l3.4-3l0.7-1.5l-0.1-1l3.6-0.4l4.2,1.6l1.8,0.4l1,2.2l0.1,8.7l-14,2.9l-3.6-0.1l-0.8-1.5
	l-0.8-2.6L330.8,104.3L330.8,104.3z"/>
<path id="CHE3427" class="st0" d="M557.9,310l2.4-0.3l0.7,0.6l1.9,0.4l0.6,0.6l0.5,1.3l-0.9,1.7l-1.7,1.9l-1.2,2.2l-1.2,4.2
	l-0.6,2.3l-0.9,1.9l0.5,1.3l1.2,1l0.7,3.5l-0.2,1.6l-0.4,1.5l-7.2,2.2l-4.4-1.5h-1.1l-3,0.6l-1.5,0.8L540,336l6.3-2l0.5-0.6
	l-0.4-1.1l-0.6-0.6l-3.5-1.5l-1.5-1.6l-0.9-1.5l-1.2-1.6l-0.3-1.9l-0.3-0.7l-2.2-1.6v-3l-1.2-4.1l-0.4-1.6l-0.4-3.8l-0.7-1.5
	l-0.1-1.1l0.8-1.6l0.9-0.6l0.8,0.2l1.2,1.7l-0.1,2.2l-0.1,1l1.2-0.1l4.2-2.8l1-0.1l1.1,0.5l0.8,1.9l2.3,1.9L557.9,310L557.9,310z
	 M534.8,331.4l-9.6,3.8l-7.5,5.2l-2.4,0.9l-2.1-0.1l-4.3-1.3l-11.6-1.4l-2.6,0.5l-5.2,2l-1.1,0.2l-1.7-0.4l-2.6-1.2l-2.3-1.6
	l-7.5-4.9l-4.2-1l-7-0.3l3.6-5.8l-1.2-5l-1.1-2.4l-0.7-3.3l0.5-1.7l3.8-8.8l0.8-4.7l0.8-2.3l0.8-1.6l1.6-2.4l0.9-0.7l1.1-0.5
	l1.9,0.1l0.8,1.1l0.5,0.4l0.9-0.3l5.3-6.8l4.5-4.1l0.3-1.6l-0.2-1.7l-0.9-2.8l0.5-0.9l3.7-2.4l12.3-1.2l3.8-0.9l2.4-1.3l1-0.4h0.9
	l8.4,2.6l0.8,0.5l0.5,0.9l-0.7,3l-0.6,1.5l-1.3,2.1l-0.6,1.1l-0.3,2.2l1.1,1.5l1.4,1.2l5.2,2.5l1.1,1l0.4,1.3v8.7l-0.3,1.5l-1.1,3.7
	l-0.2,6.5l-0.4,3.1l0.6,7.6l4.5,6.3L534.8,331.4L534.8,331.4z"/>
<path id="CHE3473" class="st0" d="M747.9,180.8l-1.1-3.4l-0.4-1.4l-0.8-2.6l-1.1-2l-1.7-2.3l-0.8-2l-0.4-2.8l0.6-7.7l0.7-1.9
	l3.3-2.6l1.8-2.2l1.2-2.3l1.2-3.1l0.2-4v-2.4l1.4-1.4l23.5,11.1l7.1,0.2l-3.8,18.6l-4.3,8.2l-3.1,3.4l-3.2,2.3l-4.3,2.2l-6.2,2.4
	h-1.5l-1.9-0.4l-1.6-1l-1.9-0.8L747.9,180.8z M794.1,133.7l-3.1-1.6l-2.8,0.4l-6,2.4l0.7-3.7l2.3-1.3l2.6-1.3l0.5-0.6l-0.3-0.7
	l-1-0.9l0.7-2.2l1.4-1l1.4-1.3l0.8-0.2l1.4,1.2l1.1,1.1l0.9,1.2l0.2,1.2l-0.1,1.5l-1.1,1.2L794.1,133.7L794.1,133.7z M809.2,116.5
	l-5.1,5.1l-0.5,0.8l-0.4,2.4l-7-3.5l-0.3-0.7v-1.3l4.1,0.2l3.4-0.6L809.2,116.5z"/>
<polygon class="st0" points="202.8,392.3 202.8,392.3 202.8,392.3 202.8,392.3 "/>
<polygon class="st0" points="760,112.8 760,112.8 760,112.8 760,112.8 "/>
<polygon class="st0" points="859.2,344.4 859.2,344.4 859.2,344.4 859.2,344.4 "/>
</svg>
