<?xml version="1.0" encoding="utf-8"?>
<!-- Generator: Adobe Illustrator 23.0.1, SVG Export Plug-In . SVG Version: 6.00 Build 0)  -->
<svg version="1.1" id="Слой_1" xmlns="http://www.w3.org/2000/svg" xmlns:xlink="http://www.w3.org/1999/xlink" x="0px" y="0px"
	 viewBox="0 0 131 131" style="enable-background:new 0 0 131 131;" xml:space="preserve">
<g>
	<path d="M65.5,131.5C29.1,131.5,0,102.2,0,65.5c0-35.7,29.5-65,65.4-65c36.3,0,65.6,29.4,65.5,66C131,102.1,101.4,131.4,65.5,131.5
		z M12.9,65.8c0.1,29.5,23.6,52.9,53,52.8c28.5-0.1,52.2-23.9,52.2-52.2c0-29.5-23.6-53.1-52.8-53.1C36.5,13.4,12.8,37.2,12.9,65.8z
		"/>
	<path d="M59.4,59.7c4.2,0,8.1,0,12.3,0c0,12.9,0,25.6,0,38.6c-4.1,0-8,0-12.3,0C59.4,85.6,59.4,72.9,59.4,59.7z"/>
	<path d="M71.6,45.9c-4.2,0-8.2,0-12.3,0c0-4.2,0-8.1,0-12.2c4.1,0,8,0,12.3,0C71.6,37.6,71.6,41.5,71.6,45.9z"/>
</g>
</svg>
