<svg width="31" height="30" viewBox="0 0 31 30" fill="none" xmlns="http://www.w3.org/2000/svg">
<rect width="30" height="30" fill="#363533"/>
<path d="M8.116 22H11.194V11.956H8.116V22ZM9.664 10.912C10.744 10.912 11.482 10.174 11.482 9.256C11.482 8.32 10.744 7.582 9.664 7.582C8.566 7.582 7.828 8.32 7.828 9.256C7.828 10.174 8.566 10.912 9.664 10.912ZM20.3546 22H23.4146V16.132C23.4146 13.432 21.8666 11.848 19.5446 11.848C18.1946 11.848 17.1146 12.442 16.5026 13.288V11.956H13.4246V22H16.5026V16.546C16.5026 15.178 17.2586 14.422 18.4286 14.422C19.5986 14.422 20.3546 15.178 20.3546 16.546V22Z" fill="white"/>
</svg>
