<?xml version="1.0" encoding="utf-8"?>
<!-- Generator: Adobe Illustrator 23.0.1, SVG Export Plug-In . SVG Version: 6.00 Build 0)  -->
<svg version="1.1" id="Слой_1" xmlns="http://www.w3.org/2000/svg" xmlns:xlink="http://www.w3.org/1999/xlink" x="0px" y="0px"
	 viewBox="0 0 182.8 50.3" style="enable-background:new 0 0 182.8 50.3;" xml:space="preserve">
<style type="text/css">
	.st0{fill-rule:evenodd;clip-rule:evenodd;fill:#E10909;}
</style>
<path class="st0" d="M30.6,3.4v3.4H37h6.3v6.4v6.4h3.4h3.4l0-9.8l0-9.8l-9.7,0l-9.7,0V3.4z M0.2,3.4L0,3.4l0,8.9c0,4.9,0,9.3,0,9.7
	l0,0.8h3.4h3.4l0-6.3l0-6.3l9.5,0l9.5,0l0-3.3c0-2.6,0-3.3-0.1-3.4C25.6,3.4,0.6,3.3,0.2,3.4z M92.8,4c-4.3,0.5-7.6,2.7-8.5,5.8
	c-0.2,0.8-0.2,3.4,0,4.2c1,3.4,3.8,5.2,9.6,5.9c2.9,0.4,3.9,0.6,5.1,1.2c2.6,1.3,2.5,4.5,0,6c-1.8,1-5.4,1.2-7.8,0.3
	c-1.8-0.6-3.1-1.8-3.8-3.3c-0.2-0.5,0-0.5-2.6,0.8c-1,0.5-1.8,1-1.8,1.1c0,1.1,2.5,4,4.5,5.1c3.5,1.9,10.1,2,13.9,0.2
	c3.2-1.5,4.8-4.1,4.7-7.7c-0.2-5-3.2-7.3-10.7-8.3c-4.7-0.6-6.2-1.5-6.1-3.7c0.3-4,8.6-4.6,11.6-0.8c0.4,0.5,0.1,0.6,2.4-0.6
	c2.2-1.2,2.2-1.1,1.5-2.1C102.5,5.1,97.9,3.5,92.8,4z M142.1,4.9c-1.8,0.7-2.3,3.2-0.9,4.6c2.2,2.2,6-0.5,4.5-3.3
	C145.1,5,143.4,4.4,142.1,4.9z M64.5,5c0,0.1-0.3,1.3-0.7,2.7c-0.3,1.4-0.7,2.7-0.7,2.8c-0.1,0.2-0.1,0.2-2.2,0.2l-2.1,0l0,2.2
	c0,2.6-0.2,2.3,1.6,2.3c0.8,0,1.5,0,1.5,0.1c0,0-0.3,1.6-0.8,3.5l-0.8,3.4l-2,0c-1.5,0-2,0.1-2.1,0.1c-0.1,0.1-0.1,4.1,0,4.3
	c0,0.1,0.3,0.1,1.5,0.1c0.8,0,1.4,0,1.4,0.1c0,0-0.2,0.7-0.4,1.5c-0.7,2.7-0.8,3.4-0.8,3.5c0.1,0.1,5,0.1,5.1,0
	c0-0.1,0.3-1.2,0.7-2.6l0.6-2.5l2.1,0c1.9,0,2.1,0,2.1,0.1c0,0.1-0.2,1.1-0.5,2.2c-0.3,1.1-0.5,2.2-0.6,2.5l-0.1,0.4h2.5h2.5
	l0.1-0.2c0-0.1,0.3-1.3,0.7-2.6l0.6-2.4l2,0l2,0l0-2.3l0-2.3l-1.5,0l-1.5,0l0-0.3c0-0.2,0.3-1.1,0.5-2.1c0.3-1,0.6-2.3,0.8-2.9
	c0.2-0.6,0.3-1.2,0.4-1.4l0.1-0.3h1.9h1.9v-2.2v-2.2h-1.3h-1.3l0.1-0.4c0-0.2,0.1-0.6,0.2-0.7C78.2,8.8,79,5,79,5
	c0-0.1-5.1-0.1-5.1-0.1c0,0.1-1.2,4.8-1.3,5.3l-0.1,0.5h-2c-2.3,0-2.2,0.1-1.9-0.9c0.1-0.4,0.4-1.6,0.7-2.8c0.3-1.1,0.5-2.1,0.5-2.1
	C69.7,4.8,64.6,4.9,64.5,5z M154.9,12.4c-4.6,0.5-7.3,3.6-6.4,7.3c0.7,2.6,3.4,4.2,7.6,4.5c3.3,0.2,4.5,1.1,3.7,2.8
	c-1.1,2.3-6.4,1.8-9.4-0.8c-0.4-0.3-0.3-0.3-1,0.6c-0.3,0.4-0.8,1.2-1.1,1.6c-0.7,1-0.7,0.9,0,1.5c2.1,2,4.4,2.8,8.1,2.8
	c4.4,0,7.1-1.5,8.1-4.4c0.5-1.3,0.2-3.8-0.4-4.7c-0.1-0.2-0.2-0.4-0.2-0.4c0,0-0.2-0.3-0.4-0.5c-1.5-1.4-2.9-1.9-6.5-2.3
	c-2.7-0.3-3.5-0.7-3.7-1.7c-0.6-2.4,4.9-3.1,7.7-0.9c0.5,0.4,0.4,0.4,1.3-0.7c0.4-0.5,0.9-1.1,1.2-1.5l0.5-0.6l-0.4-0.4
	C161.5,12.8,158.3,12,154.9,12.4z M172.9,12.4c-3.9,0.5-6.5,2.8-6.5,5.9c0,3.4,2.9,5.6,7.7,5.9c3.4,0.2,4.7,1.3,3.6,2.9
	c-1.3,2-6.4,1.6-9.1-0.8c-0.6-0.5-0.5-0.6-1.2,0.4c-1.9,2.7-1.8,2.5-1.1,3.1c2.2,2,4.4,2.8,8,2.8c5.7,0,8.9-2.7,8.4-7.1
	c-0.4-3.2-2.6-4.8-7.6-5.2c-3.3-0.3-4.5-1.1-4-2.6c0.6-1.8,5.4-1.8,7.6,0c0.2,0.2,0.4,0.3,0.4,0.3c0.1,0,2.3-2.7,2.5-2.9
	c0.1-0.2,0-0.4-1.1-1.1C178.7,12.6,175.9,12.1,172.9,12.4z M106.3,12.8c-0.1,0-0.2,0.1-0.2,0.1c0,0.1,1.2,3.4,1.2,3.5
	c0,0,0.1,0.2,0.1,0.4c0.1,0.3,0.5,1.4,1.4,3.9c0.3,0.8,0.6,1.6,0.6,1.8c0.1,0.2,0.4,1.1,0.7,2c0.3,0.9,0.8,2.2,1,2.9
	c0.6,1.8,1.4,4.1,1.5,4.4l0.1,0.3h2.7h2.7l0.1-0.3c0.1-0.1,0.3-0.7,0.5-1.4c0.2-0.6,0.6-1.6,0.8-2.3c0.5-1.5,0.7-1.9,1.1-3.8
	c0.2-0.8,0.4-1.7,0.5-1.9c0.1-0.2,0.2-0.8,0.4-1.4c0.3-1.1,0.3-1.1,0.8,0.7c0.2,0.8,0.5,2,0.7,2.7c0.4,1.6,0.6,2,1.3,4.2
	c0.4,1,0.7,2,0.7,2.2c0.1,0.2,0.2,0.5,0.3,0.7l0.2,0.4h2.7c3.1,0,2.7,0.1,3.1-0.9c0.1-0.3,0.5-1.5,0.9-2.6c1-3,2.2-6.3,2.7-7.9
	c0.6-1.8,1.7-4.9,2.2-6.2c0.2-0.6,0.4-1.2,0.4-1.3l0-0.3l-2.5,0c-2.8,0-2.6-0.1-2.9,0.9c-0.1,0.4-0.3,1-0.4,1.4
	c-0.1,0.4-0.2,0.8-0.3,0.9c0,0.1-0.1,0.3-0.1,0.4c0,0.1-0.2,0.5-0.3,0.9c-0.1,0.4-0.3,0.9-0.3,1.1c-0.1,0.2-0.3,1-0.5,1.7
	c-0.2,0.7-0.4,1.4-0.5,1.7c-0.1,0.2-0.4,1.2-0.6,2.1c-0.6,2.1-0.8,2.6-0.8,2.8c-0.1,0.5-0.3,0.1-0.8-1.7c-0.3-1-0.7-2.3-0.8-2.7
	c-0.3-0.9-1-3.3-1.7-5.7c-0.4-1.4-0.6-2-0.8-2.6c-0.1-0.2-0.2-0.5-0.2-0.7c0-0.2-0.1-0.3-0.2-0.4c-0.2-0.1-4,0-4.1,0.1
	c0,0-0.3,1-0.7,2.2c-0.7,2.3-1.2,4.2-1.5,5.2c-0.1,0.4-0.2,0.8-0.3,1.1c-0.1,0.6-0.7,2.5-1,3.5c-0.1,0.4-0.3,1-0.4,1.4
	c-0.2,0.6-0.3,0.7-0.4,0.3c0-0.1-0.3-1-0.6-2c-0.3-0.9-0.6-1.9-0.6-2.1c-0.1-0.2-0.3-1-0.5-1.7c-0.2-0.7-0.4-1.4-0.5-1.7
	c-0.1-0.2-0.3-1-0.5-1.7c-0.2-0.7-0.4-1.4-0.5-1.7c-0.4-1.5-0.9-2.9-0.9-3C111.3,12.8,106.6,12.8,106.3,12.8z M140.9,22.3l0,9.6h2.3
	h2.3v-9.5v-9.5l-2.3,0l-2.3,0L140.9,22.3z M20.4,14.7c0,0-0.1,2.1-0.1,4.6v4.5l-4.5,0l-4.5,0v2.8v2.8l4.5,0l4.5,0v4.8
	c0,3.7,0,4.8,0.1,4.8c0.2,0.1,5.9,0.1,6,0c0.1-0.1,0.1-1.2,0.1-4.8l0-4.7l4.5,0l4.5,0v-2.8v-2.8l-4.5,0l-4.5,0l0-4.5l0-4.5l-3,0
	C21.8,14.6,20.4,14.6,20.4,14.7z M71.7,14.9c0,0.1-0.2,0.9-0.4,1.9c-0.3,1-0.7,2.6-0.9,3.7l-0.5,1.9h-2.4h-2.4v-0.2
	c0-0.1,0.1-0.8,0.3-1.5c0.2-0.7,0.6-2.3,0.9-3.5c0.3-1.2,0.6-2.3,0.6-2.3c0.1-0.1,0.7-0.1,2.4-0.1C71.1,14.8,71.6,14.8,71.7,14.9z
	 M40,24.5c0,0.1-0.1,4.3-0.1,9.5l0,9.4l-6.3,0l-6.3,0v3.4v3.4h9.7h9.7V37.4V24.5l-3.4,0C40.8,24.4,40.1,24.4,40,24.5z M0.1,34
	c0,0-0.1,3.7-0.1,8.2v8.1l8.1,0l8.1,0l0-7.9c0-4.4,0-8,0-8.1l0-0.2h-8C3.8,34,0.1,34,0.1,34z M60.5,37.2c-0.1,0.3-0.3,0.7-0.4,0.9
	c-0.1,0.2-0.2,0.6-0.3,0.8c-0.1,0.2-0.4,0.8-0.6,1.3c-0.2,0.5-0.5,1.1-0.6,1.4c-0.1,0.3-0.6,1.4-1.1,2.4c-0.5,1-0.9,2.1-1,2.3
	c-0.3,0.6-0.3,0.6,0.8,0.6h1l0.5-1l0.5-1h2.6c2,0,2.6,0,2.7,0.1c0,0.1,0.2,0.5,0.5,0.9l0.4,0.8l1,0c1.1,0,1.1,0,0.8-0.6
	c-0.1-0.2-0.5-1.2-0.9-2.1c-1-2.3-1-2.3-1.6-3.5c-0.3-0.6-0.6-1.4-0.8-1.8c-0.2-0.4-0.5-1.1-0.7-1.5l-0.3-0.7h-1.1h-1.1L60.5,37.2z
	 M142.5,36.7c0,0.1,2.2,5.3,2.7,6.5c0.1,0.3,0.5,1.3,0.9,2.1l0.6,1.5l1,0l1,0l0.5-1.2c0.3-0.6,0.9-2.1,1.4-3.3
	c1.9-4.6,2.3-5.6,2.3-5.6c0,0-0.5-0.1-1.1,0l-1.1,0l-0.5,1.3c-0.3,0.7-0.8,1.9-1,2.7c-1.2,3.1-1.4,3.6-1.5,3.6c0,0-0.4-0.8-0.8-1.8
	c-1.8-4.7-2.1-5.5-2.2-5.6C144.6,36.6,142.5,36.5,142.5,36.7z M161.3,41.7v5.1h0.9c0.7,0,0.9,0,0.9-0.1c0-0.1,0-2.3,0-5
	c0-2.7,0-4.9,0-5c0-0.1-0.2-0.1-0.9-0.1h-0.9V41.7z M164.4,36.7c-0.1,0.1-0.1,9.8,0,10c0.1,0.2,1.6,0.2,1.7,0c0-0.1,0.1-2.3,0.1-4.9
	c0-2.6,0-4.9-0.1-4.9C166.1,36.6,164.6,36.5,164.4,36.7z M77.4,37.7c-0.1,0-0.3,0.1-0.4,0.1c-0.2,0-0.2,0.1-0.2,0.9l0,0.9l-0.6,0
	l-0.6,0l0,0.8l0,0.8l0.6,0l0.6,0l0,1.9c0,2.3,0.2,2.7,1,3.3c0.7,0.5,2.5,0.6,3,0.1c0.2-0.2-0.3-1.5-0.5-1.4c-0.9,0.2-1,0.1-1.3-0.1
	l-0.3-0.3V43v-1.8h0.9c1.1,0,1.3-0.2,1-1.5c0,0-0.4-0.1-1-0.1h-1l0-1l0-1l-0.5,0C77.8,37.7,77.5,37.7,77.4,37.7z M62.2,39.8
	c0.2,0.4,0.4,0.9,0.5,1.1c0.6,1.3,0.9,2,0.9,2.1c0,0-0.8,0.1-1.8,0.1c-1,0-1.8,0-1.8-0.1c0,0,0.1-0.3,0.2-0.6c1-2.3,1.4-3.1,1.4-3.3
	C61.8,38.8,61.8,38.9,62.2,39.8z M137.9,39.5c-1.5,0.4-2.2,1.4-1.9,2.7c0.2,0.9,1.1,1.4,2.7,1.7c1.2,0.2,1.5,0.3,1.6,0.6
	c0.3,1.1-2.3,1.3-3.6,0.2c-0.1-0.1-0.2-0.1-0.2-0.1c0,0.1-0.2,0.3-0.4,0.6c-0.4,0.6-0.4,0.7,0.2,1.1c2.3,1.6,5.8,0.6,5.8-1.6
	c0-1.4-0.8-2-2.8-2.2c-1.1-0.1-1.5-0.3-1.5-0.8c-0.1-0.7,1.4-1,2.5-0.4c0.3,0.2,0.5,0.3,0.5,0.3c0,0,0.2-0.2,0.4-0.5
	c0.5-0.6,0.5-0.6,0-0.9C140.4,39.4,139,39.2,137.9,39.5z M169.9,39.6c-2.2,0.7-3.2,3.2-2.2,5.4c0.9,2,3.7,2.7,5.9,1.5
	c0.8-0.5,0.9-0.6,0.2-1.2l-0.5-0.5l-0.5,0.3c-1.3,0.6-2.8,0.4-3.4-0.6c-0.3-0.5-0.4-0.5,2.6-0.5l2.8,0l0-0.6
	C174.9,40.5,172.5,38.7,169.9,39.6z M84,39.6c-2.2,0.6-3.2,3.1-2.2,5.3c1.2,2.7,5.4,2.7,6.7,0.1C89.9,42,87.2,38.7,84,39.6z
	 M93.2,39.6c-0.2,0.1-0.7,0.3-1,0.5l-0.6,0.4l0-0.4l0-0.4l-0.6,0c-0.3,0-0.7,0-0.8,0l-0.2,0.1l0,3.3c0,4.2-0.1,3.8,0.9,3.7l0.8,0
	l0-2.1c0.1-2.7,0.3-3.3,1.6-3.5c1.5-0.2,1.9,0.5,1.9,3.4c0,2.4-0.1,2.3,1,2.2l0.8,0v-2.4l0-2.4l-0.2-0.5
	C96,39.9,94.6,39.2,93.2,39.6z M100.6,39.6c-1.6,0.4-2.7,1.9-2.7,3.6c0,4.6,6.7,5.2,7.4,0.6C105.8,41,103.3,38.9,100.6,39.6z
	 M109.4,39.6c-0.2,0.1-0.5,0.2-0.7,0.4c-0.4,0.3-0.4,0.3-0.5-0.1c-0.1-0.3-0.2-0.3-1-0.3l-0.7,0v3.6v3.6l0.9,0l0.9,0l0-2.2
	c0.1-2.8,0.3-3.3,1.5-3.3c1.2,0,1.4,0.5,1.5,3.4l0,2.2l0.8,0c1,0,1,0.2,1-2.3c0-2.8,0.3-3.3,1.5-3.3c1.1,0,1.3,0.4,1.3,3.3l0,2.2
	h0.8h0.8l0-2.5c0-2.7,0-3-0.7-3.9c-0.9-1.2-3.2-1.2-4.3-0.1l-0.4,0.4l-0.2-0.2C111.5,39.6,110.4,39.3,109.4,39.6z M121.7,39.6
	c-2,0.5-3.1,2.6-2.6,4.6c1,3.8,6.7,3.5,7.3-0.4C126.8,41.1,124.4,38.9,121.7,39.6z M154.7,39.6c-3.4,0.9-3.4,6.4,0,7.3
	c1.1,0.3,2.2,0.1,3-0.5c0.5-0.4,0.6-0.4,0.6,0.1v0.4h0.8c1,0,0.9,0.4,0.9-3.6c0-3.9,0.1-3.6-0.9-3.6h-0.8l-0.1,0.4
	c-0.1,0.4-0.1,0.4-0.4,0.1C157.1,39.5,155.8,39.3,154.7,39.6z M67.6,39.7c-0.2,1.5,0,4.8,0.3,5.5c0.8,1.8,3,2.3,4.5,1.1
	c0.5-0.4,0.5-0.4,0.6,0.1l0,0.4l0.8,0l0.8,0v-3.6v-3.6h-0.9c-1,0-0.9-0.2-1,2.3c0,2.1,0,2.2-0.5,2.7c-0.5,0.6-1.4,0.8-2.1,0.4
	c-0.8-0.4-0.9-0.9-0.9-3.5v-1.9h-0.9C68,39.7,67.6,39.7,67.6,39.7z M127.5,41.9c0,3.8,0.7,5,3,5c0.9,0,1.1-0.1,1.9-0.6
	c0.5-0.3,0.5-0.3,0.5,0c0,0.5,0,0.6,0.9,0.6c1,0,0.9,0.4,0.9-3.6c0-4,0.1-3.6-1-3.6h-0.9v2c0,1.8,0,2.1-0.2,2.4
	c-0.6,1.3-2.1,1.6-3,0.5l-0.3-0.4l0-2.3l0-2.3h-0.9h-0.9V41.9z M175,39.7c0,0.1,2.5,6.3,2.7,6.6c0.2,0.3,0.1,0.5-0.5,1.8
	c-0.6,1.3-0.7,1.7-0.6,1.7c0.3,0,1.5,0.1,1.7,0c0.2,0,0.4-0.6,1.4-2.8c0.6-1.5,1.2-2.9,1.3-3.1c0.7-1.5,1.7-4,1.7-4.1
	c0-0.1-0.2-0.1-0.9-0.1h-0.9l-0.5,1.2c-0.3,0.6-0.6,1.3-0.6,1.5c-0.1,0.2-0.3,0.8-0.5,1.3c-0.4,1-0.4,1-0.8-0.1
	c-0.5-1.4-1.3-3.7-1.3-3.8C177,39.7,175,39.6,175,39.7z M172.2,41.2c0.8,0.4,1,1.1,0.4,1.1c-0.4,0-2.7,0-3.1,0c-0.4,0,0-0.8,0.6-1.1
	C170.8,40.9,171.5,40.9,172.2,41.2z M156.6,41.1c2,0.4,2,3.6,0.1,4.1c-1.5,0.4-2.7-0.5-2.7-2.1C154,41.7,155.1,40.8,156.6,41.1z
	 M86.1,41.5c0.7,0.5,1,1.4,0.8,2.3c-0.5,2.3-3.7,2-3.8-0.4C83.2,41.5,84.8,40.5,86.1,41.5z M102.7,41.5c0.5,0.4,0.8,1,0.8,1.8
	c0,2.6-3.5,2.8-3.8,0.2C99.6,41.7,101.4,40.5,102.7,41.5z M123.4,41.3c1.4,0.6,1.6,2.8,0.4,3.7c-0.8,0.6-2.3,0.2-2.7-0.7
	C120.2,42.5,121.7,40.5,123.4,41.3z"/>
</svg>
