<?xml version="1.0" encoding="utf-8"?>
<!-- Generator: Adobe Illustrator 23.0.1, SVG Export Plug-In . SVG Version: 6.00 Build 0)  -->
<svg version="1.1" id="Слой_1" xmlns="http://www.w3.org/2000/svg" xmlns:xlink="http://www.w3.org/1999/xlink" x="0px" y="0px"
	 viewBox="0 0 40 44" style="enable-background:new 0 0 40 44;" xml:space="preserve">
<g>
	<path d="M21.6,24.1C34.4,25.5,40.4,36.2,40,44c-1.2,0-2.4,0-3.8,0c-0.3-5.3-2.4-9.7-6.7-12.9c-2.9-2.1-6.2-3.2-9.9-3.1
		C12.1,28.2,4.5,33.9,3.9,44c-1.2,0-2.4,0-3.6,0c-2.2-7.9,7.5-18.5,18.5-19.9c-3.7-0.7-6.5-2.3-8.5-5.2c-2-2.9-2.6-6.1-1.9-9.5
		C9.6,3.8,14.9-0.3,20.5,0C26.3,0.3,31.2,4.7,32,10.1C32.8,15.6,29.9,22.2,21.6,24.1z M20.1,20.1c4.3,0,8.1-3.6,8.1-7.9
		c0-4.5-3.6-8.2-8.1-8.2c-4.4,0-8,3.6-8.1,7.9C12,16.4,15.6,20.1,20.1,20.1z"/>
</g>
</svg>
