<svg width="12" height="10" viewBox="0 0 12 10" fill="none" xmlns="http://www.w3.org/2000/svg">
<path d="M11.0118 10H0.988235C0.423529 10 0 9.52381 0 8.88889V1.11111C0 0.47619 0.423529 0 0.988235 0H11.0824C11.5765 0 12 0.47619 12 1.11111V8.96825C12 9.52381 11.5765 10 11.0118 10ZM0.988235 0.873016C0.847059 0.873016 0.847059 0.952381 0.847059 1.03175V8.88889C0.847059 9.04762 0.917647 9.04762 0.988235 9.04762H11.0824C11.2235 9.04762 11.2235 8.96825 11.2235 8.88889V1.11111C11.2235 0.952381 11.1529 0.952381 11.0824 0.952381H0.988235V0.873016Z" fill="#313131"/>
<mask id="path-3-inside-1" fill="white">
<path d="M5.9292 5.71436C5.85861 5.71436 5.78802 5.71436 5.71744 5.63499L0.493908 1.66674C0.352731 1.58737 0.352731 1.34928 0.423319 1.11118C0.493908 0.873089 0.77626 0.873089 0.988025 0.952454L5.9292 4.76198L11.1527 0.952454C11.2939 0.793724 11.5763 0.873089 11.7174 1.11118C11.8586 1.26991 11.788 1.58737 11.5763 1.7461L6.14097 5.71436C6.14097 5.63499 5.99979 5.71436 5.9292 5.71436Z"/>
</mask>
<path d="M5.9292 5.71436C5.85861 5.71436 5.78802 5.71436 5.71744 5.63499L0.493908 1.66674C0.352731 1.58737 0.352731 1.34928 0.423319 1.11118C0.493908 0.873089 0.77626 0.873089 0.988025 0.952454L5.9292 4.76198L11.1527 0.952454C11.2939 0.793724 11.5763 0.873089 11.7174 1.11118C11.8586 1.26991 11.788 1.58737 11.5763 1.7461L6.14097 5.71436C6.14097 5.63499 5.99979 5.71436 5.9292 5.71436Z" fill="black"/>
<path d="M5.71744 5.63499L7.21187 4.30583L7.08241 4.16027L6.92729 4.04243L5.71744 5.63499ZM0.493908 1.66674L1.70376 0.074176L1.59407 -0.00915366L1.47399 -0.0766578L0.493908 1.66674ZM0.988025 0.952454L2.20918 -0.631458L1.97124 -0.814902L1.68991 -0.92034L0.988025 0.952454ZM5.9292 4.76198L4.70804 6.34589L5.89587 7.26167L7.10769 6.37789L5.9292 4.76198ZM11.1527 0.952454L12.3312 2.56837L12.5046 2.44194L12.6472 2.28162L11.1527 0.952454ZM11.7174 1.11118L9.99712 2.13123L10.0952 2.29665L10.223 2.44035L11.7174 1.11118ZM11.5763 1.7461L12.7556 3.36141L12.7657 3.35399L12.7758 3.34644L11.5763 1.7461ZM6.14097 5.71436H4.14097V9.65085L7.32028 7.32966L6.14097 5.71436ZM5.9292 3.71436C5.85343 3.71436 6.09254 3.70261 6.36452 3.77905C6.71069 3.87636 7.00227 4.07017 7.21187 4.30583L4.22301 6.96416C4.50319 7.27918 4.86536 7.51268 5.28212 7.62982C5.46719 7.68184 5.62662 7.70051 5.73606 7.7082C5.83535 7.71518 5.92316 7.71436 5.9292 7.71436V3.71436ZM6.92729 4.04243L1.70376 0.074176L-0.715944 3.2593L4.50759 7.22756L6.92729 4.04243ZM1.47399 -0.0766578C2.23015 0.348429 2.35309 1.06615 2.37134 1.2713C2.39244 1.50857 2.34789 1.65582 2.34082 1.67967L-1.49419 0.5427C-1.57184 0.804641 -1.65168 1.18998 -1.61293 1.62567C-1.57704 2.02924 -1.38351 2.90568 -0.486177 3.41014L1.47399 -0.0766578ZM2.34082 1.67967C2.24907 1.98914 2.05983 2.29388 1.77229 2.52737C1.50026 2.74826 1.22049 2.84119 1.0211 2.87856C0.661992 2.94585 0.403785 2.86934 0.28614 2.82525L1.68991 -0.92034C1.3605 -1.0438 0.855235 -1.15999 0.284364 -1.05301C-0.393091 -0.926064 -1.20146 -0.444673 -1.49419 0.5427L2.34082 1.67967ZM-0.233131 2.53637L4.70804 6.34589L7.15036 3.17807L2.20918 -0.631458L-0.233131 2.53637ZM7.10769 6.37789L12.3312 2.56837L9.97425 -0.663458L4.75072 3.14607L7.10769 6.37789ZM12.6472 2.28162C12.092 2.90586 11.3382 2.93328 10.8939 2.80839C10.4639 2.68754 10.1661 2.41615 9.99712 2.13123L13.4378 0.0911355C13.1276 -0.431878 12.618 -0.862001 11.9763 -1.04238C11.3202 -1.22678 10.3547 -1.15968 9.6583 -0.37671L12.6472 2.28162ZM10.223 2.44035C9.72988 1.88591 9.76552 1.27048 9.82688 0.994541C9.89563 0.685347 10.0705 0.375273 10.3767 0.145766L12.7758 3.34644C13.2938 2.95821 13.6098 2.41004 13.7315 1.86275C13.8458 1.34871 13.8462 0.495189 13.2119 -0.21798L10.223 2.44035ZM10.3969 0.1308L4.96165 4.09905L7.32028 7.32966L12.7556 3.36141L10.3969 0.1308ZM8.14097 5.71436C8.14097 5.41614 8.07358 4.95122 7.7448 4.50507C7.40555 4.04473 6.95671 3.83232 6.6201 3.74498C6.31226 3.66511 6.05605 3.67583 5.93017 3.68609C5.79136 3.6974 5.6806 3.72032 5.62278 3.73332C5.55386 3.74882 5.39209 3.79339 5.47488 3.77123C5.48253 3.76918 5.52556 3.75758 5.58558 3.74619C5.63933 3.73599 5.76476 3.71436 5.9292 3.71436V7.71436C6.2412 7.71436 6.49679 7.63851 6.50926 7.63517C6.63837 7.60061 6.52514 7.63029 6.50033 7.63587C6.46457 7.64391 6.37476 7.66312 6.25498 7.67288C6.14812 7.68158 5.90901 7.69293 5.61551 7.61677C5.29324 7.53316 4.85597 7.32756 4.52473 6.87808C4.20394 6.44278 4.14097 5.99273 4.14097 5.71436H8.14097Z" fill="white" mask="url(#path-3-inside-1)"/>
<rect x="0.5" y="0.5" width="11" height="9" stroke="white"/>
</svg>
