<svg width="12" height="9" viewBox="0 0 12 9" fill="none" xmlns="http://www.w3.org/2000/svg">
<path d="M12 9C7.99541 9 4.00459 9 0 9C0 6.00153 0 3.01226 0 0C3.99082 0 7.98622 0 12 0C12 2.98467 12 5.97854 12 9ZM11.0034 1.46704C10.9437 1.50383 10.9162 1.51763 10.8932 1.53602C9.31343 2.69034 7.72905 3.84006 6.14925 4.99438C6.04822 5.06796 5.97933 5.10475 5.85534 5.01277C4.63835 4.12059 3.41217 3.22841 2.19059 2.33623C1.80023 2.0511 1.40528 1.76597 0.991963 1.46704C0.991963 3.6653 0.991963 5.82678 0.991963 7.98825C4.33984 7.98825 7.66935 7.98825 11.0034 7.98825C11.0034 5.81758 11.0034 3.66071 11.0034 1.46704ZM5.99311 3.85386C7.31114 2.89269 8.61539 1.94532 9.9426 0.97956C7.29277 0.97956 4.69805 0.97956 2.04822 0.97956C3.38462 1.95452 4.67968 2.89729 5.99311 3.85386Z" fill="white"/>
</svg>
