<svg width="20" height="27" viewBox="0 0 20 27" fill="none" xmlns="http://www.w3.org/2000/svg">
<path d="M20 15.732C19.8776 16.0111 19.9898 16.4143 19.4898 16.4866C18.6531 16.6107 18.3776 16.4246 18.3776 15.5769C18.3673 13.2819 18.3673 10.9973 18.3673 8.70237C18.3673 8.51629 18.3673 8.33021 18.3673 8.08211C18.0612 8.08211 17.7959 8.08211 17.5306 8.08211C16.2755 8.08211 15.0102 8.09245 13.7551 8.08211C12.7347 8.07177 12.5204 7.87536 12.4898 6.85193C12.4592 5.47702 12.4592 4.09178 12.449 2.71687C12.449 2.53079 12.449 2.34472 12.449 2.12762C8.83673 2.12762 5.26531 2.12762 1.66327 2.12762C1.66327 9.84985 1.66327 17.5617 1.66327 25.346C1.84694 25.346 2.02041 25.346 2.20408 25.346C4.78571 25.346 7.36735 25.346 9.95918 25.346C10.3163 25.346 10.7959 25.2012 10.9388 25.6561C11.0918 26.1006 11.0918 26.6072 10.7143 27C7.15306 27 3.58163 27 0 27C0 18.6265 0 10.253 0 1.87952C0.0306122 1.71412 0.0918367 1.54872 0.0714286 1.38331C0.0306122 0.814744 0.27551 0.514952 0.816327 0.432251C5 0.432251 9.18367 0.432251 13.3673 0.432251C13.602 0.597653 13.8673 0.721705 14.0714 0.91812C15.8878 2.73755 17.6939 4.55697 19.4796 6.39707C19.7041 6.6245 19.8265 6.96564 20 7.2551C20 10.0773 20 12.9098 20 15.732ZM14.1735 6.38673C15.1633 6.38673 16.1327 6.38673 17 6.38673C16.0714 5.44601 15.1224 4.47427 14.1735 3.51287C14.1735 4.44326 14.1735 5.40466 14.1735 6.38673Z" fill="white"/>
<path d="M15.3069 27C14.8681 26.7932 14.7558 26.4418 14.766 25.9559C14.7865 23.8781 14.7762 21.8002 14.7762 19.7224C14.7252 19.7017 14.6742 19.681 14.6232 19.6603C14.4905 19.7741 14.3579 19.8878 14.2354 20.0015C13.6436 20.5907 13.0518 21.1903 12.4497 21.7692C12.062 22.1413 11.5824 22.1413 11.266 21.8209C10.9293 21.4797 10.9293 21.0249 11.3171 20.6321C12.562 19.3399 13.8273 18.0684 15.0824 16.7865C15.3069 16.5591 15.5416 16.4143 15.8171 16.7038C17.2048 18.1407 18.6028 19.5673 19.9905 21.0042C19.9905 21.1386 19.9905 21.2833 19.9905 21.4177C19.5518 22.2137 19.0824 22.2861 18.4293 21.6555C18.1334 21.366 17.8477 21.0766 17.562 20.7871C17.1844 20.4046 16.8069 20.0325 16.3375 19.5466C16.3375 19.8464 16.3375 20.0015 16.3375 20.1462C16.3375 22.038 16.3069 23.9297 16.3375 25.8215C16.3477 26.3694 16.1742 26.7416 15.715 26.9897C15.5824 27 15.4395 27 15.3069 27Z" fill="white"/>
</svg>
