<svg width="116" height="20" fill="none" xmlns="http://www.w3.org/2000/svg"><path d="M42.218 7.918h-4.204L39.476.703H3.778L0 19.342h14.255l.975-4.81H6.762l.488-2.405h8.407l.852-4.21H8.163l.488-2.404h13.402l-2.802 13.829h5.787l2.803-13.83h4.873l-2.802 13.83h5.848l1.462-7.215h4.204l-1.462 7.215h5.848L49.59.702h-5.848l-1.523 7.216zm24.916-4.81h1.95L69.57.703h-1.95l-.487 2.405zm4.996 0h1.95l.487-2.405h-1.95l-.487 2.405zm18.154 0h1.95L92.72.703h-1.95l-.487 2.405zm9.747 3.547c-3.411 0-5.787 2.345-6.518 6.494a10.926 10.926 0 0 0-.183 1.984c0 2.826 1.706 4.57 4.508 4.57 1.584 0 3.168-.662 4.265-1.804l-1.097-1.323a3.982 3.982 0 0 1-3.046 1.443c-1.34 0-2.741-.782-2.741-3.006 0-.662.06-1.263.183-1.924.182-1.323.791-2.586 1.644-3.608A3.854 3.854 0 0 1 99.85 8.28a2.66 2.66 0 0 1 2.497 1.383l1.402-1.143c-.792-1.202-2.254-1.924-3.717-1.864zm12.367-.24c-1.401-.06-2.741.48-3.655 1.443l1.462-7.155h-1.888l-3.777 18.639h1.888l1.584-7.817c.67-3.307 3.29-3.487 3.777-3.487a2.11 2.11 0 0 1 2.315 1.864v.36c0 .422-.061.782-.122 1.203l-1.645 7.877h1.889l1.645-8.057c.061-.421.122-.842.122-1.263a3.387 3.387 0 0 0-3.168-3.607c-.122 0-.244-.06-.427 0zM87.116 19.282l1.828.06 2.498-12.627h-1.828l-2.498 12.567zM53.123 8.459l6.275.06-8.286 9.32-.304 1.503h8.955l.366-1.804h-6.702l8.285-9.32.305-1.503h-8.529l-.365 1.744zm30.886-1.924c-1.34-.06-2.68.541-3.472 1.623l.304-1.443h-1.827l-2.498 12.567v.06h1.828l1.523-7.756c.365-1.985 1.95-3.428 3.655-3.428.731 0 1.401.301 1.767.902l1.523-1.323a3.854 3.854 0 0 0-2.803-1.202zm-11.209.18h1.889v.06L72.19 19.402h-1.828v-.06l.244-1.323a4.823 4.823 0 0 1-3.716 1.503c-1.889.06-3.473-1.322-3.534-3.186v-.361c0-.361.061-.782.122-1.143v-.12l1.584-7.937h1.828v.06l-1.584 7.757c-.061.36-.122.781-.122 1.142a2.128 2.128 0 0 0 1.888 2.225h.366c.487 0 3.046-.18 3.716-3.427L72.8 6.715z" fill="#000"/></svg>