<svg width="114" height="42" fill="none" xmlns="http://www.w3.org/2000/svg"><path d="M0 41.397h114V.703H0v40.694z" fill="#FCD205"/><path d="M86.24 32.051l1.43-6.693H6.204l-1.43 6.693H86.24z" fill="#fff"/><path d="M27.001 13.633h-3.03l-3.012 13.958h3.031l3.011-13.958zm10.619 0h-8.47l-2.994 13.958h8.565l.546-2.532H29.73l.753-3.472h4.801l.547-2.513H31.03l.621-2.908h5.421l.546-2.533zM17.711 20.86c-.357 1.65-1.355 3.66-3.539 4.09-.45.076-.866.095-1.222.095h-1.431l1.882-8.82H14.7c.322 0 .755.019 1.094.075 1.995.338 2.408 2.364 1.918 4.56zm-1.174-7.134c-.584-.076-1.355-.093-1.827-.093h-3.82L7.895 27.59h5.047c.451 0 1.015-.018 1.412-.072 3.951-.49 5.872-3.34 6.436-6.25.79-4.051-.639-7.016-4.255-7.542zm71.419-.093H77.34l-.566 2.588h3.802l-2.446 11.37h3.03l2.447-11.37h3.784l.564-2.588zM62.44 20.635c-.49 2.252-1.413 4.595-3.972 4.595-2.467 0-2.805-2.307-2.296-4.595.488-2.252 1.41-4.595 3.97-4.595 2.467 0 2.807 2.305 2.297 4.595zm-2.078-7.152c-4.858 0-6.703 3.283-7.476 7.129-.789 3.846.85 7.129 5.272 7.129 4.857 0 6.702-3.283 7.474-7.13.79-3.845-.847-7.128-5.27-7.128zm6.814 4.257c0 1.651 1.017 2.46 1.975 3.191l1.601 1.182c.32.244.621.45.847.712.207.226.375.451.375.807 0 .507-.243.826-.582 1.05-.64.414-1.637.414-2.24.414-.96 0-2.446-.28-3.013-.507l-.903 2.553c1.091.393 2.843.562 4.104.562 1.525 0 2.616-.206 3.54-.6 1.655-.695 2.483-1.99 2.483-3.509 0-.9-.3-1.501-.714-2.045-.34-.431-.885-.9-1.506-1.37l-1.45-1.088c-.734-.544-1.28-.956-1.28-1.595 0-.6.414-1.125 1.186-1.219.471-.057.904-.057 1.62-.057h2.295l.565-2.588h-2.56c-.735 0-1.695 0-2.522.093-1.976.225-3.821 1.632-3.821 4.015zm-17.998.808c-.188 1.163-.979 1.877-1.995 2.12a5.463 5.463 0 0 1-.96.094H45l.979-4.56h1.317c.376 0 .659.038.885.112.753.245 1.206.978.998 2.234zm-.452-4.822a9.479 9.479 0 0 0-1.374-.093h-3.82L40.52 27.591h3.011l.922-4.259h1.751c.921 0 1.524-.093 2.109-.262a5.55 5.55 0 0 0 3.877-4.373c.471-2.607-.846-4.54-3.464-4.971z" fill="#231F20"/><path d="M102.15 13.622l1.797-8.437H92.569c-.005.029-2.365 11.003-2.374 11.049h2.816l1.814-8.436h5.747l-1.814 8.436h8.533l-1.132 5.277h-8.49l-1.696 7.891h-6.431l-.56 2.65h9.25c.005-.03 1.704-7.91 1.704-7.91h8.458l2.263-10.52h-8.507z" fill="#ED1C24"/></svg>