<svg width="140" height="30" fill="none" xmlns="http://www.w3.org/2000/svg"><g clip-path="url(#clip0)"><path d="M71.717 29.592l-2.593-3.582h-.022v3.582H68.06v-7.379a4.314 4.314 0 0 1 1.96-.412c1.787 0 2.717.849 2.717 2.277 0 1.307-.951 2.088-2.397 2.117v.02l2.579 3.382-1.201-.005zm-1.72-7.188a1.92 1.92 0 0 0-.895.166v3.217c.222.048.45.07.677.067 1.285 0 1.902-.625 1.902-1.73 0-1.175-.527-1.72-1.685-1.72zm4.677 4.553c.114 1.362.77 2.031 1.881 2.031a3.13 3.13 0 0 0 1.525-.346l.272.648a3.824 3.824 0 0 1-1.87.413c-1.617 0-2.754-.992-2.754-3.138 0-2.042 1.033-3.103 2.49-3.103 1.457 0 2.373.936 2.35 2.947l-3.894.548zm1.503-2.858c-.894 0-1.56.704-1.535 2.334l2.96-.437c-.003-1.362-.541-1.896-1.425-1.896zm6.213 5.604c-1.359 0-2.35-1.183-2.35-3.125 0-1.941.996-3.113 2.372-3.113.488-.032.971.11 1.359.402l-.242.569a1.464 1.464 0 0 0-.916-.291c-1.123 0-1.56.992-1.56 2.399s.527 2.434 1.525 2.434c.337.005.667-.097.94-.291l.253.614c-.396.29-.886.433-1.381.402zm6.433-.112v-4.264c0-.624-.272-1.183-1.261-1.183a2.22 2.22 0 0 0-1.204.302v5.145H85.35V20.83h1.008v3.058c.436-.234.924-.36 1.421-.368 1.571 0 2.052.926 2.052 1.775v4.296h-1.008zm4.839.056c-1.123 0-1.536-.793-1.536-1.518V24.2h-.712v-.614h.712v-1.383l1.008-.302v1.685h1.088v.614h-1.088v3.918c0 .479.218.87.78.87a1.39 1.39 0 0 0 .3-.045v.625a1.845 1.845 0 0 1-.552.08zm3.348.032a2.797 2.797 0 0 1-1.582-.413l.272-.648c.349.246.773.371 1.203.357a1.099 1.099 0 0 0 .805-.276 1.043 1.043 0 0 0 .342-.76c0-.625-.345-.906-1.019-1.152-1.204-.433-1.446-1.058-1.446-1.685 0-.894.723-1.65 1.846-1.65a2.621 2.621 0 0 1 1.446.412l-.272.593a1.782 1.782 0 0 0-1.033-.336.973.973 0 0 0-.736.248.924.924 0 0 0-.297.701c0 .58.435.86 1.033 1.082 1.204.447 1.503 1.072 1.503 1.765.008.915-.804 1.762-2.066 1.762zm5.925.024c-1.606 0-2.351-.68-2.351-1.775 0-1.588 1.536-2.067 3.452-2.254v-.368c0-.926-.574-1.193-1.359-1.193a3.525 3.525 0 0 0-1.49.378l-.242-.58a4.171 4.171 0 0 1 1.903-.446c1.147 0 2.155.479 2.155 1.952v3.862a4.446 4.446 0 0 1-2.068.424zm1.087-3.527c-1.56.19-2.489.514-2.489 1.73 0 .87.543 1.228 1.467 1.228a2.3 2.3 0 0 0 1.019-.201l.003-2.757zm6.41 3.415v-4.333c0-.558-.242-1.172-1.296-1.172a2.648 2.648 0 0 0-1.169.212v5.29h-1.008v-5.7a5.288 5.288 0 0 1 2.258-.424c1.721 0 2.226.926 2.226 1.786v4.341h-1.011zm8.803.001h-.872l-1.25-4.297a3.914 3.914 0 0 1-.125-.703 4.04 4.04 0 0 1-.15.703l-1.291 4.297h-.872l-1.753-6.016h1.033l1.087 4.32c.06.235.101.473.125.714h.022c.032-.241.082-.48.149-.714l1.25-4.32h.862l1.225 4.328a6 6 0 0 1 .139.714h.022c.025-.244.066-.486.125-.725l1.122-4.31h.916l-1.764 6.009zm5.102.111c-1.606 0-2.351-.68-2.351-1.776 0-1.587 1.536-2.066 3.452-2.253v-.368c0-.926-.574-1.193-1.359-1.193a3.524 3.524 0 0 0-1.489.378l-.248-.582a4.172 4.172 0 0 1 1.903-.447c1.147 0 2.155.479 2.155 1.952v3.863a4.45 4.45 0 0 1-2.063.426zm-.872-6.998a.498.498 0 0 1-.265-.093.48.48 0 0 1-.168-.22.465.465 0 0 1 .127-.51.494.494 0 0 1 .532-.087c.087.038.162.1.213.178a.46.46 0 0 1 .077.264.482.482 0 0 1-.158.337.507.507 0 0 1-.355.131h-.003zm1.973 3.471c-1.56.19-2.49.513-2.49 1.73 0 .87.544 1.228 1.468 1.228a2.3 2.3 0 0 0 1.019-.201l.003-2.757zm-.092-3.47a.506.506 0 0 1-.37-.127.48.48 0 0 1-.156-.349.464.464 0 0 1 .156-.349.501.501 0 0 1 .37-.125.519.519 0 0 1 .365.133c.099.09.157.214.162.345a.485.485 0 0 1-.162.342.51.51 0 0 1-.363.13h-.002zm3.088 6.885V20.83h1.008v8.762h-1.008zm4.941.056c-1.123 0-1.536-.793-1.536-1.518V24.2h-.712v-.614h.712v-1.383l1.008-.302v1.685h1.087v.614h-1.087v3.918c0 .479.218.87.78.87.101-.004.202-.019.299-.045v.625a1.839 1.839 0 0 1-.551.08zm2.739-2.69c.114 1.362.769 2.031 1.88 2.031a3.131 3.131 0 0 0 1.525-.346l.272.648a3.824 3.824 0 0 1-1.87.413c-1.617 0-2.753-.992-2.753-3.138 0-2.042 1.033-3.103 2.489-3.103 1.457 0 2.373.936 2.351 2.947l-3.894.548zm1.503-2.858c-.894 0-1.56.704-1.536 2.334l2.96-.437c-.003-1.362-.541-1.896-1.424-1.896z" fill="#73797C"/><path d="M11.82 16.195H9.59l-1.887-6.67a6.118 6.118 0 0 1-.222-1.362H7.44a6.97 6.97 0 0 1-.245 1.362l-1.927 6.67H3.031L-.009 5.557h2.497l1.6 6.878c.108.461.176.93.205 1.402h.04c.056-.473.146-.941.272-1.402l1.927-6.878H8.6l1.846 6.878c.122.461.212.93.271 1.402h.041c.044-.477.119-.952.223-1.42l1.682-6.878h2.191l-3.033 10.656zm5.98-4.429c.204 1.974 1.177 2.96 2.99 2.96.954.02 1.9-.183 2.758-.592l.587 1.518c-.77.416-1.946.749-3.61.749-3.1 0-5.068-1.955-5.068-5.556 0-3.473 1.805-5.486 4.664-5.486s4.482 1.875 4.378 5.447l-6.7.96zm2.231-4.915c-1.44 0-2.446 1.145-2.372 3.703l4.522-.672c0-2.171-.791-3.042-2.15-3.042v.01zm12.651 9.344v-7.54c0-.868-.405-1.775-1.968-1.775a4.226 4.226 0 0 0-1.704.296v9.019h-2.473V6.142c1.033-.474 2.446-.77 4.278-.77 3.261 0 4.348 1.54 4.348 3.256v7.58l-2.48-.013zm8.656 4.46c-1.56 0-2.94-.296-3.732-.749l.69-1.587c.808.41 1.704.628 2.615.632 1.824 0 2.514-.965 2.514-2.38v-.673a4.362 4.362 0 0 1-2.046.395c-2.615 0-4.4-1.974-4.4-5.191 0-3.452 1.763-5.743 5.291-5.743 1.6 0 2.86.336 3.55.77V16.35c-.003 2.844-1.767 4.304-4.482 4.304zm2.087-13.638a2.676 2.676 0 0 0-1.277-.238c-1.927 0-2.718 1.54-2.718 4.204 0 2.585.77 3.907 2.596 3.907.488.01.97-.106 1.4-.336V7.017zm6.568 4.749c.204 1.974 1.177 2.96 2.99 2.96.955.02 1.9-.183 2.758-.592l.587 1.518c-.769.416-1.946.749-3.609.749-3.1 0-5.069-1.955-5.069-5.556 0-3.473 1.805-5.486 4.664-5.486 2.86 0 4.482 1.875 4.379 5.447l-6.7.96zm2.229-4.926c-1.44 0-2.446 1.146-2.373 3.704l4.523-.672c0-2.162-.791-3.032-2.15-3.032zm11.091.296c-.832-.264-1.745-.238-2.31.08v8.979h-2.474V6.142c1.136-.53 2.514-.828 5.273-.749l-.49 1.743zm22.95 9.059h-2.35l-3.57-10.638h2.637l1.927 6.878c.139.477.23.967.272 1.46h.04c.05-.492.142-.98.272-1.46l1.968-6.878h2.31l-3.506 10.638zm6.12-12.471a1.252 1.252 0 0 1-.65-.26 1.2 1.2 0 0 1-.398-.563 1.17 1.17 0 0 1-.018-.684 1.2 1.2 0 0 1 .368-.583 1.264 1.264 0 0 1 1.331-.2c.218.096.403.251.531.448.13.196.197.424.195.657a1.222 1.222 0 0 1-.425.868 1.29 1.29 0 0 1-.934.317zm-1.236 12.473V5.557h2.473v10.638l-2.474.002zm6.736-4.431c.203 1.974 1.176 2.96 2.989 2.96a6.103 6.103 0 0 0 2.756-.592l.587 1.518c-.769.416-1.946.749-3.609.749-3.101 0-5.069-1.955-5.069-5.556 0-3.473 1.805-5.486 4.664-5.486 2.9 0 4.482 1.875 4.381 5.447l-6.7.96zm2.231-4.915c-1.44 0-2.446 1.145-2.373 3.703l4.52-.672c-.003-2.171-.794-3.042-2.15-3.042l.003.01zm6.4 9.344V.703h2.473v15.492h-2.473zm6.123-12.471a1.252 1.252 0 0 1-.65-.26 1.2 1.2 0 0 1-.398-.563 1.163 1.163 0 0 1-.018-.684 1.2 1.2 0 0 1 .368-.583 1.265 1.265 0 0 1 1.331-.2c.218.096.402.251.531.448.129.196.197.424.195.657-.008.165-.05.326-.123.475a1.258 1.258 0 0 1-.737.643 1.32 1.32 0 0 1-.499.067zM111.4 16.197V5.557h2.474v10.638l-2.474.002z" fill="#003A78"/><path d="M75.392 10.226v5.485c-.687.375-1.81.637-3.533.637-2.77 0-4.449-1.09-4.449-3.148 0-1.635 1.185-2.54 2.446-2.96v-.048c-1.12-.436-1.761-1.201-1.761-2.26 0-1.542 1.33-2.616 3.395-2.616 1.168 0 2.174.28 2.717.625l-.722 1.402a3.683 3.683 0 0 0-1.555-.347c-1.025 0-1.536.458-1.536 1.185 0 .794.75 1.25 1.74 1.25 1.331 0 2.853-.559 4.248-1.228l.72 1.434a9.81 9.81 0 0 1-1.71.59zm-2.225.437c-2.351.437-3.346 1.042-3.346 2.38 0 1.139.628 1.776 2.093 1.776a5.33 5.33 0 0 0 1.252-.14v-4.016z" fill="#73797C"/></g><defs><clipPath id="clip0"><path fill="#fff" d="M0 .703h140v29H0z"/></clipPath></defs></svg>