<svg width="69" height="69" fill="none" xmlns="http://www.w3.org/2000/svg"><path d="M43.34 68.46c-2.592 0-4.285-1.306-4.285-4.428 0-2.645 1.448-4.69 4.636-4.69.686 0 1.555.138 2.134.37l-.488 1.844c-.517-.183-1.021-.323-1.586-.323-1.63 0-2.302 1.077-2.302 2.691 0 1.57.61 2.615 2.211 2.615.747 0 1.266-.184 1.769-.384l.259 1.814c-.442.276-1.372.492-2.349.492zM22.42 58.39c.793 0 1.433-.617 1.433-1.4 0-.769-.64-1.354-1.432-1.354-.732 0-1.388.585-1.388 1.354 0 .783.656 1.4 1.388 1.4zm-1.235 9.917h2.242v-8.81c-1.052-.109-2.242.184-2.242 1.845v6.965zm29.367-7.058c-1.005 0-1.967.754-1.967 2.691 0 1.677.625 2.614 1.937 2.614 1.112 0 1.967-.907 1.967-2.69 0-1.708-.61-2.615-1.937-2.615zm-.09 7.243c-2.487 0-4.225-1.368-4.225-4.444 0-2.753 1.83-4.736 4.483-4.736 2.47 0 4.07 1.399 4.07 4.397 0 2.876-1.737 4.783-4.329 4.783zm-44.83-7.105c-.488-.184-1.235-.369-1.845-.369-.702 0-1.235.185-1.235.83 0 1.523 3.873.586 3.873 3.722 0 2.122-1.708 2.937-3.63 2.937a8.922 8.922 0 0 1-2.576-.385l.137-1.86s1.28.43 2.348.43c.747 0 1.357-.23 1.357-.891 0-1.63-3.888-.584-3.888-3.707 0-1.952 1.632-2.752 3.431-2.752 1.067 0 1.921.2 2.439.385l-.411 1.66zm14.53-1.89c-.487 2.613-1.738 6.734-2.53 8.81h-2.38l-1.676-5.873h-.03l-1.678 5.873H9.506c-.763-2.045-2.135-6.304-2.531-8.81h2.24l1.48 6.058h.03l1.769-6.059h2.242l1.723 6.013h.03l1.494-6.013h2.18zm45.973-.185c1.692 0 2.683.922 2.683 2.936v6.06h-2.257V62.71c0-.907-.26-1.507-1.22-1.507s-1.8.846-1.8 2.368v4.736h-2.21V62.71c0-.846-.274-1.507-1.235-1.507-1.006 0-1.784.938-1.784 2.46v4.644h-2.287v-8.81c1.494-.185 2.058.43 2.12 1.414.548-.985 1.494-1.6 2.73-1.6 1.57 0 2.194.877 2.423 1.707.38-.876 1.357-1.706 2.837-1.706zm-35.924 2.075c-.503-.184-1.236-.369-1.845-.369-.702 0-1.265.185-1.265.83 0 1.523 3.903.586 3.903 3.722 0 2.122-1.723 2.937-3.629 2.937a9.29 9.29 0 0 1-2.607-.385l.168-1.86s1.28.43 2.348.43c.717 0 1.341-.23 1.341-.891 0-1.63-3.904-.584-3.904-3.707 0-1.952 1.647-2.752 3.432-2.752 1.067 0 1.951.2 2.47.385l-.412 1.66zm7.105 0c-.487-.184-1.235-.369-1.845-.369-.701 0-1.25.185-1.25.83 0 1.523 3.888.586 3.888 3.722 0 2.122-1.707 2.937-3.628 2.937a8.92 8.92 0 0 1-2.577-.385l.152-1.86s1.265.43 2.333.43c.747 0 1.357-.23 1.357-.891 0-1.63-3.889-.584-3.889-3.707 0-1.952 1.632-2.752 3.432-2.752 1.067 0 1.936.2 2.44.385l-.413 1.66z" fill="#152168"/><path d="M27.24 28.986c-9.587 8.304-3.346 14.39 5.106 17.93l.049-9.475c-4.133-.855-1.721-6.378-5.156-8.455z" fill="url(#paint0_linear)" stroke="#999" stroke-width=".25"/><path d="M27.61 5.241c-.195.014-4.234 3.032-6.002 4.482-5.536 4.544-7.276 8-6.002 11.93.647 1.998 1.774 3.357 5.403 6.52 2.73 2.38 4.179 3.84 5.316 5.382.125.17.241.341.36.515.035.05.066.09.102.144.002.002.006.004.007.007l.089.13c.189.286.361.564.517.837.171.301.328.604.47.92l.02.048a10.43 10.43 0 0 1 .265.652l.014.041c.041.113.082.23.122.35.004.01.004.019.007.028.043.128.087.26.13.398v.007c.253.833.499 1.842.782 3.178.045.07.061.1.102.165.023.095.045.169.068.267.639 2.66 1.3 4.257 2.137 5.155.069.073.287.218.49.323.204.105.41.18.457.164.108-.035.133-9.126.026-9.409-.662-.06-1.358-.447-1.837-.969-.29-.324-.545-.806-.762-1.42-.006-.016-.015-.033-.02-.049-.013-.038-.022-.083-.035-.123a21.327 21.327 0 0 1-.462-1.936c-.538-2.679-.91-3.23-3.376-4.997-1.756-1.257-2.538-2.011-2.94-2.834-.276-.566-.293-.656-.293-1.47 0-.721.033-.943.197-1.303.41-.899 1.049-1.348 3.09-2.17 2.187-.878 2.546-1.282 3.54-3.967.913-1.996 1.362-2.14 2.985-2.898.017.004-3.306-5.466-4.966-8.098z" fill="url(#paint1_linear)" stroke="#4D4D4D" stroke-width=".25"/><path d="M32.44 46.994c4.746-7.032 9.67-8.48 14.138-24.206L29.07 7.203l3.617 6.3-.247 33.491z" fill="url(#paint2_linear)" stroke="#000" stroke-width=".1"/><path d="M35.27 4.912c-.975.054-1.939.095-2.785.521-.01-.02.009-.042.019 5.31L46.53 22.805s.314-.503.478-1.668c.241-1.706.293-3.01.177-4.263-.243-2.632-.95-4.72-2.252-6.65-.609-.902-2.252-2.534-3.179-3.158-1.402-.943-3.145-1.681-4.737-2.004a8.881 8.881 0 0 0-1.749-.151z" fill="url(#paint3_linear)" stroke="#999" stroke-width=".5"/><path d="M32.404 52.286c.033-.017.275-38.901.185-38.945l-4.037-6.602c-.11.695 12.31 10.996 18.04 16.117l1.002.998c2.452 2.445 4.02 4.4 5.049 6.547.926 1.935 1.216 3.314 1.135 5.41-.084 2.17-.694 4.242-1.823 6.189-1.051 1.813-3.087 3.96-5.062 5.337-3.398 2.37-8.017 4.131-12.678 4.833-1.19.18-1.716.213-1.813.116h.002z" fill="url(#paint4_linear)"/><path d="M27.584 5.034c0-.074-.058-.326-.128-.56-.277-.92-.081-1.981.51-2.763.299-.395 1.1-.942 1.73-1.18 1.24-.467 2.651-.681 2.735-.415 0 0 .034 10.698.09 10.684.047.165-4.64-4.032-4.937-5.766z" fill="url(#paint5_linear)"/><path d="M32.495 37.482l.117-24.194c-.98.477-1.97.43-3.141 3.28-.912 2.427-1.312 2.835-3.761 3.77-4.222 1.245-4.137 4.903.334 7.693 2.509 1.65 2.969 2.687 3.444 5.539.448 1.983.967 3.534 3.008 3.913v-.001z" fill="#fff"/><defs><linearGradient id="paint0_linear" x1="31.257" y1="43.373" x2="25.036" y2="35.954" gradientUnits="userSpaceOnUse"><stop stop-color="#0019CE"/><stop offset="1" stop-color="#00A4CE" stop-opacity=".498"/></linearGradient><linearGradient id="paint1_linear" x1="46.445" y1="35.514" x2="26.14" y2="12.971" gradientUnits="userSpaceOnUse"><stop stop-color="#040D1A"/><stop offset="1" stop-color="#FD110D" stop-opacity=".994"/></linearGradient><linearGradient id="paint2_linear" x1="31.615" y1="30.146" x2="40.107" y2="26.332" gradientUnits="userSpaceOnUse"><stop/><stop offset="1" stop-opacity="0"/></linearGradient><linearGradient id="paint3_linear" x1="70.294" y1="26.625" x2="38.93" y2="11.909" gradientUnits="userSpaceOnUse"><stop stop-color="#040D1A"/><stop offset="1" stop-color="#FD110D" stop-opacity=".994"/></linearGradient><linearGradient id="paint4_linear" x1="34.799" y1="33.664" x2="40.185" y2="26.018" gradientUnits="userSpaceOnUse"><stop stop-color="#0019CE"/><stop offset="1" stop-color="#00A4CE" stop-opacity=".498"/></linearGradient><linearGradient id="paint5_linear" x1="30.936" y1="9.154" x2="30.068" y2="-.34" gradientUnits="userSpaceOnUse"><stop stop-color="#0B4AD0"/><stop offset="1" stop-color="#0BB7D0" stop-opacity="0"/></linearGradient></defs></svg>