<svg width="130" height="29" fill="none" xmlns="http://www.w3.org/2000/svg"><path d="M45.889 16.83l-.775 2.214h-.065a15.59 15.59 0 0 0-.753-2.17L40.142 6.345h-4.068v16.778h2.69V12.771c0-.651 0-1.39-.02-2.3-.022-.457-.066-.804-.087-1.064h.065c.129.65.28 1.128.387 1.432l4.993 12.242h1.894l4.95-12.35c.108-.283.216-.847.324-1.324h.064a158.195 158.195 0 0 0-.129 3.017v10.635h2.863V6.303H50.15L45.89 16.83zm10.89-5.796h2.798V23.06H56.78V11.034zM58.2 5.955c-.474 0-.86.174-1.184.478a1.546 1.546 0 0 0-.495 1.172c0 .456.172.846.495 1.15.323.304.71.456 1.184.456.473 0 .883-.173 1.184-.456.323-.304.495-.694.495-1.15 0-.456-.172-.847-.495-1.172-.28-.304-.689-.478-1.184-.478zm11.3 4.97a7.744 7.744 0 0 0-1.572-.173c-1.27 0-2.432.282-3.4.847-.969.564-1.744 1.345-2.239 2.322-.516.999-.774 2.15-.774 3.473 0 1.15.258 2.17.753 3.104.495.912 1.184 1.65 2.11 2.149.882.499 1.915.76 3.077.76 1.334 0 2.475-.283 3.38-.804l.02-.021v-2.605l-.107.087a4.796 4.796 0 0 1-1.356.716c-.495.174-.947.26-1.334.26-1.12 0-2.002-.325-2.626-1.041-.646-.695-.969-1.65-.969-2.844 0-1.237.323-2.214.99-2.93.668-.716 1.55-1.085 2.626-1.085.904 0 1.83.304 2.669.912l.108.086v-2.756l-.022-.022c-.366-.152-.775-.326-1.334-.434zm9.233-.086c-.689 0-1.334.217-1.894.673-.473.39-.796.955-1.076 1.628h-.022v-2.106h-2.798V23.06h2.798v-6.142c0-1.042.216-1.91.69-2.54.473-.651 1.075-.977 1.807-.977.258 0 .517.065.84.109.3.087.516.173.667.282l.107.087v-2.822l-.064-.022c-.194-.13-.581-.195-1.055-.195zm7.62-.065c-1.96 0-3.53.586-4.628 1.736-1.12 1.15-1.657 2.735-1.657 4.732 0 1.867.56 3.386 1.635 4.493 1.076 1.085 2.54 1.65 4.37 1.65 1.915 0 3.443-.586 4.54-1.758 1.12-1.172 1.658-2.735 1.658-4.667 0-1.91-.516-3.43-1.571-4.536-1.012-1.107-2.497-1.65-4.348-1.65zm2.238 9.246c-.517.673-1.335.999-2.346.999-1.012 0-1.83-.326-2.41-1.042-.582-.673-.862-1.65-.862-2.887 0-1.28.302-2.257.861-2.952.581-.694 1.378-1.042 2.39-1.042.99 0 1.764.326 2.324.999.56.673.86 1.65.86 2.93-.042 1.302-.28 2.323-.817 2.995zm9.922-3.993c-.883-.37-1.442-.652-1.7-.89-.216-.217-.323-.521-.323-.912 0-.325.129-.651.452-.868.323-.217.689-.326 1.227-.326.473 0 .968.087 1.442.217.473.13.904.326 1.248.586l.108.087v-2.648l-.065-.021a7.702 7.702 0 0 0-1.27-.37 8.559 8.559 0 0 0-1.377-.13c-1.335 0-2.432.326-3.293 1.042-.861.673-1.27 1.585-1.27 2.648 0 .565.086 1.064.28 1.476.193.413.473.803.86 1.129.388.304.948.651 1.722.977.646.282 1.141.499 1.442.672.302.174.495.37.646.521.108.174.172.391.172.673 0 .803-.602 1.194-1.83 1.194-.473 0-.968-.087-1.549-.282a5.974 5.974 0 0 1-1.571-.803l-.108-.087v2.757l.065.021c.409.196.904.326 1.507.478.602.108 1.14.195 1.614.195 1.442 0 2.626-.325 3.465-1.042.861-.694 1.313-1.584 1.313-2.735 0-.803-.215-1.519-.689-2.062a8.71 8.71 0 0 0-2.518-1.497zm10.589-5.253c-1.958 0-3.529.586-4.627 1.736-1.098 1.15-1.657 2.735-1.657 4.732 0 1.867.559 3.386 1.635 4.493 1.076 1.085 2.54 1.65 4.37 1.65 1.915 0 3.443-.586 4.541-1.758 1.119-1.172 1.657-2.735 1.657-4.667 0-1.91-.516-3.43-1.571-4.536-1.012-1.107-2.497-1.65-4.348-1.65zm2.217 9.246c-.516.673-1.334.999-2.346.999-1.033 0-1.829-.326-2.41-1.042-.582-.673-.861-1.65-.861-2.887 0-1.28.301-2.257.861-2.952.581-.694 1.377-1.042 2.389-1.042.968 0 1.765.326 2.324.999.56.673.861 1.65.861 2.93 0 1.302-.28 2.323-.818 2.995zm18.661-6.663v-2.323h-2.82v-3.56l-.086.022-2.669.804-.064.021v2.713h-4.219V9.515c0-.695.172-1.237.474-1.584.301-.348.753-.521 1.313-.521.387 0 .796.086 1.248.282l.108.065V5.304l-.065-.022c-.387-.13-.904-.217-1.571-.217a5.01 5.01 0 0 0-2.239.521 3.75 3.75 0 0 0-1.528 1.541c-.366.652-.559 1.39-.559 2.236v1.671h-1.959v2.301h1.959v9.724h2.819v-9.702h4.219v6.186c0 2.54 1.184 3.82 3.551 3.82.387 0 .796-.065 1.184-.13.409-.087.71-.195.882-.282l.022-.022v-2.322l-.108.086a1.81 1.81 0 0 1-.581.26 1.955 1.955 0 0 1-.56.088c-.559 0-.947-.13-1.226-.456-.259-.304-.388-.803-.388-1.541v-5.687h2.863z" fill="#737373"/><path d="M0 .703h13.194v13.305H0V.703z" fill="#F25022"/><path d="M14.57.703h13.194v13.305H14.57V.703z" fill="#7FBA00"/><path d="M0 15.397h13.194v13.306H0V15.397z" fill="#00A4EF"/><path d="M14.57 15.397h13.194v13.306H14.57V15.397z" fill="#FFB900"/></svg>