<svg width="117" height="15" fill="none" xmlns="http://www.w3.org/2000/svg"><path fill-rule="evenodd" clip-rule="evenodd" d="M109.076 14.64c-3.88 0-7.053-3.175-7.053-7.054 0-3.88 3.173-7.053 7.053-7.053 3.879 0 7.053 3.174 7.053 7.053 0 3.88-3.174 7.053-7.053 7.053zm0-10.845a3.763 3.763 0 0 0-3.791 3.79 3.763 3.763 0 0 0 3.791 3.792 3.763 3.763 0 0 0 3.791-3.791 3.763 3.763 0 0 0-3.791-3.791zm-21.248 6.7v3.703h-3.262V.974h3.262v5.025L92.765.974h4.497l-5.82 5.818 5.82 7.406h-4.144L89.15 8.997l-1.322 1.498zM70.724 14.64c-3.88 0-7.053-3.174-7.053-7.053 0-3.88 3.174-7.053 7.053-7.053 3.88 0 7.053 3.174 7.053 7.053.088 3.88-3.086 7.053-7.053 7.053zm0-10.844a3.763 3.763 0 0 0-3.791 3.79 3.763 3.763 0 0 0 3.79 3.792 3.763 3.763 0 0 0 3.792-3.791c.088-2.116-1.675-3.791-3.791-3.791zM40.57 14.198V.974h3.086l5.114 9.08 5.113-9.08h3.086v13.224h-3.262V7.674l-3.703 6.524H47.45l-3.704-6.524v6.524h-3.173zm-13.841.441c-3.88 0-7.053-3.174-7.053-7.053 0-3.88 3.173-7.053 7.053-7.053 3.879 0 7.053 3.174 7.053 7.053 0 3.88-3.174 7.053-7.053 7.053zm0-10.844a3.763 3.763 0 0 0-3.791 3.79 3.763 3.763 0 0 0 3.79 3.792 3.763 3.763 0 0 0 3.792-3.791 3.763 3.763 0 0 0-3.791-3.791zM9.714.974h3.262v13.224H10.33l-6.436-7.67v7.67H.633V.974h2.645l6.436 7.67V.974z" fill="#000"/></svg>