<svg width="84" height="22" fill="none" xmlns="http://www.w3.org/2000/svg"><path fill-rule="evenodd" clip-rule="evenodd" d="M66.98 21.47c-2.504-.002-4.147-.612-5.022-1.868-.828-1.188-.887-2.853-.178-5.09L66.154.701l6.128.004-4.325 13.676c-.192.604-.248.902-.107 1.18l.018.035.024.03c.174.215.48.355 3.03.355l13.069.007-1.738 5.485-15.274-.004zm-25.654-.012c-2.769-.002-5.218-1.172-6.72-3.21-1.478-2.005-1.898-4.615-1.185-7.349C35.184 4.151 39.348.729 45.796.729L63.67.746l-1.726 5.45-15.955-.01c-3.302 0-5.437 1.674-6.527 5.117-.462 1.457-.393 2.726.193 3.573.605.874 1.624 1.064 2.372 1.07l15.117.035 1.698.004-1.737 5.484-15.78-.01zM0 21.442l1.727-5.449 17.219.01c3.302 0 5.436-1.674 6.527-5.117.445-1.404.36-2.699-.236-3.552-.64-.918-1.686-1.111-2.451-1.112l-7.016-.01-10.964.011L6.566.721 23.61.73c2.77.002 5.219 1.172 6.72 3.21 1.478 2.005 1.899 4.615 1.185 7.349-1.763 6.748-5.926 10.17-12.375 10.17L0 21.442z" fill="#FAEB00"/></svg>