<svg fill="#7c7c7c" height="643" stroke="#fff" stroke-linecap="round" stroke-linejoin="round" stroke-width="2" version="1.2" width="1000" xmlns="http://www.w3.org/2000/svg"><path d="M50.2 488.8l-.2.2-3.6 10-1.5 12.1-1.6 1.5-1.3 2-.9 2.2-.6 2.7 11-10.9 9.1-17.9.7 2 .1 1.3 2.1 5.3 1 1.4 2.3 1.2 3.7-1.7 1.6.6 1.1 7.4-5.7 6.1-14.2 9.4L42 537l-7.1 3.7-7.6-3.4-10 .4-10.1 2.4-5.3 3.2 2.9-7 1.7-3.2.7-2.7-3.9-4.9-2.3-4.4.8-3.9 5.4-3.4 13.3-6.5 1.1-.2 1.8.6 1.3.2 1.3-.2 4.8-1.5 1-2.1-.2-3 .1-3.5 1.6-9 .7-2.5 3.2-7.3L49.5 489l.7-.2zm256.5-366.5l.6 1 .6.5 9.3 4.7 6 4.8 1.5 2.5.3 2.6 1.5 1.1h2.4l10.7 2.8 4.3.4 1.6-.1 1.8.7 1.9 1.3 2.1 3.5 3.5 3-3.6 3.4-.5 2.1.2 1.1.8.5 4.1.5-.6.8-13.2 3.8-24.2-2-2.1-.9-1.3-2.8-.6-.2-.5.6-.4 1.4-.9 1.1-1.2 1.2-1.8.8-3.7 3.1-2.5 1.6-5.7 2-3.4.7-4.2.3-18.6-3.8-.6 3.3.4 1.5-.4 1.2-.9 1-2.2 1.6-.4 1-.1 1.8.4 2.3.5 1.4-1.2 1.1-10.9 2.1-6.9-.7-1.4.3-.9.9-.4 1.8-.6 1.3-1.6 2.4-1 2.2-1.6 2.1-2.4 2.4-3.5 1.8-2 1.6-2.4 2.4-2.3.5-5.1-.2-2.5 1.4-8 6.2-2.4 1.4-1.7.5-1-.5-.7-.9-2.1-1.7-6-.4-2.6-1 .5-.5 4.2-7 6.4-6.6 15-11.1-.9-8.1 1.4-6.7 4.2-4.3 2-.2 1.2-.5 3.2-4.4 2.3-1.3 2.3-.6 2.1-1.4 1.7-3.6-2.3-3.3-3.3-3-3.3-2.7-4.1 2-26.3 2.6 1.1-4.2 2.7-5.1 3.3-4.3 5.7-3.4.3-6.2 5.8-1.3 3.6-2 3.3-2.9 1.7-2.7-1.1-3.9-2.3-4.6-.5-3.6 4.1-1.3 2-1.5 2-.5 2 .5 2 1.5 5.7.9 11-2 5.3 1.1 2.8 1.7 3 .5 6-.6-4 9.3 1.2 5.3 4.8 2.9 6.5 2.1.9.7.7 1.2.8 1.1 1.8.8 1.4-.3 8.4-3.7 5.9-1.2 6.1.2z"/><path d="M199 209.5l4.5 2.5 2.5 3.3 1.4 2.9.7 3-.2 2.2-.9 4.1-.4 1-1.1 1.1-.6 2.4.1 2h.6l33.7-10.5 1.5-.4.2 4.4 3 .8 6.5 3.7 1.7 1.5.8 1.4v.5l-1.2 1-.2.9.6 1.9.4 2.6v1.7l-.6 1.9-2.1 1.1-2.3 1.9-4.9 2.1-.8 1-.7 1.5-1.2 5.4-1 2.3-2.1 5.8-16.7 13.8-8.5 7.1-7.1 5.9-24.2 20-3.6-8.1-.8-3.4.1-3.1-.2-1.8-.6-1.7-1.8-1.5-1.2-1.6-.6-2 .5-3.1-.7-4-13.1 7.9-5.8 4.9-3.4 2.3-6.7 2.3-10.8 5.7-3.1 2.4-2.2 1.2-1.9.3-11.4.6-4.1.7.8-2 .4-4.5-.7-3.6-3-5.6-.9-2.9 3.3-11.4 10.7-6.3 23.8-7.5 14.8-11.3 5-7.3-2.6-6 3-5.2 2-2 5.6-2 .8-2.1.8-.6 3.2-1.6-.3-5.6 6.7-2.3 14-13 2.6 1zM546.5 73.4l-.3 2-5.1 8.3-4.8 4.8-3.7 6-1.1 6.2-.1 3.4 1.2 4.5 4.8 10.5 1.7 5 3 4 .6 1.3-1 2.7-5.8 6-.5 1.8 1.9 1.7 4.4 2.3 1 1.1-.1 2.1-.5 4.6.7 2.3 2.6 2.8 6.6-2-.7 3.1-2 3.6-4.1 5.3-3.8 2.4-1.5.6-1.9.2.5 2.6 5 10.6-2.9 5.6-.3 2.9 1.2 13.8 1.6 11.4-6.4-.3-2.8-1.3-1.2-1.1-1.6-2-2.4-3.8-.8-1.6-7.4-21.2-1.7-3.8-.9-2.7-.7-3.2-1.2-1.9-1.3-1.2-3.7-1.6-3.7.4-3.7 4.4-1 2.6-5 9-3.6 2.7-2 .2-1.5-.6-1-.8-1.3-1.3-.6-1.7.3-.8 1.6-.7-.6-.5-2-.8-6-.2-4.5-1.5-3.3-3.5-15.2 6-4.9-9.8-3.4-1.5-4.8.1-.9.2-.5 1.3v2.6l.3 2.8-.4 2-1.2 1.1-5.7 2h-5l-13.5 2.8-2.9-5-.2-.7-.6-6.4 1.7-2.1 5.3-10.7.7-.8 9.8-9.1 1.6.4 1.9.8 14.1 2.1 1.6-.8 1.8-1.2 3-7.1 2.5-3.8 1.6-3.7-.2-6.2-2.8-.8-2.2-1.2-1.9-1.9-1-1.5-1-4.5-1.4-.9-.3-3 .2-1.7-.4-1.1-1.9-2.3-3.5-.6-2.8-1.9-.4-2v-4.6l-6.8-.7-2-1.5-.8-2.5-6.5-9.9-1-2.3-1.3-.9-1.7-2.5-3.2-.9-1.3.2-.6.5-.3 1.4-.3 3.1-.5.9-5.6 5.1-3 .4-.6-1.1-.5-1.9-.1-1.9.1-1.6-1.3-1.1-1-.2-8.1-4-.7-.5 8.7-1.8 4.2-2.4 3.5-4.2 4-6.4 3.1 1.6 14.3.9 1.3 1.4.7 3.1.5 3.1.6 1.4h28.7l10-2.3 2.1-1.5 1-1.4.9-1.6 1.9-2.2 1.8-1.4 4.8-2.6 4-1.2 1.5-1.6 1.1-1.6 1.2-.8 11.9-2h4l5.8 1.7 2.5.3 1.2 1.4 1.2 3.2 1.6 3.2 2.1 1.4 8.4 2.2 14.2.1.6-.1z"/><path d="M543.1 216.9l2.7 4.4 1.9.5 2.3 1 1.2 3.5-6.8 4.2-1.2 1.1-.6 1.2-.3 1.2-.1 1.7-.3 1.2-.8 1.1-1.9 2.1-.4 1.1.4 1.8 1.2 1.6 2.4 1.3 3.4-1.6 8.9 2.4 8.5 7.8.8 1.2.7 1.6-.8 2.5-.7 1.7-7.3 3.8-1.2-2.2-3-3-3.2-.6-1.9 1.9-.2 1.5-2.2.7-7.3-.1-.6-1.4-2.4-1.4-3.4 1.7-4.7 1.6-2.8-.5-2.5-.1-2.8.5-5.4-.1-3.8.8-4.2 1.5-1.3.9-.7 1.6-.1 1.3 1 2.5-12.3 1.2-3.7 2.4-.5.9.9 2.8.2 1.7-.3 1.6-4.5 4.1-5.3 6.8-.9.3-.5-.4-.8-1.1-1.9-.1-1.1.5-.9.7-1.6 2.4-.8 1.6-.8 2.3-.8 4.7-3.8 8.8-.5 1.7.7 3.3 1.1 2.4 1.2 5-3.6 5.8-4.5-.3-3.9 1.5-3.3 1.9-1.7.3-1.4-.4-2.9-3.5-2.6-4.1-14.6-11.7-3.5-3.8-.1-2.5-2-6.4.4-1.6 2.1-2 .7-1.9.2-2.4-.5-3.9v-1.9l.4-1.4.8-.6 1.9-.8 1.7-1 .5-.2 1.8.5 1.1-.2 1.1-.8.7-1.2.8-1.9 1.2-.9.4-.6.5-3.1.4-.8 1.3-2 .7-2.9.6-1.4 1.5-7.5-4.8-1-1.5-1.3-5.9-.6-.8-5.2-1.1-1.4-1.5-2.7-1.9-2.6-.6-2.2v-2.1l.7-6.6v-6.4l.5-3.4.6-2.2 1.8-3.2-1.9-9.8v-3.3l-.7-2.6-1.2-2.9-1-1.9-5.7-13.2 13.5-2.8h5l5.7-2 1.2-1.1.4-2-.3-2.8v-2.6l.5-1.3.9-.2 4.8-.1 3.4 1.5 4.9 9.8 15.2-6 3.3 3.5 4.5 1.5 6 .2 2 .8.6.5-1.6.7-.3.8.6 1.7 1.3 1.3 1 .8 1.5.6 2-.2 3.6-2.7 5-9 1-2.6 3.7-4.4 3.7-.4 3.7 1.6 1.3 1.2 1.2 1.9.7 3.2.9 2.7 1.7 3.8 7.4 21.2.8 1.6 2.4 3.8 1.6 2 1.2 1.1 2.8 1.3 6.4.3z"/><path d="M556.3 265.3l5.4 3.8 15.9-2.1.4 2-.3 1.7-3.1 9.6-.6 1.3-1 1.1-2.5 2.3-11.3 5.9-3.7 2.5-.5.7-.1 1 1.6 2.5.6 1.4.3 2.1-.4 2.3.9 6.6-10.7.4-2.3-1.9-.8-1.9-1.1-.5-1 .1-4.2 2.8-1.2.1.1-1 .1-2.2-1.2-1.7-.8-.2-.9.6-.8 1.6.1 1.1.7 1.5.4 3.8.4 1.6 1.2 4.1v3l2.2 1.6.3.7.3 1.9 1.2 1.6.9 1.5 1.5 1.6 3.5 1.5.6.6.4 1.1-.5.6-6.3 2-5.2-4.6-4.6-2.8-4.5-6.3-.6-7.6.4-3.1.2-6.5 1.1-3.7.3-1.5v-8.7l-.4-1.3-1.1-1-5.2-2.5-1.4-1.2-1.1-1.5.3-2.2.6-1.1 1.3-2.1.6-1.5.7-3-.5-.9-.8-.5-8.4-2.6h-.9l-1 .4-2.4 1.3-3.8.9-1-2.5.1-1.3.7-1.6 1.3-.9 4.2-1.5 3.8-.8 5.4.1 2.8-.5 2.5.1 2.8.5 4.7-1.6 3.4-1.7 2.4 1.4.6 1.4 7.3.1 2.2-.7.2-1.5 1.9-1.9 3.2.6 3 3 1.2 2.2zm2.6 149.2l-6.5 8.8-3.7 2.5-5.1.6-1.9.6-.7.7-.1.8.3 1.3-.1.7-1.2 2.1-.9 2.3-.5 2.1.3 3.8-9.4 2-6.1 3.3-4.7 5-1.8 4.1.8 1.4 1.5 1.1.1 3.2-1.3 3-2.2 2.6-2.6 2-6.2 3.2-10.9 14.4-4.6 3.2-9.6 2.1-4.8 2.3-4.3 4.4-2.2 3.1-.9 2.7.7 1.2 5.2 4.5 6.5 12.7.7 11.7-4.8 10.4-9.7 8.4-2.4.8-4.6.5-2.2 1.7-1.6 3.3-.5 3.7v3.6l-1.2 9.1-.4.6-2.1 4.7-.2.7-2.7 3.6-1.6 1.4-2.1.6-15.7 3.6-3.2 2.6-2.4 4.6-.6 6-4.6.2-.2.6-.7 3.2.2 1.7-.6 1.1-2.7 1.5-1.3-.1-4-1.2-6.1.1-10.6-3.9-2.2.3-1.6.8-1.9.4-2.7-.9-.3-.8-4.2-6.1-3.3-3.1-3.5-2-22.5-5.7-3.7 1.9-2.2 3.6-2.4 3.2-4.6.6-6.6 2.9-13.1 9.6-7.1 2.5-16.6-1.8-2.9 1-6.2 3.9-13.7 5.6-6.6 1.3-7.3.1-6.8-1.4-5.1-3.1-9.9-11.2-1.6-2.5-1.1-3.2-1.6-5.9-2.5-6.6-.8-3.4-1.1-.7-15-17-5-2.2-1.9.8-1.5 1.6-1.7 1.3-2.1-.3-2-1.5-.1-1 .4-1.3-.1-2.5.4-.3-.1-3.4-.4-3.1.4-1.4 1.8-2.1 1.5-2.5.3-2.4-3.4-3.3-17.6-3.9-1.9-5.4 2-10.9 3.8-11.5 7.9-15.3-5.1-8.7-7.8-8.4-4.2-7.3 1.2-3.7 5.8-6.9 1.6-5.3-.3-3.2 4.2.3 10.5 2.1 2.7-1.6 1.5 2.3 3.2 3.9 1.5 2.7-.1 1.7-.5 2.1-.3 2.4.9 2.4 2.7 1.9 3 .6 2.3 1.9 1 5.7 1 2.9 14.1 24.6 5 6.7 1.6 3.1 2.5 3.3 8.5-4.8 7.3-4.8 5.2-6.5 2.5-1.1 4.2-4.3 3.1-4.4 2.6-4.5.9-2.5-.4-4.2.1-1 3.8-4.2 2.7-3.1 7.7-4.5 1.7-2.9.2-2.1 1-.9 7.2-2.4h1.3l.6.7.2 2.2-.3 2.6.3.8 1.3.4 1.3.7 8.3-2.8 5.1-3.6 2.1-2.5 1-.8 3.2-.7 9.6-.1 5.3 1.6 1.9.7 1.4-.1 1.9-.5 7.9-3.3 3.2-2.9-2.8-1.7-1.3-1.7 5-3.2 7.5-2.2.7-.8 2.4-1.9.4-.7.7-2.1 1.7-1.2 4.6.6 14.6 7.1 2.6-.2 27-19.7 2.6.8h3.3l2-.4 4.7-1.8 8.1-5.7 6.1-4 .7-.9.8-1.6-.3-2.1-1.4-2.7v-.5l1.2-1.1 7.2-4.5 5.7-.3 18.8 3.6 1.9 1.6 5.3 2.4 6 .6.3.2.2 2.5.8.5 1.1.4 1.3-.1 11.5-2.3 5.3-1.9 10.2-5.8 2.3-2 3.5-2.2 2.3-2.4 1.1-1.6 1-1.8 1.1-7.1 1.3-5 .9-2.6 1.3-2.7 4.3-5.3 2.4-.4 1.8.9.5.8.4 1.5-.1 2.7-.5 4-.8 3.5-1.5 5.2-.3 1.6.3 1.8.6 2 2.4 5.9 3.3 5.3 8.8 4.7zm250.3-298l-5.8 2.4-3.4.6-4.1-.2v1.3l.3.7 7 3.5.4 3-9.5 5.9-.4-4.6 1.1-1.2.1-1.5-.2-1.2-.9-1.2-1.1-1.1-1.4-1.2-.8.2-1.4 1.3-1.4 1-.7 2.2 1 .9.3.7-.5.6-2.6 1.3-2.3 1.3-.7 3.7-1.1 8.2 1.5 4.9-7.1-.2-23.5-11.1-1.4 1.4v2.4l-.2 4-1.2 3.1-1.2 2.3-1.8 2.2-3.3 2.6-.7 1.9-.6 7.7.4 2.8.8 2 1.7 2.3 1.1 2 .8 2.6.4 1.4 1.1 3.4-3.7 1-1.4-.1-2.3-1.7-6.8-3.8-11-1.4-2-.6-1-.6-1.6-2 2.6-3-1.6-7.4.1-2 .5-1.3 1.4-1.6 1.7-2.9-.3-1.1-.7-.5h-1l-2.2.5-2.9-5.7.4-.6 2.7-2.6 1.7-3 2.2-4.8 1.1-2 .8-.9 2 .3 7.9-1.2h1.6l3.6 1.2 10-2 7.9-1.3h4.9l2.6-.8 1.4-1.5.4-1.7.7-2 1.1-2 2.6-.6 1.9-.8 11.1-5 4.6-4.2 1.2-.6.9-.1 1 .6 1.9.4.6.4 2.2 1.8 3.5 1.3 9 1.6z"/><path d="M779.7 100.1l4.3 3.8 5.1-1.5 7.8-6.4.4.4 6.6 9.9 8.2 3.8 6.3 5.6-.1 13.9-2.2 5-8.6 10.8-1 3-1.1 5.7-.9 2.3-7.5 9.1-10.8 18.3-3.8 11-.5 11 1.7 5.4 2.4 4.7 1.8 5.2.1 6.9-2.1 4.4-3.4 3.5-2.5 3.5.2 3v1.3l1.7 5.4 2.5 5.4L791 266l1.3 2.6-1.7.4-1.3.8-1.1 1.2-.8 3-.6 1.3-2.1 1.7-1.1 1.4-1.5 2.7-1.1 2.5-.7 3.9.1 1.5-.3 1.7-.6 1.8-2.9 5.1-2.8.9-.6 2.7-.7.3-1.6-.2-2.5-1.9-4.5-2.2-29.6-4.4-1 .6-1.9-.2-3.5-4.2.4-3-.2-1.3-1.7-3.8-.8-2.9-.1-1.2.7-1.8 1-9.3-.4-2.3-.9-2.9-2.9-6-1.9-2.5-1.8-1.4-1.6.2-1.6.5-2.5 1.3-4.1.4-1.4-.4-4.1-2.4-.2-.6.6-.8 7.6-5.3 1.3-4.6 1.1-15.5-23.3-4.5-3.4-2-11.6-10.6h-1.3l-3.5 1.9-5.9-6-1.4-2.7.1-2.8.6-3.1-6.9-2.2-20.8 2.1-12.1-2.1 3-7.6 4.1-3.2 9.1 1.3 2.9-.3 13.1-6.1 2-1.8 1-1.6-.1-2.7 1.2-2 1.7-2.2 2.8-2.5 1.4-1.6.7-1.3-.7-2.5-1.3-7-5.2-9.6-1-1.4 2.3-.1 1.8-2.5 3-5.5 2.2-2.6 2.5-5.6.8-1.2 1-.3.8.3 1.6-.2 2.2-1.1 1.2-.3 1.5-.2.8-.5.4-.8.1-1.1-.3-3.3v-1.2l-6.1-4.4-.5-1.1-.2-1.6.7-1.5 1.3-.5 2.2-.6 1.8-2 .8-.2 1.7.6 1.4.1 3.8-.6.7.1 1.6 2 .6.2 2.8-.3 2.8.7h2.8l3.6-.6 1.8-1 1-1.2 2-3.7 3.3 4 7.2 3.4 8.6 2 4 .5.8-.7 2-1.1 1.3-.1 1.9.4 1.5-.4 1.2-.9 1.3-2.3.8-2.5-1.1-4.9-1.6-.3-1.2.5-1.4.3-2.4-.4-.8-.5v-.9l.8-.5.8.2 2.1-1.8 2.7-.8 1.8-.1.6-.2 1.1-1.1 2.2-.8 3.1-.1 2.1 3.3-.1 2.5-.8 1.8.6 1.6 4.9 6.4 1.9 1.6 1.5.5 1.5-3 11.3-8.6 2.2 1.5-1 3.1.4.9 2.2 1.1 1.9-.1 2.4-.9zm-31.8 80.7l2.9 2.1 1.9.8 1.6 1 1.9.4h1.5l6.2-2.4 4.3-2.2 3.2-2.3 3.1-3.4 4.3-8.2 3.8-18.6-1.5-4.9 1.1-8.2 6-2.4 2.8-.4 3.1 1.6 9.5-5.9-.4-3 .4-2.4.5-.8 5.1-5.1-9-1.6-3.5-1.3-2.2-1.8-.6-.4-1.9-.4-1-.6-.9.1-1.2.6-4.6 4.2-11.1 5-1.9.8-2.6.6-1.1 2-.7 2-.4 1.7-1.4 1.5-2.6.8h-4.9l-7.9 1.3-10 2-3.6-1.2h-1.6l-7.9 1.2-2-.3-.8.9-1.1 2-2.2 4.8-1.7 3-2.7 2.6-.4.6 2.9 5.7 2.2-.5h1l.7.5.3 1.1-1.7 2.9-1.4 1.6-.5 1.3-.1 2 1.6 7.4-2.6 3 1.6 2 1 .6 2 .6 11 1.4 6.8 3.8 2.3 1.7 1.4.1 3.7-1zm-37.1 348.9l-.1.2-16.1 10.9-4.1 6.2-.8 4.1.4 7.2-.7 3.9-1.7 3-2.1 1.3-4.9 1.5-5.6 4.4-1 3.6 3.9 11.1-7.2 6.8-.7 1.6.7 1.6 2.3 2.4 1.9 5.8 2 3 2.1 1.2 4.8 1 2.1 1.3 2.5 5.3-.8 5.4-5.5 10.8-7.1 8.7-6.6-1.2-7.3-3.3-8.7 2.7.8-4.9 1.3-3.8.9-3.9-.4-5.5-1.2-4.2-1.8-4.2-3.9-6.8-2.2-5.1-1.4-2-1.5-1.2-12.7-6.8-3.4-1.2-3.7-.3 1.2-2.4 3.8-8.9 6.4-7.8 3.3-7.4-5.7-7.5-3.3-1.2-6.8.2-3.5-.5-1.7-1.2-1.7-3-1.8-.6-1.4.6-3.4 3.1-1.6.9-3.9-.2-10.3-6.1-4.2-1.5-2.2-1.1-14-20.7-6.2-6.5-6.1-3.1-5.8-2.3-4.1-3.4-2.4-5.1-.9-7.8.8-8.3 3.6-16.6.7-9.2-.1-9.7-.9-7.3-3.1-4.4-6.3-1.1-2.9.6-.3-3.8.5-2.1.9-2.3 1.2-2.1.1-.7-.3-1.3.1-.8.7-.7 1.9-.6 5.1-.6 3.7-2.5 6.5-8.8 7.3-6.1.5-1.7.8-2.1 1.8-5.1 1.3-1.5 1.6-.4 2.6-.2 19.3 4.5 9.2-4 7.4 3.4 17.1 1.5 13-2.2L652 396l2.2-1.5.5-1.1-.2-1.1-.5-1-.2-1.4.3-1.6 1.6-2.3 1.6-.8 1.7-.7 2.1-.5 1.9-1.8h1.2l.6.5.3 1.7.6 1.6 1.1 1.8 7.5.7 1.1.5 1.6 1 2.5 1 2.9 2.8.5.8.2 1-.4 1.2-1.7 3.1-.7 1.9-.7 2.4-.3 2-.5 3.8-.8 4 1.3 6.2 1.3 3.2 2.3 4 2.4 3.5 1.6.7 1.5-.6 3.3-.5 2.5 4.8.1 1.9-.1 2.6-.5 3.5.4 2.7.8 2.3 1.1 2.1.2 1.3-.5 1.5-.7 3.1-.9 2.6.2 9.7-.8 2.2-3.4 6.4-.4 2.2.2 2.1.4 2-.4 1.6-.9 2.1-1.8 2.1-.1 1.3.3 1.6 1.8 4.5 2.3 4.6.2 2.8-.6 4.1.4 1.7.7 1.7 1.8 2.9 1.4 1.3 3.7 2.5 4.6 5.7 1.9 1.9 5.2 3.8z"/><path d="M727.9 289l-6.2 5.5-3.8 5.3-1.1.7-1.8.8-4.2.1-3.2.7-7.6 5.2-2.2.6-1.8-.7-1-1.4-1.6-1.1-2.1-.8-3.7-.3-2.2.4-1.4.8-.6.7-.1 1.2v2.5l-.3 1.1-.6 1-2.3 5.2-1.7 2.2-3.1 2.9-5 2.4-12.3 3.8-2 .1-.9-.6-.5-2.2-.4-.8-1.1-.2-2.3-.9-4.6-.2-.1-6.2-.2-1.6.3-2.1 5.8-4.3 1.7-1.6 2.3-.3 4.7-1.9 1.5-1.3.9-1.8.1-3.2-.1-1.9-.9-3-3-5.4 4.7-2.4 1.1-3.9.8-4.3-.4-2.1-.8-1.4-3.6-2.5-1-1.1-1-1.7-.1-1 .7-1.1-.1-.5-6.2-9-3.1-2.8 1.1-3.7 2.5-1.8 5.5-2.6 1.9-2.2 1.8-2.7 2.2-4.5.2-2.4-.6-4.2 1.1-1.8.5-1.3.6-3.6v-1.9l4.3-13.7 3.5-1.9h1.3l11.6 10.6 3.4 2 23.3 4.5-1.1 15.5-1.3 4.6-7.6 5.3-.6.8.2.6 4.1 2.4 1.4.4 4.1-.4 2.5-1.3 1.6-.5 1.6-.2 1.8 1.4 1.9 2.5 2.9 6 .9 2.9.4 2.3-1 9.3-.7 1.8.1 1.2.8 2.9 1.7 3.8.2 1.3-.4 3z"/><path d="M710.8 529.7l-5.2-3.8-1.9-1.9-4.6-5.7-3.7-2.5-1.4-1.3-1.8-2.9-.7-1.7-.4-1.7.6-4.1-.2-2.8-2.3-4.6-1.8-4.5-.3-1.6.1-1.3 1.8-2.1.9-2.1.4-1.6-.4-2-.2-2.1.4-2.2 3.4-6.4.8-2.2-.2-9.7.9-2.6.7-3.1.5-1.5-.2-1.3-1.1-2.1-.8-2.3-.4-2.7.5-3.5.1-2.6-.1-1.9-2.5-4.8-3.3.5-1.5.6-1.6-.7-2.4-3.5-2.3-4-1.3-3.2-1.3-6.2.8-4 .5-3.8.3-2 .7-2.4.7-1.9 1.7-3.1.4-1.2-.2-1-.5-.8-2.9-2.8-2.5-1-1.6-1-1.1-.5-7.5-.7-1.1-1.8-.6-1.6-.3-1.7-.6-.5H663l-1.9 1.8-2.1.5-1.7.7-1.6.8-1.6 2.3-.3 1.6.2 1.4.5 1 .2 1.1-.5 1.1-2.2 1.5-11.2 4.6-13 2.2-17.1-1.5-7.4-3.4.7-4.4-.5-2.6-1.2-4-.5-1-2.6-1.7-.7-1-.5-1.3-.2-1.8.1-1.8 1.6-5.1 1.6-3.6.4-1.7.1-1.3-.2-1.9.8-1.3 1.5-1.4 3.6-1.6 2.2-.4 2.2-1.3 5.1-6.7 2.2-2.3 3.9-1.4 3.3 1.2.9.1 3.3-.8.8-.5.7-1.1-.2-2.9.3-1.2 1.8-3 2-2.6.4-2.7-.2-3.8.6-.8 1.7-.4 1.5-.6 1.5-1.6 2.5-1.4 2.4-3.2 4.6.2 2.3.9 1.1.2.4.8.5 2.2.9.6 2-.1 12.3-3.8 5-2.4 3.1-2.9 1.7-2.2 2.3-5.2.6-1 .3-1.1v-2.5l.1-1.2.6-.7 1.4-.8 2.2-.4 3.7.3 2.1.8 1.6 1.1 1 1.4 1.8.7 2.2-.6 7.6-5.2 3.2-.7 4.2-.1 1.8-.8 1.1-.7 3.8-5.3 6.2-5.5 3.5 4.2 1.9.2 1-.6 29.6 4.4 4.5 2.2 2.5 1.9 1.6.2.7-.3.6-2.7 2.8-.9 2.9-5.1.6-1.8.3-1.7-.1-1.5.7-3.9 1.1-2.5 1.5-2.7 1.1-1.4 2.1-1.7.6-1.3.8-3 1.1-1.2 1.3-.8 1.7-.4-1.3-2.6-6.7-11.5-2.5-5.4-1.7-5.4v-1.3l5 1.5 13.5 2.2 4.5-1.4 4.2 1.1 11.6-1.5 3.7.6 41.8 13.2-.4 3.7.9.8 1.4-.1.9 1v2l-1 3.1-.5 7.6-.7 3.5.4 3 2.8 4 5.5 4.2 23.6 7.7 8.6 8.2 4.9 2.9 9.6 3 4.6.2 5.7-1.6 9.6-4.9 2.3-3.4.6-2.4.2-2.8 1-4.1 3.4-5.7 3.6-.6 4.3 1.1 5.5-.3.1-6 3.9-7.5 5.5-6.4 6.5-3.7 1.2-.2 1.2.2 1.2.8 2.3 2.5 4.6 7.5 7.5 6 2 2.3 1.2 5.5-2.8 11 .6 6.9-1.2 10.5-.8 2.9-1.3 2-4.8 5.9.4 4.8 1.6 4.7.5 4.4-2.7 4.1-3.7 2.4-.9 3 .2 3.7-.5 4.6-2.1 3.8-2.4 2.3-1.1 3 1.9 6.2 4 4.7 9.4 1 4.6 3.9 1.7 6.2-.2 8.3-1.7 8-3.1 5.1-4 .8-15.9-4.2-7.7.8-2.8-.5-2.5-1.2-1.4-1.4-1.1-1.7-1.8-1.5-9.1-3.2-1-3.5 1.2-6.6-.4-3.6-3.5-2.9h-5.7l-21 6.1-2.1 1.2-.9 2.3-2.8 10.6-1.8 2.4-4.8 4.8-1.9 2.9-.3 2.3v7.1l-1 3.4.3 3 .5 2.3 1.1 1.8 1.9 1.3-3.9 6.7 3.5 4.3 6.5 2.6 9.9 1.9 3.8 1.5 1.6 3.6-1.7 7-1.6 2.2-4.6 4.1-1.7 3.2-1.1 4.3-.1 2.9.9 2.7 2 3.6 9.1 9.3 2.8 5.8-2.9 6.1-6.1 3.9-9.4 3.5-7.3-.1-.2-7.2-2.2-5.5-8.7-7.8-3.3-4.4-1.4-7-.1-6.3-1.5-5.3-5.5-3.6-4.6-1.2-4.3-.3-9.6 1.6-14.7 7.6-4.6 1.5-2.9-.6-5.3-3.2-2.4-.1-2.4 2.7-.5 3.7.4 3.6-.1 2.6-3.4 4.7-4.2 1.6-25.3-.3-5.2-1.8-4.6-3.2-2.9-3.9-4.4-11.6-1.9-1.6-4.9-2.8-1.6-1.5-.5-1.8.4-4.9-1.4-30.9-.7-2-1.7.4-3.6 2.7-1.5 2-.8 2.3-1 1.9-2.4 1-1.7-.7-5.7-5.4-.1-4-4.4-1.2-10.8 1.3-4.2 4-3.8 7.7-1.8 7.9 2.2 4.3 2.9 2.1.4 3.2-.5 4.1v4.5l3 11.4.3 4.2-1.4 7-6.5 13.6-3.3 11.5-2 3.2-2.6 2.4-2.6 1.3-2.4 1.7-1.2 3.2-1.1 3.7-1.6 3.1zM575.4 68.2l2 2.5 3-1 .5-.9V70l-2.8 7.5-1.7 2.6-1.6-.2-1.9-2.6-1.5-1.4-.9-.6.2-2.5 4.7-4.6zm66.4-24.4l-6.7-3.6-2.6 1.1-2.1-1-2.6 6.3-1.5 1.7-.9.7-1 .3-.9-.1-1.2.6-.9 1-1.1.7-1.3.5-9-.3-2-.7-1.5-1-1.4-2.1-.9-1.8-.4-5.3.7-5-9.5-.3-1.9 1.9-1.5 3-3.8 3.5-3.1 4.2-2.5-1.1-3.1-.5-10.8 1.9L565 50l-3 2.2-3.3 1.7-3.9.2-4.6-2.6-5.7-4.4-1.1-.1-3.5-1.3 1.5-3.6-.6-2.8-.9-2.4.2-2.4 2.2-2.5 5.6-3.1 2.4-2.2 1.6-6.6 1.1-2.4 2.9-4.4 1.8-1.1 2.5.1 11.9-2.4 3.3-1.7-2.1-5.2 3.6-2 5.5.3 4.1 1.9.3 2.4.2 4.2.8 4 2.2 1.7 2.7-1.9 1.2-7.1 2-2.2 2.8 1 2.1 3.2 1.8 3.9 1.6 2.6 2.3.5 2.5-.5 2.1.4 1.5 3.3-.6 1.3-2.9 4.4-.8 2.2 1 2.7 1.7 2.2 1 4.6 11.7-.2-1.8-2 2-6.4 5.9.2L637 32l5.8 5.4-4.1.9v2.3l3.1 3.2zm29.5 164.4l-4.3 13.7v1.9l-.6 3.6-.5 1.3-1.1 1.8.6 4.2-.2 2.4-2.2 4.5-1.8 2.7-1.9 2.2-5.5 2.6-2.5 1.8-1.1 3.7 3.1 2.8 6.2 9 .1.5-.7 1.1.1 1 1 1.7 1 1.1 3.6 2.5.8 1.4.4 2.1-.8 4.3-1.1 3.9-4.7 2.4-10 5.7-1 .3-5.5 2.6-1.5 1.5-.9.3-.9-.6-.5-2-.2-3.5-.6-1-1.3-.1-1.3-1.4-.7-1.2-.1-1.5.2-1.4-.7-1.2-1.5-.7-6.3.2-2-.4-1.5-1.2-1.1-.6-1.6.4-2.6 1.4-1.7.6-2.1 1.1-2.3 1.9-1.4.6-1.3-.5-1.7-2.4-1-3.6-.7-.9-1.1-.5-5 .4-1.6-.3-4.7-1.7-1.9-.5-1.3-.6-1.7-1.3-.9-2.9-.8-4.6-.3-1.1-2-1-6.5.3-15.9 2.1-5.4-3.8 7.3-3.8.7-1.7.8-2.5-.7-1.6-.8-1.2-8.5-7.8-8.9-2.4-3.4 1.6-2.4-1.3-1.2-1.6-.4-1.8.4-1.1 1.9-2.1.8-1.1.3-1.2.1-1.7.3-1.2.6-1.2 1.2-1.1 6.8-4.2 2.3-1.7 2.3-1.1 1.5.6 2.3.2 3.9 8.8 11.4-1 1.2.2.9.7 1.8 1.8h2l2.6-.6 5-1.8 3-.6 3-1.2 2.4-1.9 6.2-7.5 1.7-4.8 4-4.2-4.1-2.8-.4-1.8-1.2-1.8-.3-1.5.5-1.9 1.3-1.5 2.2-2 8.6-5.6 9.6-1.9 12.1 2.1 20.8-2.1 6.9 2.2-.6 3.1-.1 2.8 1.4 2.7 5.9 6z"/><path d="M641.8 43.8l6.6 5 5.4 1.4 8.7-.8 8.1-2.6 3.5-3.9 4.2-1.6 24.6 2.8h12.2l3 4.7h.2l2 2.8 36.4 21.8 2.1 2.2.4 1.6 3.4 8.4.9.2 16.2 14.3-2.4.9-1.9.1-2.2-1.1-.4-.9 1-3.1-2.2-1.5-11.3 8.6-1.5 3-1.5-.5-1.9-1.6-4.9-6.4-.6-1.6.8-1.8.1-2.5-2.1-3.3-3.1.1-2.2.8-1.1 1.1-.6.2-1.8.1-2.7.8-2.1 1.8-.8-.2-.8.5v.9l.8.5 2.4.4 1.4-.3 1.2-.5 1.6.3 1.1 4.9-.8 2.5-1.3 2.3-1.2.9-1.5.4-1.9-.4-1.3.1-2 1.1-.8.7-4-.5-8.6-2-7.2-3.4-3.3-4-2 3.7-1 1.2-1.8 1-3.6.6h-2.8l-2.8-.7-2.8.3-.6-.2-1.6-2-.7-.1-3.8.6-1.4-.1-1.7-.6-.8.2-1.8 2-2.2.6-1.3.5-.7 1.5.2 1.6.5 1.1 6.1 4.4v1.2l.3 3.3-.1 1.1-.4.8-.8.5-1.5.2-1.2.3-2.2 1.1-1.6.2-.8-.3-1 .3-.8 1.2-2.5 5.6-2.2 2.6-3 5.5-1.8 2.5-2.3.1-8.8-9.3 1.7-2.3.9-2.6.3-2.3 1.3-1.5v-.5l-1.8-1-2.2-2.1-1-6.7-2.2-1.4-.5-1-.5-1.9.2-1.6 1.4-1.1.9-1.4-.3-2.1.1-.8 1.3-6.9.1-.9-.6-1.1-1.5-1.3-6.6-2.7-2.2-1.3-1.3-1.5-.9-2.9 1.1-2.2.4-.6-1.2-1.7-1.3-1.4-14.1-7-2.6-.8-2-2.5-.8-1.2V63l.4-.7 1.4-1.1 1.6-.6 1.5.3 3.2 1.6 1.2 1.3 1 .8 1.7.1 1.3-2.5 2-2.2 1.6-3.3 1-1.4.4-1.6-.4-1.4-2.5-2.9-.9-4.4-3.6 1.6 2.6-6.3 2.1 1 2.6-1.1 6.7 3.6zm17.4 244.6l3 5.4.9 3 .1 1.9-.1 3.2-.9 1.8-1.5 1.3-4.7 1.9-2.3.3-1.7 1.6-5.8 4.3-.3 2.1.2 1.6.1 6.2-2.4 3.2-2.5 1.4-1.5 1.6-1.5.6-1.7.4-.6.8.2 3.8-.4 2.7-2 2.6-1.8 3-.3 1.2.2 2.9-.7 1.1-.8.5-3.3.8-.9-.1-3.3-1.2-3.9 1.4-2.2 2.3-5.1 6.7-2.2 1.3-2.2.4-3.6 1.6-1.5 1.4-.8 1.3.2 1.9-.1 1.3-.4 1.7-1.6 3.6-1.6 5.1-.1 1.8.2 1.8.5 1.3.7 1 2.6 1.7.5 1 1.2 4 .5 2.6-.7 4.4-9.2 4-19.3-4.5-2.6.2-1.6.4-1.3 1.5-1.8 5.1-.8 2.1-.5 1.7-7.3 6.1-8.8-4.7-3.3-5.3-2.4-5.9-.6-2-.3-1.8.3-1.6 1.5-5.2.8-3.5.5-4 .1-2.7-.4-1.5-.5-.8-1.8-.9-.7-4.1-1-2.7-.1-3.8 1.1-1.3 1.4-.2 3.7 1 1.7.1 1.7-.4.7-1.2.6-3.4v-1.4l-.6-2.6v-1.8l-.4-1.3-1.2-2.6-.7-1.9-.2-3 .2-1.6 1.9-4.5 7.2-2.2.4-1.5.2-1.6-.7-3.5-1.2-1-.5-1.3.9-1.9.6-2.3 1.2-4.2 1.2-2.2 1.7-1.9.9-1.7-.5-1.3-.6-.6-1.9-.4-.7-.6-2.4.3-.9-6.6.4-2.3-.3-2.1-.6-1.4-1.6-2.5.1-1 .5-.7 3.7-2.5 11.3-5.9 2.5-2.3 1-1.1.6-1.3 3.1-9.6.3-1.7-.4-2 6.5-.3 2 1 .3 1.1.8 4.6.9 2.9 1.7 1.3 1.3.6 1.9.5 4.7 1.7 1.6.3 5-.4 1.1.5.7.9 1 3.6 1.7 2.4 1.3.5 1.4-.6 2.3-1.9 2.1-1.1 1.7-.6 2.6-1.4 1.6-.4 1.1.6 1.5 1.2 2 .4 6.3-.2 1.5.7.7 1.2-.2 1.4.1 1.5.7 1.2 1.3 1.4 1.3.1.6 1 .2 3.5.5 2 .9.6.9-.3 1.5-1.5 5.5-2.6 1-.3 10-5.7z"/><path d="M627.8 46.6l3.6-1.6.9 4.4 2.5 2.9.4 1.4-.4 1.6-1 1.4-1.6 3.3-2 2.2-1.3 2.5-1.7-.1-1-.8-1.2-1.3-3.2-1.6-1.5-.3-1.6.6-1.4 1.1-.4.7v.7l.8 1.2 2 2.5 2.6.8 14.1 7 1.3 1.4 1.2 1.7-.4.6-1.1 2.2.9 2.9 1.3 1.5 2.2 1.3 6.6 2.7 1.5 1.3.6 1.1-.1.9-1.3 6.9-.1.8.3 2.1-.9 1.4-1.4 1.1-.2 1.6.5 1.9.5 1 2.2 1.4 1 6.7 2.2 2.1 1.8 1v.5l-1.3 1.5-.3 2.3-.9 2.6-1.7 2.3 8.8 9.3 1 1.4 5.2 9.6 1.3 7 .7 2.5-.7 1.3-1.4 1.6-2.8 2.5-1.7 2.2-1.2 2 .1 2.7-1 1.6-2 1.8-13.1 6.1-2.9.3-9.1-1.3-4.1 3.2-3 7.6-9.6 1.9-8.6 5.6-2.2 2-1.3 1.5-.5 1.9.3 1.5 1.2 1.8.4 1.8-5 .6-6.5-2.8-1.6-1.3-.9-1.4-.6-1.2-2.5-3.1-3.8-3.3-4-4.5-8.7-1.4-6.3 1.2-4.1 1.5h-2.3l-2.6-.4-8.8-2.9-1.5-1-.6-1.3-.3-1.4-1-3.5-5-10.6-.5-2.6 1.9-.2 1.5-.6 3.8-2.4 4.1-5.3 2-3.6.7-3.1-6.6 2-2.6-2.8-.7-2.3.5-4.6.1-2.1-1-1.1-4.4-2.3-1.9-1.7.5-1.8 5.8-6 1-2.7-.6-1.3-3-4-1.7-5-4.8-10.5-1.2-4.5.1-3.4 1.1-6.2 3.7-6 4.8-4.8 5.1-8.3.3-2 6.2-1 .3-1.6 2.5-5.6 6.8-4.5 6.6-.7 3.4 3.2 2.7 4.5.4.5-4.7 4.6-.2 2.5.9.6 1.5 1.4 1.9 2.6 1.6.2 1.7-2.6 2.8-7.5v-1.2l.9-1.7.3-2.4-.1-2.3.2-2.3-.1-1.1-.5-1.3-.3-1.5.5-1.8.8-.7 1.1-.5h1l.2.5.1 2.1 1.5.7 1.2-7.8-2-.2-1-.4 3.1-4.2 3.8-3.5 1.5-3 1.9-1.9 9.5.3-.7 5 .4 5.3.9 1.8 1.4 2.1 1.5 1 2 .7 9 .3 1.3-.5 1.1-.7.9-1 1.2-.6.9.1 1-.3.9-.7 1.5-1.7z"/><path d="M604.6 209.4l4.1 2.8-4 4.2-1.7 4.8-6.2 7.5-2.4 1.9-3 1.2-3 .6-5 1.8-2.6.6h-2L577 233l-.9-.7-1.2-.2-11.4 1-3.9-8.8-2.3-.2-1.5-.6-2.3 1.1-2.3 1.7-1.2-3.5-2.3-1-1.9-.5-2.7-4.4-1.6-11.4-1.2-13.8.3-2.9 2.9-5.6 1 3.5.3 1.4.6 1.3 1.5 1 8.8 2.9 2.6.4h2.3l4.1-1.5 6.3-1.2 8.7 1.4 4 4.5 3.8 3.3 2.5 3.1.6 1.2.9 1.4 1.6 1.3 6.5 2.8 5-.6zM183.4 352.9l-1.5 1.3-1.1-.5-.5-2.1-1.1-1.1-.9-1.6.5-1.6h1.5l1.4-1.9 1.9-1.9h1.4l1.3 1.4.2 2.4-.4 2.4-1.6 2.1-1.1 1.1zm23.4-7l-1.6 3.3-1.7 1.6-1.6.8-3.9-1.6-2.5-1.4-1.7.6-2.5 2.4-1.9.2H188l-.6-1.3 2-1.9 4-1.9 1-2.1 2-2.7 1.3-1 2.3-3.5 1.1-.8 1.3 1.3.7 1.6 1.5.6 1.8 1 1.1 2.4-.7 2.4zm-26.4-32.6l24.2-20 9.3 9.2.8 1.1-.2.5-.9-.4-1.5.6-1.4 1.1-.4.9 2.1.3 1.3.6 2.3 1.9.7 1-.1 1-1.3 2.2-1.4 3.2-.5 2.1-.8 6.7.7 1.2 1.7-.8 1.3.2.4 1.2-.9 1.5-1.6 3.9-1.2 1-1.7.5-1.2.2-3.1-.1-1-.1-3-1.9-1.6.5h-1l-1.5.6-1.3.9-1.8.3-1.7-.4-2.3-1.1-2.5-.5-2.8-1.3-.1-1.1 1-1.5.1-.6-.7-.9-.9.2-1.1-.5-2.5-2.5-.8-2.4-1.1-8.5zM284 284.4l-1.8.4-.8-1.6 3.3-1 .1 1.2-.8 1zm1.8 122.3l-6.6 5.3-12.7 3.9-2.2 1.9-1.6 2.2-3.5 4.2-2.3 1.9-1.9 1.2-6.5.8-1.6.7-1.5.8-3.8 3.3-2.2 2.5-1.1 1.9-.9 2.8-5.1 2.5-1-.9-.4-1.2-.8-1.1-.7-1.5-.6-3-.7-3.3-1.5-3.7-12.3-9.2-3-1.2h-2.4l-3.2 3.5-1.6 1.2-1.9.9-3.2.5-1.7-.4-1-.5-2.5-3.5-1.5-4.4 1.9-3.8.5-.2 2.9-.1 2.4.4 2.7 1.8.7-.6.6-1 5.5-6.3 1.2-1.6.4-.9-1.2-.2-1.7.5-1-.3-1.5-1-2.5-2.6-2-.9-2.5.7-3.2.3-1.8-1.3h-1.3l-1 .3-1.9.8-.2-1.5.2-1.4-.2-2.9.8-.6.1-.7-.6-3.5-.3-3.6v-3.7l.2-1.5.5-3.4 2.6-.3 3.6-2.5 2.5-.5 3.4-.1 1.3-.3.5-.5-.3-1.3 1.2-3.3 7.7-11.3 6.4-8.8.8-2.7-.2-.3-2.8-.7-1.6-.9-.6-1.2.3-.6 2.9-.8.9-.7.8-1 6-8.6-.4-4.5 1.3-3.3.8-1.3 2.3-1.8 2.2-2.7.7-1.3.2-1.1-.5-.3-1.1.3-.6-.5-.8-1.2-.6-2.9v-1.5l.4-1.4.7-1.4-.3-1.3-.4-1.1-1-.9-1.4.3-1 .7-.1 1.3-.5.8-1.1-.6-3.6-4.9-2.1-2-6.8-9.6 8.5-7.1 13.9 19.4 1.1 2.2 2.5 1.4 3.1 4.6.3 2.4.3.7 3.8-2 1.9-2.3 1.2-2.3.5-1.7.5-2.9.7-1.5.9-1.1 1.3.1 1 1 .6-.2 1.6-1.9.4-.9-.1-.6-1.4-.6-1.3-1-4.6-9.6-.9-2.3-1.5-11 17.8-1.7 11-4.5 5.1-2.2 2.1.6.8 1.2.3 2.1 1.4 2.1-.5 1.2-2.3 2.9-1.2 1-2.8 1.4-.5.5.1.9 1.2 2.1.6 1.3.2 1.4.1 2.1.6 3.4-.3 1.6-.5 1.9-1.6 3.3.1.8.8.4h1l2.3-.4 11.4 3.3 17.7 1.5 1 7.3-1 2.7-2.1 1.7-1.3.7h-1.3l-1.1-.9.1-.8-1.7-.6-1.7 1.4-.2 1 .7 1.5.6 3.3-.1 4.8-2.6 10.7-.5 5.1-.2 8.4.5 4.8.9 2.4.5 1.1.7.6 3.8 1.5 1.1.7 1.9 1.5.9 1.7.7.6.8.3h1.7l1.1 1.3 2.4 1.5.3.6-.5 2.2-.9 7.9.4 1.2-.8 1.2-1.9 2-1.7-.1-1.9-.7-3.2-.7-1 .7-2.4 2.8.8 9.5-.4 4.5-.5 2.8-1 1.3-1 .4-2.1.1-3.9.4-9 7.9z"/><path d="M202.7 456.1l-2.7 1.6-10.5-2.1-4.2-.3-.2-2.3 17.6 3.1zm1.9-162.8l7.1-5.9 6.8 9.6 2.1 2 3.6 4.9 1.1.6.5-.8.1-1.3 1-.7 1.4-.3 1 .9.4 1.1.3 1.3-.7 1.4-.4 1.4v1.5l.6 2.9.8 1.2.6.5 1.1-.3.5.3-.2 1.1-.7 1.3-2.2 2.7-2.3 1.8-.8 1.3-1.3 3.3.4 4.5-6 8.6-.8 1-.9.7-2.9.8-.3.6.6 1.2 1.6.9 2.8.7.2.3-.8 2.7-6.4 8.8-7.7 11.3-1.2 3.3.3 1.3-.5.5-1.3.3-3.4.1-2.5.5-3.6 2.5-2.6.3-.5 3.4-.2 1.5v3.7l.3 3.6.6 3.5-.1.7-.8.6.2 2.9-.2 1.4.2 1.5 1.9-.8 1-.3h1.3l1.8 1.3 3.2-.3 2.5-.7 2 .9 2.5 2.6 1.5 1 1 .3 1.7-.5 1.2.2-.4.9-1.2 1.6-5.5 6.3-.6 1-.7.6-2.7-1.8-2.4-.4-2.9.1-.5.2-1.9 3.8 1.5 4.4 2.5 3.5 1 .5 1.7.4 3.2-.5 1.9-.9 1.6-1.2 3.2-3.5h2.4l3 1.2 12.3 9.2 1.5 3.7.7 3.3.6 3 .7 1.5.8 1.1.4 1.2 1 .9 5.1-2.5.9-2.8 1.1-1.9 2.2-2.5 3.8-3.3 1.5-.8 1.6-.7 6.5-.8 1.9-1.2 2.3-1.9 3.5-4.2 1.6-2.2 2.2-1.9 12.7-3.9 6.6-5.3 1 2.8 1.2 1.9.3 1 .1 1.3-.1 2.3v2.1l-.2 2.6-.7 2.6-1.7 3.2-1.1 1.5-.6 1.3-.2 1.2.5 4.3-.1 2-.8 2.2-2 2.7-3.6 2.2-.7 1.1.7 2.8.7 1.9.5 2.6v1.7l-2.5 7.9 2.2 1.7 3.2 3.3 1.3.6.6.9.1 1.1-1.1 1.8-.5 1.2.3 6.4-2.7 3.1-3.8 4.2-.1 1 .4 4.2-.9 2.5-2.6 4.5-3.1 4.4-4.2 4.3-2.5 1.1-5.2 6.5-7.3 4.8-8.5 4.8-2.5-3.3-1.6-3.1-5-6.7-14.1-24.6-1-2.9-1-5.7-2.3-1.9-3-.6-2.7-1.9-.9-2.4.3-2.4.5-2.1.1-1.7-1.5-2.7-3.2-3.9-1.5-2.3h.2l10.2-.5 4.8-6.1-4.2-6-10-5.4-19.2-6.4-36.3-13.1-5-1-19.2 1.5-3.5 1.4-13.1 10.8-3.7 2.1-14.7 1.9-4 1.9-3.6 3.3-31.2 48.3-.7.2-12.3-10.2 4-8.8-.3-3.6-2.7-4.8-3.3-3.5-11.9-7.4 2.5-2.4.4-2.2-.4-2.1v-2.5l-.2-1-1-2.8V436l.9-1.9 2.5-2.7 7.7-13.3 7.8-9.9-5.3-6-.7-4.3 3-3.9 29.7-27.3 15.8-8.8 2.2-1.8 5.9-6.6 7.3-3.9 2.3-1.8 2.5-3.1.9-2.7-.1-5.5-1.7-1.8-1.1-1.6-.6-1.8.3-1.6 3.5-10.5 1.5-2.8.4-1.1 4.1-.7 11.4-.6 1.9-.3 2.2-1.2 3.1-2.4 10.8-5.7 6.7-2.3 3.4-2.3 5.8-4.9 13.1-7.9.7 4-.5 3.1.6 2 1.2 1.6 1.8 1.5.6 1.7.2 1.8-.1 3.1.8 3.4 3.6 8.1 1.1 8.5.8 2.4 2.5 2.5 1.1.5.9-.2.7.9-.1.6-1 1.5.1 1.1 2.8 1.3 2.5.5 2.3 1.1 1.7.4 1.8-.3 1.3-.9 1.5-.6h1l1.6-.5 3 1.9 1 .1 3.1.1 1.2-.2 1.7-.5 1.2-1 1.6-3.9.9-1.5-.4-1.2-1.3-.2-1.7.8-.7-1.2.8-6.7.5-2.1 1.4-3.2 1.3-2.2.1-1-.7-1-2.3-1.9-1.3-.6-2.1-.3.4-.9 1.4-1.1 1.5-.6.9.4.2-.5-.8-1.1-9.3-9.2zm2.2 52.6l.7-2.4-1.1-2.4-1.8-1-1.5-.6-.7-1.6-1.3-1.3-1.1.8-2.3 3.5-1.3 1-2 2.7-1 2.1-4 1.9-2 1.9.6 1.3h1.4l1.9-.2 2.5-2.4 1.7-.6 2.5 1.4 3.9 1.6 1.6-.8 1.7-1.6 1.6-3.3zm-23.4 7l1.1-1.1 1.6-2.1.4-2.4-.2-2.4-1.3-1.4h-1.4l-1.9 1.9-1.4 1.9h-1.5l-.5 1.6.9 1.6 1.1 1.1.5 2.1 1.1.5 1.5-1.3zm36.8-72.6l16.7-13.8 9.1 3.7 1.5 11 .9 2.3 4.6 9.6 1.3 1 1.4.6.1.6-.4.9-1.6 1.9-.6.2-1-1-1.3-.1-.9 1.1-.7 1.5-.5 2.9-.5 1.7-1.2 2.3-1.9 2.3-3.8 2-.3-.7-.3-2.4-3.1-4.6-2.5-1.4-1.1-2.2-13.9-19.4zm97-151.8l-9.3-4.7-.6-.5-.6-1 9.2.4 2.2-.8-.9 6.6zm0 0l12.4-.5 3.3-2.2.1-1.2-.2-1-2-3.6-1-.8-1.5.1-1.2-.5-.7-.9-1.2-1.8 1.2-1.6.8-3-.4-1.9-1.8-2.3-1.1-2-.1-2.1 2.6-.7 3.4 1.2 1 .6.3 7.3.8 2.6.8 1.5 3.6.1 14-2.9-.1-8.7-1-2.2-1.8-.4-4.2-1.6-3.6.4-.1-.7-1.6-2.2-.5-1.3.3-1.1 1.3-.7 2.3.5 1.7-.6 1-1.8-.1-3.3h-.7l-3.7-2.8-.5-.2 8.4-7 1.3.7 6.7 4.8 2 .5 2.2.3.6 1.2 2.2 1.9 3.9-2.6 1.2-.4 1.1.5 1.3 1.5 1.7 1.4 2.2 1.3 1.5-1.7v-5.5l3.2 1.8 4.9.6 9.7-2 .7.5 8.1 4 1 .2 1.3 1.1-.1 1.6.1 1.9.5 1.9.6 1.1 3-.4 5.6-5.1.5-.9.3-3.1.3-1.4.6-.5 1.3-.2 3.2.9 1.7 2.5 1.3.9 1 2.3 6.5 9.9.8 2.5 2 1.5 6.8.7v4.6l.4 2 2.8 1.9-1.1 3.5-1.1 2.1.4 2 1.4 2.4.1 1.6-1.3 1.7-4.1 3-4.7 1.3-2.9.3-1.7-.2-1.1.4-1.2 3.5-.8 1.5-.6.8-5.4 2.5-1.6 1.2-4.6 1.3-2.8 1.9-3.4 5.9-.8 2.3-4.7-1.4-1.3-.6-1.5-1-1.7-2-2.1-1.6-4.7-2.5-5.5-1.3-7.8.7-1.2-.5-.7-.8-1.2-4.2-.4-1.9-.2-2.4.2-2.7 7.3-2.2 1-.5 1.9-2.3.6-2.7.1-4.2.7-1.8 2.4-1.9.7-1 1-2 1-1.4-.7-1.2-.7-.8-9.5-5.9-1.7-.1-.1 1.3-.5.8-.9.7-6-.7-1.8.4-1.4 3.7 3.4 1.7.7 1.9-2.5 7.3-2.8 2.8-5 .4-1.2.5-.1 1.8.2 1.3.5 1.1-.3.7-1.1.3-6.4.5-.8.4-.9.7-.6 1.7-1.8 2.9-1.6 1-2.1.6-3.6-.6-3.8-2.1-1.6-.3-3 .7-3.4 5.3h-2.4l-1.5-1.1-.3-2.6-1.5-2.5-6-4.8z"/><path d="M355.2 159.5l-1.6 5-1.3 1.6-2.1 1.5-7.2 2.3-1.6.9-1.9 1.6-2.5 2.7-2 1.8-5 2-4.7 4 .6 2.3-16.5 7.5-.6 1.5 1.1 2.7.8 1.2.6 1.9.7.9 1.1.6 2.4.9 1.1.8.5 1 1.5 3.8.2.9-.3 1.4.5.4 1.4.3 2.3-.4 1.8-.9 1.7-2.2 2-1.9 1.2-1.4 1.8-.4 1.7-1.4 1.1-.7 3.5-.7.5 4.2.3 1.6 1.7 1.7.8 1.1-.8 1.8-2.4 1.6-1.5.4-1.3-.4-1.1-.6h-.8l-2.4 2-1.4 2.1-.4 1.6.5 3.1-.2 1.6-1.7 1-3.9 1-1 .1-2.3-.6-1.4.1-2.5-.5-.7.3-.4 1.4.3 1 1.3 2.5 1.4 2.8 1.2 1.1.8.3 6.4-1.8 1.8-.3.5.1.2 3 1.9 4.3 4.1-1.3 1.4-.9.8-1.1.2-1.9-.4-1.5-1.1-2.9v-1.4l.7-.9 5.9-2.8 3.2-2.9 5.8-8.5 3.1-3 2.5-.4 5.9 4.1 10.2.4 1.3-.3 2.3-2.3 1.4-2.1 2.1-1.1.7-.7.9-2.1-.4-1.9-1.1-2.6-3.1-5.7-3.6-5.3-4-1.8-4.2-5-.1-2.5-1-3.6-3.2-3.8 14.8-1.9 8-3.6 7.5 9.1 2.6 1.6 6.1.3 4.3-1.6 2.1.8 7.6-1.9.6 6.4.2.7 2.9 5 5.7 13.2 1 1.9 1.2 2.9.7 2.6v3.3l1.9 9.8-1.8 3.2-.6 2.2-.5 3.4v6.4l-.7 6.6v2.1l.6 2.2 1.9 2.6 1.5 2.7 1.1 1.4.8 5.2 5.9.6 1.5 1.3 4.8 1-1.5 7.5-.6 1.4-.7 2.9-1.3 2-.4.8-.5 3.1-.4.6-1.2.9-.8 1.9-.7 1.2-1.1.8-1.1.2-1.8-.5-.5.2-1.7 1-1.9.8-.8.6-.4 1.4v1.9l.5 3.9-.2 2.4-.7 1.9-2.1 2-.4 1.6 2 6.4.1 2.5 3.5 3.8 14.6 11.7 2.6 4.1 2.9 3.5 1.4.4 1.7-.3 3.3-1.9 3.9-1.5 4.5.3 7 .3 4.2 1 7.5 4.9 2.3 1.6 2.6 1.2 1.7.4 1.1-.2 5.2-2 2.6-.5 11.6 1.4 4.3 1.3 2.1.1 2.4-.9 7.5-5.2 9.6-3.8 5.2 4.6 2.1 1.8 1.5-.8 3-.6h1.1l4.4 1.5-1.9 4.5-.2 1.6.2 3 .7 1.9 1.2 2.6.4 1.3v1.8l.6 2.6v1.4l-.6 3.4-.7 1.2-1.7.4-1.7-.1-3.7-1-1.4.2-1.1 1.3.1 3.8 1 2.7.7 4.1-2.4.4-4.3 5.3-1.3 2.7-.9 2.6-1.3 5-1.1 7.1-1 1.8-1.1 1.6-2.3 2.4-3.5 2.2-2.3 2-10.2 5.8-5.3 1.9-11.5 2.3-1.3.1-1.1-.4-.8-.5-.2-2.5-.3-.2-6-.6-5.3-2.4-1.9-1.6-18.8-3.6-5.7.3-7.2 4.5-1.2 1.1v.5l1.4 2.7.3 2.1-.8 1.6-.7.9-6.1 4-8.1 5.7-4.7 1.8-2 .4h-3.3l-2.6-.8-27 19.7-2.6.2-14.6-7.1-4.6-.6-1.7 1.2-.7 2.1-.4.7-2.4 1.9-.7.8-7.5 2.2-5 3.2 1.3 1.7 2.8 1.7-3.2 2.9-7.9 3.3-1.9.5-1.4.1-1.9-.7-5.3-1.6-9.6.1-3.2.7-1 .8-2.1 2.5-5.1 3.6-8.3 2.8-1.3-.7-1.3-.4-.3-.8.3-2.6-.2-2.2-.6-.7h-1.3l-7.2 2.4-1 .9-.2 2.1-1.7 2.9-7.7 4.5-.3-6.4.5-1.2 1.1-1.8-.1-1.1-.6-.9-1.3-.6-3.2-3.3-2.2-1.7 2.5-7.9v-1.7l-.5-2.6-.7-1.9-.7-2.8.7-1.1 3.6-2.2 2-2.7.8-2.2.1-2-.5-4.3.2-1.2.6-1.3 1.1-1.5 1.7-3.2.7-2.6.2-2.6V416l.1-2.3-.1-1.3-.3-1-1.2-1.9-1-2.8 9-7.9 3.9-.4 2.1-.1 1-.4 1-1.3.5-2.8.4-4.5-.8-9.5 2.4-2.8 1-.7 3.2.7 1.9.7 1.7.1 1.9-2 .8-1.2-.4-1.2.9-7.9.5-2.2-.3-.6-2.4-1.5-1.1-1.3h-1.7l-.8-.3-.7-.6-.9-1.7-1.9-1.5-1.1-.7-3.8-1.5-.7-.6-.5-1.1-.9-2.4-.5-4.8.2-8.4.5-5.1 2.6-10.7.1-4.8-.6-3.3-.7-1.5.2-1 1.7-1.4 1.7.6-.1.8 1.1.9h1.3l1.3-.7 2.1-1.7 1-2.7-1-7.3-17.7-1.5-11.4-3.3-2.3.4h-1l-.8-.4-.1-.8 1.6-3.3.5-1.9.3-1.6-.6-3.4-.1-2.1-.2-1.4-.6-1.3-1.2-2.1-.1-.9.5-.5 2.8-1.4 1.2-1 2.3-2.9.5-1.2-1.4-2.1-.3-2.1-.8-1.2-2.1-.6-5.1 2.2-11 4.5-17.8 1.7-9.1-3.7 2.1-5.8 1-2.3 1.2-5.4.7-1.5.8-1 4.9-2.1 2.3-1.9 2.1-1.1.6-1.9v-1.7l-.4-2.6-.6-1.9.2-.9 1.2-1v-.5l-.8-1.4-1.7-1.5-6.5-3.7-3-.8-.2-4.4-1.5.4-33.7 10.5h-.6l-.1-2 .6-2.4 1.1-1.1.4-1 .9-4.1.2-2.2-.7-3-1.4-2.9-2.5-3.3-4.5-2.5 6 .4 2.1 1.7.7.9 1 .5 1.7-.5 2.4-1.4 8-6.2 2.5-1.4 5.1.2 2.3-.5 2.4-2.4 2-1.6 3.5-1.8 2.4-2.4 1.6-2.1 1-2.2 1.6-2.4.6-1.3.4-1.8.9-.9 1.4-.3 6.9.7 10.9-2.1 1.2-1.1-.5-1.4-.4-2.3.1-1.8.4-1 2.2-1.6.9-1 .4-1.2-.4-1.5.6-3.3 18.6 3.8 4.2-.3 3.4-.7 5.7-2 2.5-1.6 3.7-3.1 1.8-.8 1.2-1.2.9-1.1.4-1.4.5-.6.6.2 1.3 2.8 2.1.9 24.2 2 13.2-3.8zM284 284.4l.8-1-.1-1.2-3.3 1 .8 1.6 1.8-.4zm71.8-125.7l-4.1-.5-.8-.5-.2-1.1.5-2.1 3.6-3.4 1.7.4 1.2 1.6.4 1.4.2 1.4-.3 1.7-.3 1-1.9.1zm19.5-75.6v5.5l-1.5 1.7-2.2-1.3-1.7-1.4-1.3-1.5-1.1-.5-1.2.4-3.9 2.6-2.2-1.9-.6-1.2-2.2-.3-2-.5-6.7-4.8-1.3-.7 1.2-1 5.3-2.9 7.9-3 11.3-3.4 5-.6-2.9 8.2-2.3 2.3h-5.8l8.2 4.3z"/><path d="M317.2 128.5l.9-6.6 4-1.6 3.1-4.2 1.2 1.8.7.9 1.2.5 1.5-.1 1 .8 2 3.6.2 1-.1 1.2-3.3 2.2-12.4.5zm126.2-14.6l3.5.6 1.9 2.3.4 1.1-.2 1.7.3 3 1.4.9 1 4.5 1 1.5 1.9 1.9 2.2 1.2 2.8.8.2 6.2-1.6 3.7-2.5 3.8-3 7.1-1.8 1.2-1.6.8-14.1-2.1-1.9-.8-1.6-.4-9.8 9.1-.7.8-5.3 10.7-1.7 2.1-7.6 1.9-2.1-.8-4.3 1.6-6.1-.3-2.6-1.6-7.5-9.1-8 3.6-14.8 1.9 3.2 3.8 1 3.6.1 2.5 4.2 5 4 1.8 3.6 5.3 3.1 5.7 1.1 2.6.4 1.9-.9 2.1-.7.7-2.1 1.1-1.4 2.1-2.3 2.3-1.3.3-10.2-.4-5.9-4.1-2.5.4-3.1 3-5.8 8.5-3.2 2.9-5.9 2.8-.7.9v1.4l1.1 2.9.4 1.5-.2 1.9-.8 1.1-1.4.9-4.1 1.3-1.9-4.3-.2-3-.5-.1-1.8.3-6.4 1.8-.8-.3-1.2-1.1-1.4-2.8-1.3-2.5-.3-1 .4-1.4.7-.3 2.5.5 1.4-.1 2.3.6 1-.1 3.9-1 1.7-1 .2-1.6-.5-3.1.4-1.6 1.4-2.1 2.4-2h.8l1.1.6 1.3.4 1.5-.4 2.4-1.6.8-1.8-.8-1.1-1.7-1.7-.3-1.6-.5-4.2-3.5.7-1.1.7-1.7 1.4-1.8.4-1.2 1.4-2 1.9-1.7 2.2-1.8.9-2.3.4-1.4-.3-.5-.4.3-1.4-.2-.9-1.5-3.8-.5-1-1.1-.8-2.4-.9-1.1-.6-.7-.9-.6-1.9-.8-1.2-1.1-2.7.6-1.5 16.5-7.5-.6-2.3 4.7-4 5-2 2-1.8 2.5-2.7 1.9-1.6 1.6-.9 7.2-2.3 2.1-1.5 1.3-1.6 1.6-5 .6-.8 1.9-.1.3-1 .3-1.7-.2-1.4-.4-1.4-1.2-1.6-1.7-.4-3.5-3-2.1-3.5-1.9-1.3-1.8-.7-1.6.1-4.3-.4-10.7-2.8 3.4-5.3 3-.7 1.6.3 3.8 2.1 3.6.6 2.1-.6 1.6-1 1.8-2.9.6-1.7.9-.7.8-.4 6.4-.5 1.1-.3.3-.7-.5-1.1-.2-1.3.1-1.8 1.2-.5 5-.4 2.8-2.8 2.5-7.3-.7-1.9-3.4-1.7 1.4-3.7 1.8-.4 6 .7.9-.7.5-.8.1-1.3 1.7.1 9.5 5.9.7.8.7 1.2-1 1.4-1 2-.7 1-2.4 1.9-.7 1.8-.1 4.2-.6 2.7-1.9 2.3-1 .5-7.3 2.2-.2 2.7.2 2.4.4 1.9 1.2 4.2.7.8 1.2.5 7.8-.7 5.5 1.3 4.7 2.5 2.1 1.6 1.7 2 1.5 1 1.3.6 4.7 1.4.8-2.3 3.4-5.9 2.8-1.9 4.6-1.3 1.6-1.2 5.4-2.5.6-.8.8-1.5 1.2-3.5 1.1-.4 1.7.2 2.9-.3 4.7-1.3 4.1-3 1.3-1.7-.1-1.6-1.4-2.4-.4-2 1.1-2.1 1.1-3.5zm-112.6-9.6l1.9 1.2 2.9.4 3.4-3 .7-1.5-.1-1 3.6-.4 4.2 1.6 1.8.4 1 2.2.1 8.7-14 2.9-3.6-.1-.8-1.5-.8-2.6-.3-7.3zM557.9 310l2.4-.3.7.6 1.9.4.6.6.5 1.3-.9 1.7-1.7 1.9-1.2 2.2-1.2 4.2-.6 2.3-.9 1.9.5 1.3 1.2 1 .7 3.5-.2 1.6-.4 1.5-7.2 2.2-4.4-1.5h-1.1l-3 .6-1.5.8-2.1-1.8 6.3-2 .5-.6-.4-1.1-.6-.6-3.5-1.5-1.5-1.6-.9-1.5-1.2-1.6-.3-1.9-.3-.7-2.2-1.6v-3l-1.2-4.1-.4-1.6-.4-3.8-.7-1.5-.1-1.1.8-1.6.9-.6.8.2 1.2 1.7-.1 2.2-.1 1 1.2-.1 4.2-2.8 1-.1 1.1.5.8 1.9 2.3 1.9 10.7-.4zm-23.1 21.4l-9.6 3.8-7.5 5.2-2.4.9-2.1-.1-4.3-1.3-11.6-1.4-2.6.5-5.2 2-1.1.2-1.7-.4-2.6-1.2-2.3-1.6-7.5-4.9-4.2-1-7-.3 3.6-5.8-1.2-5-1.1-2.4-.7-3.3.5-1.7 3.8-8.8.8-4.7.8-2.3.8-1.6 1.6-2.4.9-.7 1.1-.5 1.9.1.8 1.1.5.4.9-.3 5.3-6.8 4.5-4.1.3-1.6-.2-1.7-.9-2.8.5-.9 3.7-2.4 12.3-1.2 3.8-.9 2.4-1.3 1-.4h.9l8.4 2.6.8.5.5.9-.7 3-.6 1.5-1.3 2.1-.6 1.1-.3 2.2 1.1 1.5 1.4 1.2 5.2 2.5 1.1 1 .4 1.3v8.7l-.3 1.5-1.1 3.7-.2 6.5-.4 3.1.6 7.6 4.5 6.3 4.6 2.8zm213.1-150.6l-1.1-3.4-.4-1.4-.8-2.6-1.1-2-1.7-2.3-.8-2-.4-2.8.6-7.7.7-1.9 3.3-2.6 1.8-2.2 1.2-2.3 1.2-3.1.2-4v-2.4l1.4-1.4 23.5 11.1 7.1.2-3.8 18.6-4.3 8.2-3.1 3.4-3.2 2.3-4.3 2.2-6.2 2.4h-1.5l-1.9-.4-1.6-1-1.9-.8-2.9-2.1zm46.2-47.1l-3.1-1.6-2.8.4-6 2.4.7-3.7 2.3-1.3 2.6-1.3.5-.6-.3-.7-1-.9.7-2.2 1.4-1 1.4-1.3.8-.2 1.4 1.2 1.1 1.1.9 1.2.2 1.2-.1 1.5-1.1 1.2.4 4.6zm15.1-17.2l-5.1 5.1-.5.8-.4 2.4-7-3.5-.3-.7v-1.3l4.1.2 3.4-.6 5.8-2.4z"/><circle cx="202.8" cy="392.3"/><circle cx="760" cy="112.8"/><circle cx="859.2" cy="344.4"/></svg>