<svg xmlns="http://www.w3.org/2000/svg" viewBox="0 0 182.8 50.3"><path d="M30.6 3.4v3.4h12.7v12.8h6.8V0H30.7v3.4zM.2 3.4H0v19.4h6.8V10.2h19V6.9c0-2.6 0-3.3-.1-3.4C25.6 3.4.6 3.3.2 3.4zm92.6.6c-4.3.5-7.6 2.7-8.5 5.8-.2.8-.2 3.4 0 4.2 1 3.4 3.8 5.2 9.6 5.9 2.9.4 3.9.6 5.1 1.2 2.6 1.3 2.5 4.5 0 6-1.8 1-5.4 1.2-7.8.3-1.8-.6-3.1-1.8-3.8-3.3-.2-.5 0-.5-2.6.8-1 .5-1.8 1-1.8 1.1 0 1.1 2.5 4 4.5 5.1 3.5 1.9 10.1 2 13.9.2 3.2-1.5 4.8-4.1 4.7-7.7-.2-5-3.2-7.3-10.7-8.3-4.7-.6-6.2-1.5-6.1-3.7.3-4 8.6-4.6 11.6-.8.4.5.1.6 2.4-.6 2.2-1.2 2.2-1.1 1.5-2.1-2.3-3-6.9-4.6-12-4.1zm49.3.9c-1.8.7-2.3 3.2-.9 4.6 2.2 2.2 6-.5 4.5-3.3-.6-1.2-2.3-1.8-3.6-1.3zM64.5 5c0 .1-.3 1.3-.7 2.7-.3 1.4-.7 2.7-.7 2.8-.1.2-.1.2-2.2.2h-2.1v2.2c0 2.6-.2 2.3 1.6 2.3.8 0 1.5 0 1.5.1 0 0-.3 1.6-.8 3.5l-.8 3.4h-2c-1.5 0-2 .1-2.1.1-.1.1-.1 4.1 0 4.3 0 .1.3.1 1.5.1.8 0 1.4 0 1.4.1 0 0-.2.7-.4 1.5-.7 2.7-.8 3.4-.8 3.5.1.1 5 .1 5.1 0 0-.1.3-1.2.7-2.6l.6-2.5h2.1c1.9 0 2.1 0 2.1.1s-.2 1.1-.5 2.2-.5 2.2-.6 2.5l-.1.4h5l.1-.2c0-.1.3-1.3.7-2.6l.6-2.4h4v-4.6h-3v-.3c0-.2.3-1.1.5-2.1.3-1 .6-2.3.8-2.9.2-.6.3-1.2.4-1.4l.1-.3h3.8v-4.4h-2.6l.1-.4c0-.2.1-.6.2-.7.2-.8 1-4.6 1-4.6 0-.1-5.1-.1-5.1-.1 0 .1-1.2 4.8-1.3 5.3l-.1.5h-2c-2.3 0-2.2.1-1.9-.9l.7-2.8c.3-1.1.5-2.1.5-2.1-.1-.1-5.2 0-5.3.1zm90.4 7.4c-4.6.5-7.3 3.6-6.4 7.3.7 2.6 3.4 4.2 7.6 4.5 3.3.2 4.5 1.1 3.7 2.8-1.1 2.3-6.4 1.8-9.4-.8-.4-.3-.3-.3-1 .6-.3.4-.8 1.2-1.1 1.6-.7 1-.7.9 0 1.5 2.1 2 4.4 2.8 8.1 2.8 4.4 0 7.1-1.5 8.1-4.4.5-1.3.2-3.8-.4-4.7l-.2-.4s-.2-.3-.4-.5c-1.5-1.4-2.9-1.9-6.5-2.3-2.7-.3-3.5-.7-3.7-1.7-.6-2.4 4.9-3.1 7.7-.9.5.4.4.4 1.3-.7.4-.5.9-1.1 1.2-1.5l.5-.6-.4-.4c-2.1-1.8-5.3-2.6-8.7-2.2zm18 0c-3.9.5-6.5 2.8-6.5 5.9 0 3.4 2.9 5.6 7.7 5.9 3.4.2 4.7 1.3 3.6 2.9-1.3 2-6.4 1.6-9.1-.8-.6-.5-.5-.6-1.2.4-1.9 2.7-1.8 2.5-1.1 3.1 2.2 2 4.4 2.8 8 2.8 5.7 0 8.9-2.7 8.4-7.1-.4-3.2-2.6-4.8-7.6-5.2-3.3-.3-4.5-1.1-4-2.6.6-1.8 5.4-1.8 7.6 0 .2.2.4.3.4.3.1 0 2.3-2.7 2.5-2.9.1-.2 0-.4-1.1-1.1-1.8-1.4-4.6-1.9-7.6-1.6zm-66.6.4c-.1 0-.2.1-.2.1 0 .1 1.2 3.4 1.2 3.5 0 0 .1.2.1.4.1.3.5 1.4 1.4 3.9.3.8.6 1.6.6 1.8.1.2.4 1.1.7 2 .3.9.8 2.2 1 2.9.6 1.8 1.4 4.1 1.5 4.4l.1.3h5.4l.1-.3c.1-.1.3-.7.5-1.4.2-.6.6-1.6.8-2.3.5-1.5.7-1.9 1.1-3.8.2-.8.4-1.7.5-1.9.1-.2.2-.8.4-1.4.3-1.1.3-1.1.8.7.2.8.5 2 .7 2.7.4 1.6.6 2 1.3 4.2.4 1 .7 2 .7 2.2.1.2.2.5.3.7l.2.4h2.7c3.1 0 2.7.1 3.1-.9.1-.3.5-1.5.9-2.6 1-3 2.2-6.3 2.7-7.9.6-1.8 1.7-4.9 2.2-6.2.2-.6.4-1.2.4-1.3v-.3H135c-2.8 0-2.6-.1-2.9.9-.1.4-.3 1-.4 1.4-.1.4-.2.8-.3.9 0 .1-.1.3-.1.4 0 .1-.2.5-.3.9-.1.4-.3.9-.3 1.1-.1.2-.3 1-.5 1.7s-.4 1.4-.5 1.7c-.1.2-.4 1.2-.6 2.1-.6 2.1-.8 2.6-.8 2.8-.1.5-.3.1-.8-1.7-.3-1-.7-2.3-.8-2.7-.3-.9-1-3.3-1.7-5.7-.4-1.4-.6-2-.8-2.6-.1-.2-.2-.5-.2-.7 0-.2-.1-.3-.2-.4-.2-.1-4 0-4.1.1 0 0-.3 1-.7 2.2-.7 2.3-1.2 4.2-1.5 5.2-.1.4-.2.8-.3 1.1-.1.6-.7 2.5-1 3.5-.1.4-.3 1-.4 1.4-.2.6-.3.7-.4.3 0-.1-.3-1-.6-2-.3-.9-.6-1.9-.6-2.1-.1-.2-.3-1-.5-1.7s-.4-1.4-.5-1.7c-.1-.2-.3-1-.5-1.7s-.4-1.4-.5-1.7c-.4-1.5-.9-2.9-.9-3 0 .1-4.7.1-5 .1zm34.6 9.5v9.6h4.6v-19h-4.6v9.4zM20.4 14.7s-.1 2.1-.1 4.6v4.5h-9v5.6h9v4.8c0 3.7 0 4.8.1 4.8.2.1 5.9.1 6 0 .1-.1.1-1.2.1-4.8v-4.7h9v-5.6h-9v-9h-3c-1.7-.3-3.1-.3-3.1-.2zm51.3.2c0 .1-.2.9-.4 1.9-.3 1-.7 2.6-.9 3.7l-.5 1.9h-4.8v-.2c0-.1.1-.8.3-1.5.2-.7.6-2.3.9-3.5.3-1.2.6-2.3.6-2.3.1-.1.7-.1 2.4-.1 1.8 0 2.3 0 2.4.1zM40 24.5c0 .1-.1 4.3-.1 9.5v9.4H27.3v6.8h19.4V24.5h-3.4c-2.5-.1-3.2-.1-3.3 0zM.1 34S0 37.7 0 42.2v8.1h16.2V34.1h-8C3.8 34 .1 34 .1 34zm60.4 3.2c-.1.3-.3.7-.4.9-.1.2-.2.6-.3.8-.1.2-.4.8-.6 1.3-.2.5-.5 1.1-.6 1.4-.1.3-.6 1.4-1.1 2.4-.5 1-.9 2.1-1 2.3-.3.6-.3.6.8.6h1l.5-1 .5-1h2.6c2 0 2.6 0 2.7.1 0 .1.2.5.5.9l.4.8h1c1.1 0 1.1 0 .8-.6-.1-.2-.5-1.2-.9-2.1-1-2.3-1-2.3-1.6-3.5-.3-.6-.6-1.4-.8-1.8-.2-.4-.5-1.1-.7-1.5l-.3-.7h-2.2l-.3.7zm82-.5c0 .1 2.2 5.3 2.7 6.5.1.3.5 1.3.9 2.1l.6 1.5h2l.5-1.2c.3-.6.9-2.1 1.4-3.3 1.9-4.6 2.3-5.6 2.3-5.6s-.5-.1-1.1 0h-1.1l-.5 1.3c-.3.7-.8 1.9-1 2.7-1.2 3.1-1.4 3.6-1.5 3.6 0 0-.4-.8-.8-1.8-1.8-4.7-2.1-5.5-2.2-5.6-.1-.3-2.2-.4-2.2-.2zm18.8 5v5.1h.9c.7 0 .9 0 .9-.1v-10c0-.1-.2-.1-.9-.1h-.9v5.1zm3.1-5c-.1.1-.1 9.8 0 10 .1.2 1.6.2 1.7 0 0-.1.1-2.3.1-4.9 0-2.6 0-4.9-.1-4.9 0-.3-1.5-.4-1.7-.2zm-87 1c-.1 0-.3.1-.4.1-.2 0-.2.1-.2.9v.9h-1.2v1.6h1.2v1.9c0 2.3.2 2.7 1 3.3.7.5 2.5.6 3 .1.2-.2-.3-1.5-.5-1.4-.9.2-1 .1-1.3-.1l-.3-.3v-3.5h.9c1.1 0 1.3-.2 1-1.5 0 0-.4-.1-1-.1h-1v-2h-.5c-.3.1-.6.1-.7.1zm-15.2 2.1c.2.4.4.9.5 1.1.6 1.3.9 2 .9 2.1 0 0-.8.1-1.8.1s-1.8 0-1.8-.1l.2-.6c1-2.3 1.4-3.1 1.4-3.3.2-.3.2-.2.6.7zm75.7-.3c-1.5.4-2.2 1.4-1.9 2.7.2.9 1.1 1.4 2.7 1.7 1.2.2 1.5.3 1.6.6.3 1.1-2.3 1.3-3.6.2-.1-.1-.2-.1-.2-.1 0 .1-.2.3-.4.6-.4.6-.4.7.2 1.1 2.3 1.6 5.8.6 5.8-1.6 0-1.4-.8-2-2.8-2.2-1.1-.1-1.5-.3-1.5-.8-.1-.7 1.4-1 2.5-.4.3.2.5.3.5.3s.2-.2.4-.5c.5-.6.5-.6 0-.9-.8-.8-2.2-1-3.3-.7zm32 .1c-2.2.7-3.2 3.2-2.2 5.4.9 2 3.7 2.7 5.9 1.5.8-.5.9-.6.2-1.2l-.5-.5-.5.3c-1.3.6-2.8.4-3.4-.6-.3-.5-.4-.5 2.6-.5h2.8v-.6c.1-2.9-2.3-4.7-4.9-3.8zm-85.9 0c-2.2.6-3.2 3.1-2.2 5.3 1.2 2.7 5.4 2.7 6.7.1 1.4-3-1.3-6.3-4.5-5.4zm9.2 0c-.2.1-.7.3-1 .5l-.6.4v-.8h-1.4l-.2.1v3.3c0 4.2-.1 3.8.9 3.7h.8v-2.1c.1-2.7.3-3.3 1.6-3.5 1.5-.2 1.9.5 1.9 3.4 0 2.4-.1 2.3 1 2.2h.8V42l-.2-.5c-.8-1.6-2.2-2.3-3.6-1.9zm7.4 0c-1.6.4-2.7 1.9-2.7 3.6 0 4.6 6.7 5.2 7.4.6.5-2.8-2-4.9-4.7-4.2zm8.8 0c-.2.1-.5.2-.7.4-.4.3-.4.3-.5-.1-.1-.3-.2-.3-1-.3h-.7v7.2h1.8v-2.2c.1-2.8.3-3.3 1.5-3.3s1.4.5 1.5 3.4v2.2h.8c1 0 1 .2 1-2.3 0-2.8.3-3.3 1.5-3.3 1.1 0 1.3.4 1.3 3.3v2.2h1.6v-2.5c0-2.7 0-3-.7-3.9-.9-1.2-3.2-1.2-4.3-.1l-.4.4-.2-.2c-.4-.9-1.5-1.2-2.5-.9zm12.3 0c-2 .5-3.1 2.6-2.6 4.6 1 3.8 6.7 3.5 7.3-.4.4-2.7-2-4.9-4.7-4.2zm33 0c-3.4.9-3.4 6.4 0 7.3 1.1.3 2.2.1 3-.5.5-.4.6-.4.6.1v.4h.8c1 0 .9.4.9-3.6 0-3.9.1-3.6-.9-3.6h-.8l-.1.4c-.1.4-.1.4-.4.1-.7-.7-2-.9-3.1-.6zm-87.1.1c-.2 1.5 0 4.8.3 5.5.8 1.8 3 2.3 4.5 1.1.5-.4.5-.4.6.1v.4h1.6v-7.2h-.9c-1 0-.9-.2-1 2.3 0 2.1 0 2.2-.5 2.7-.5.6-1.4.8-2.1.4-.8-.4-.9-.9-.9-3.5v-1.9h-.9c-.3.1-.7.1-.7.1zm59.9 2.2c0 3.8.7 5 3 5 .9 0 1.1-.1 1.9-.6.5-.3.5-.3.5 0 0 .5 0 .6.9.6 1 0 .9.4.9-3.6s.1-3.6-1-3.6h-.9v2c0 1.8 0 2.1-.2 2.4-.6 1.3-2.1 1.6-3 .5l-.3-.4v-4.6h-1.8v2.3zm47.5-2.2c0 .1 2.5 6.3 2.7 6.6.2.3.1.5-.5 1.8s-.7 1.7-.6 1.7c.3 0 1.5.1 1.7 0 .2 0 .4-.6 1.4-2.8.6-1.5 1.2-2.9 1.3-3.1.7-1.5 1.7-4 1.7-4.1 0-.1-.2-.1-.9-.1h-.9l-.5 1.2c-.3.6-.6 1.3-.6 1.5-.1.2-.3.8-.5 1.3-.4 1-.4 1-.8-.1-.5-1.4-1.3-3.7-1.3-3.8-.2-.1-2.2-.2-2.2-.1zm-2.8 1.5c.8.4 1 1.1.4 1.1h-3.1c-.4 0 0-.8.6-1.1.7-.3 1.4-.3 2.1 0zm-15.6-.1c2 .4 2 3.6.1 4.1-1.5.4-2.7-.5-2.7-2.1 0-1.4 1.1-2.3 2.6-2zm-70.5.4c.7.5 1 1.4.8 2.3-.5 2.3-3.7 2-3.8-.4.1-1.9 1.7-2.9 3-1.9zm16.6 0c.5.4.8 1 .8 1.8 0 2.6-3.5 2.8-3.8.2-.1-1.8 1.7-3 3-2zm20.7-.2c1.4.6 1.6 2.8.4 3.7-.8.6-2.3.2-2.7-.7-.9-1.8.6-3.8 2.3-3z" fill-rule="evenodd" clip-rule="evenodd" fill="#e10909"/></svg>