<svg width="12" height="10" fill="none" xmlns="http://www.w3.org/2000/svg"><path d="M11.012 10H.988C.424 10 0 9.524 0 8.889V1.11C0 .476.424 0 .988 0h10.094c.494 0 .918.476.918 1.111v7.857c0 .556-.424 1.032-.988 1.032zM.988.873c-.14 0-.14.08-.14.159v7.857c0 .159.07.159.14.159h10.094c.141 0 .141-.08.141-.16V1.112c0-.159-.07-.159-.14-.159H.987v-.08z" fill="#313131"/><mask id="a" fill="#fff"><path d="M5.93 5.714c-.071 0-.142 0-.213-.079L.494 1.667c-.141-.08-.141-.318-.07-.556C.493.873.775.873.987.952l4.941 3.81 5.224-3.81c.14-.158.423-.079.564.16.142.158.071.475-.14.634L6.14 5.714c0-.079-.141 0-.212 0z"/></mask><path d="M5.93 5.714c-.071 0-.142 0-.213-.079L.494 1.667c-.141-.08-.141-.318-.07-.556C.493.873.775.873.987.952l4.941 3.81 5.224-3.81c.14-.158.423-.079.564.16.142.158.071.475-.14.634L6.14 5.714c0-.079-.141 0-.212 0z" fill="#000"/><path d="M5.717 5.635l1.495-1.33-.13-.145-.155-.118-1.21 1.593zM.494 1.667L1.704.074l-.11-.083-.12-.068-.98 1.744zM.988.952L2.209-.63l-.238-.184L1.69-.92.988.952zm4.941 3.81L4.708 6.346l1.188.916 1.212-.884-1.179-1.616zm5.224-3.81l1.178 1.616.174-.126.142-.16-1.494-1.33zm.564.16l-1.72 1.02.098.165.128.143 1.494-1.329zm-.14.634l1.179 1.615.01-.007.01-.008-1.2-1.6zM6.14 5.714h-2v3.937L7.32 7.33 6.14 5.714zm-.212-2c-.076 0 .164-.011.436.065.346.097.637.291.847.527L4.223 6.964a2.216 2.216 0 0 0 1.513.744c.1.007.187.006.193.006v-4zm.998.328L1.704.074-.716 3.26l5.224 3.969 2.42-3.186zM1.474-.077c.756.425.88 1.143.897 1.348.021.238-.023.385-.03.409L-1.494.543a2.929 2.929 0 0 0-.119 1.083c.036.403.23 1.28 1.127 1.784l1.96-3.487zm.867 1.757a1.731 1.731 0 0 1-1.32 1.199 1.359 1.359 0 0 1-.735-.054L1.69-.92a2.648 2.648 0 0 0-1.406-.133C-.393-.926-1.2-.445-1.494.543L2.34 1.68zm-2.574.856l4.941 3.81L7.15 3.178 2.21-.632-.234 2.537zm7.34 3.842l5.224-3.81L9.974-.663l-5.223 3.81 2.357 3.23zm5.54-4.096a1.734 1.734 0 0 1-1.753.526 1.507 1.507 0 0 1-.897-.677l3.44-2.04a2.494 2.494 0 0 0-1.46-1.133c-.657-.185-1.622-.118-2.319.665l2.99 2.659zm-2.424.158A1.648 1.648 0 0 1 9.827.995c.069-.31.243-.62.55-.85l2.399 3.201c.518-.388.834-.936.956-1.483.114-.514.114-1.368-.52-2.081L10.223 2.44zm.174-2.31L4.962 4.1 7.32 7.33l5.436-3.968-2.36-3.23zM8.14 5.715a2.03 2.03 0 0 0-2.21-2.028c-.14.011-.25.034-.308.047-.07.016-.23.06-.148.038.008-.002.05-.013.11-.025.054-.01.18-.032.344-.032v4c.312 0 .568-.075.58-.079.13-.034.016-.005-.009 0a1.925 1.925 0 0 1-.885-.02 1.97 1.97 0 0 1-1.474-1.9h4z" fill="#fff" mask="url(#a)"/><path stroke="#fff" d="M.5.5h11v9H.5z"/></svg>