<svg width="20" height="27" fill="none" xmlns="http://www.w3.org/2000/svg"><path d="M20 15.732c-.122.28-.01.682-.51.755-.837.124-1.112-.062-1.112-.91-.01-2.295-.01-4.58-.01-6.875v-.62h-.837c-1.255 0-2.52.01-3.776 0-1.02-.01-1.235-.207-1.265-1.23-.03-1.375-.03-2.76-.041-4.135v-.59H1.663v23.219H9.96c.357 0 .837-.145.98.31.153.445.153.951-.225 1.344H0V1.88c.03-.166.092-.331.071-.497C.031.815.276.515.816.433h12.551c.235.165.5.289.704.485a543.206 543.206 0 0 1 5.409 5.48c.224.227.346.568.52.857v8.477zm-5.826-9.345H17c-.929-.941-1.878-1.913-2.826-2.874v2.874z" fill="#fff"/><path d="M15.307 27c-.439-.207-.551-.558-.541-1.044.02-2.078.01-4.156.01-6.234l-.153-.062c-.132.114-.265.228-.388.341-.591.59-1.183 1.19-1.785 1.768-.388.372-.868.372-1.184.052-.337-.341-.337-.796.051-1.189 1.245-1.292 2.51-2.564 3.765-3.846.225-.227.46-.372.735-.082 1.388 1.437 2.786 2.863 4.174 4.3v.414c-.44.796-.909.868-1.562.238-.296-.29-.581-.58-.867-.869-.378-.382-.755-.755-1.225-1.24v.6c0 1.891-.03 3.783 0 5.675.01.547-.163.92-.622 1.168-.133.01-.275.01-.408.01z" fill="#fff"/></svg>